<svg xmlns="http://www.w3.org/2000/svg" width="11.414" height="16.603" viewBox="0 0 11.414 16.603">
  <path d="M3.115,14.733a1.038,1.038,0,0,0,.174.574l.554.833a1.037,1.037,0,0,0,.864.463h2a1.037,1.037,0,0,0,.864-.463l.554-.833a1.037,1.037,0,0,0,.174-.574V13.489H3.113l0,1.244ZM0,5.707A5.675,5.675,0,0,0,1.412,9.461a9.319,9.319,0,0,1,1.693,2.965l0,.025H8.3l0-.025A9.319,9.319,0,0,1,10,9.461,5.706,5.706,0,1,0,0,5.707ZM5.707,3.113A2.6,2.6,0,0,0,3.113,5.707a.519.519,0,1,1-1.038,0A3.636,3.636,0,0,1,5.707,2.075a.519.519,0,1,1,0,1.038Z" fill="var(--Secondary,#2e4157)"/>
</svg>
