<svg xmlns="http://www.w3.org/2000/svg" width="36" height="31.5" viewBox="0 0 36 31.5">
  <path id="Icon_awesome-window-close" data-name="Icon awesome-window-close" d="M32.625,2.25H3.375A3.376,3.376,0,0,0,0,5.625v24.75A3.376,3.376,0,0,0,3.375,33.75h29.25A3.376,3.376,0,0,0,36,30.375V5.625A3.376,3.376,0,0,0,32.625,2.25ZM26.747,22.676a.866.866,0,0,1,0,1.223L23.9,26.747a.866.866,0,0,1-1.223,0L18,22.029l-4.676,4.718a.866.866,0,0,1-1.223,0L9.253,23.9a.866.866,0,0,1,0-1.223L13.971,18,9.253,13.324a.866.866,0,0,1,0-1.223L12.1,9.253a.866.866,0,0,1,1.223,0L18,13.971l4.676-4.718a.866.866,0,0,1,1.223,0L26.747,12.1a.866.866,0,0,1,0,1.223L22.029,18Z" transform="translate(0 -2.25)"/>
</svg>
