<svg xmlns="http://www.w3.org/2000/svg" width="196.882" height="108.978" viewBox="0 0 196.882 108.978"><path d="M-36.871,96.876V79.829l28.746-26.1-28.746-25.96V10.808L10.76,53.731-36.87,96.874Z" transform="translate(186.122 -2)" fill="#fff"/><path d="M52.036,103V85.443L5.4,51.693l46.64-33.926V0h.2A51.787,51.787,0,0,1,84.667,11.539l-24.35,90.875A52,52,0,0,1,52.5,103Zm-19.1-3.844A51.692,51.692,0,0,1,6.444,74.571l38.637,27.9v0A51.251,51.251,0,0,1,32.936,99.155Zm62.888-75.16A51.818,51.818,0,0,1,104,51.747,51.572,51.572,0,0,1,76.2,97.239ZM6.24,28.841A51.661,51.661,0,0,1,32.968,3.833,51.2,51.2,0,0,1,45.29.5L6.242,28.842Z" transform="translate(39.232 -0.001)" fill="#fff"/><path d="M19.841,46.367,50.5,24.128V39.334l-9.673,7.033,9.673,7V68.49Z" transform="translate(-16.768 6)" fill="#fdfdfd"/><g transform="translate(21.328 103)"><text transform="matrix(1, -0.017, 0.017, 1, -21.328, -43.014)" fill="#343434" font-size="36" font-family="Nunito-ExtraBoldItalic, Nunito" font-weight="800" font-style="italic"><tspan x="0" y="36">griffa.</tspan></text></g></svg>