<svg xmlns="http://www.w3.org/2000/svg" viewBox="0 0 739.719 421">
  <g transform="translate(-938 496.046)">
    <path id="BorderScreen" d="M10,0H695a10,10,0,0,1,10,10V378a0,0,0,0,1,0,0H0a0,0,0,0,1,0,0V10A10,10,0,0,1,10,0Z" transform="translate(955 -496.046)" fill="#233241"/>
    <rect id="Screen" width="679" height="361" transform="translate(967 -479.046)" fill="#3f5671"/>
    <g id="Brucks_And_Stuff" data-name="Brucks And Stuff" transform="translate(452 70.804)">
      <path id="BricksReverse" d="M940.183,633.77V661.8h-8.525v34.377H895.353v37.566h96.855v34.281H963.492v37.349h-40.8v38.565h89.089v36.488H982.413V917.1H943.337v36.983h30.778v37.478H351.461V633.77H940.183Z" transform="translate(175.989 -1176.285)" fill="#3f5671"/>
      <path id="Path_75" data-name="Path 75" d="M880.446,117.342l461.246,256.6H1203.865v29.05H1394.2l72.249,40.207H877.957Z" transform="translate(-349 -628.85)" fill="#fff"/>
      <path id="Bricks" d="M0,366.264V.15l575.81.906H594.7v34.55h-8.836V72.347H551.6v28.8h96.419v44.686H619.646V182.57H580.46v28.785H668.4v44.686H640.586v36.741H600.552v28.8h30.8v44.686Zm563.419-7.956H622.5V329.523h-59.08ZM8.461,150.787h.02V168.67l-.01,17.863h.01V358.309H555.649V329.523h-231.7V284.837h40.913v-28.8H219.15V248.1H389.883V219.3H76.594v-7.946l159.991-.169V182.57H62.624v-7.956H275.287V145.829H35.049v-8.195l338.672.129V108.9l-261.159.189v-7.946l162.716-.159V72.317l-105.739.03V64.4h272.74V35.716H8.461v9.827h.02v87.381h-.02ZM532.9,321.578h59.08v-28.8H532.9Zm-66.948,0h59.08v-28.8h-59.08Zm-66.958,0h59.08v-28.8H399Zm-66.948,0h59.08v-28.8h-59.08Zm240.238-36.741h59.07v-28.8h-59.07Zm-66.948,0h59.07v-28.8h-59.07Zm-66.948,0h59.07v-28.8h-59.07Zm-66.948,0h59.07v-28.8H371.44ZM599.851,248.1h59.08V219.3h-59.08Zm-66.948,0h59.08V219.3H532.9Zm-66.958,0h59.08V219.3h-59.08ZM399,248.1h59.08V219.3H399Zm113.233-36.741H571.3V182.57h-59.07Zm-66.958,0h59.08V182.57H445.27Zm-66.948,0H437.4V182.57h-59.08Zm-66.948,0h59.08V182.57h-59.08Zm-66.948,0H303.5V182.57h-59.08Zm306.2-36.741h59.07V145.829h-59.07Zm-66.948,0h59.07V145.829h-59.07Zm-66.948,0H475.8V145.829h-59.07Zm-66.948,0h59.06V145.829h-59.06Zm-66.958,0h59.07V145.829H282.82Zm298.321-36.741h59.08V109.088h-59.08Zm-66.948,0h59.07V109.088h-59.07Zm-66.949,0h59.07V109.088h-59.07Zm-66.948,0h59.07V109.088H380.3Zm103.38-36.741h59.07V72.347h-59.07Zm-66.948,0H475.8V72.347h-59.07Zm-66.948,0h59.06V72.347h-59.06Zm-66.958,0h59.07V72.347H282.82ZM517.145,64.4h59.08v-28.8h-59.08Zm-66.948,0h59.08v-28.8H450.2ZM585.9,28.607V7.847L8.481,8.524V27.671h-.02v.169H18.3v-.01Z" transform="translate(523 -547.414)" fill="#2e4157"/>
    </g>
    <path id="Border" d="M5,51.316a5,5,0,0,1-5-5V12.351a5,5,0,0,1,5-5H46.575A7.4,7.4,0,0,1,53.7,1.974H73.112a7.4,7.4,0,0,1,7.121,5.378h7.606A7.4,7.4,0,0,1,94.96,1.974h19.415A7.4,7.4,0,0,1,121.5,7.351h7.6a7.4,7.4,0,0,1,7.121-5.378h19.416a7.4,7.4,0,0,1,7.121,5.378h7.606a7.4,7.4,0,0,1,7.121-5.378H196.9a7.4,7.4,0,0,1,7.121,5.378h7.606a7.4,7.4,0,0,1,7.121-5.378H364.973a7.4,7.4,0,0,1,7.121,5.378H379.7a7.4,7.4,0,0,1,7.121-5.378h19.415a7.4,7.4,0,0,1,7.121,5.378h7.606a7.405,7.405,0,0,1,7.121-5.378H447.5a7.4,7.4,0,0,1,7.121,5.378h7.606a7.4,7.4,0,0,1,7.121-5.378h19.415a7.4,7.4,0,0,1,7.121,5.378h7.606a7.4,7.4,0,0,1,7.121-5.378h19.415a7.405,7.405,0,0,1,7.121,5.378h7.326A7.4,7.4,0,0,1,551.875,0h19.415a7.4,7.4,0,0,1,7.4,7.351h7.045A7.4,7.4,0,0,1,593.138,0h19.415a7.4,7.4,0,0,1,7.4,7.351H734.72a5,5,0,0,1,5,5V46.317a5,5,0,0,1-5,5Z" transform="translate(938 -126.362)" fill="#233241"/>
    <g id="Close_Buttons" data-name="Close Buttons" transform="translate(-1733 -2324.046)">
      <circle id="Ellipse_5" data-name="Ellipse 5" cx="6.5" cy="6.5" r="6.5" transform="translate(2745 1859)" fill="#233241"/>
      <circle id="Ellipse_6" data-name="Ellipse 6" cx="6.5" cy="6.5" r="6.5" transform="translate(2767 1859)" fill="#2e4157"/>
      <circle id="Ellipse_8" data-name="Ellipse 8" cx="6.5" cy="6.5" r="6.5" transform="translate(2723 1859)" fill="#8ab5ea"/>
    </g>
    <g id="DecorContent" transform="translate(-1737 -2329.855)">
      <rect id="Rectangle_100" data-name="Rectangle 100" width="144" height="92" rx="2" transform="translate(2761 2108.81)" fill="#2e4157"/>
      <rect id="Rectangle_101" data-name="Rectangle 101" width="126" height="59" rx="2" transform="translate(2769 2118.81)" fill="#3f5671"/>
      <circle id="Ellipse_7" data-name="Ellipse 7" cx="6.5" cy="6.5" r="6.5" transform="translate(2769 2182.81)" fill="#f0f0f0"/>
      <rect id="Rectangle_111" data-name="Rectangle 111" width="109" height="4" transform="translate(2786 2190.81)" fill="#8ab5ea"/>
      <rect id="Rectangle_120" data-name="Rectangle 120" width="95" height="5" transform="translate(2786 2182.81)" fill="#8ab5ea"/>
      <rect id="Rectangle_121" data-name="Rectangle 121" width="158" height="3" transform="translate(2768 2054.81)" fill="#8ab5ea"/>
      <rect id="Rectangle_122" data-name="Rectangle 122" width="124" height="4" transform="translate(2768 2019.81)" fill="#8ab5ea"/>
      <rect id="Img" width="29" height="29" rx="2" transform="translate(2727 2009.81)" fill="#2e4157"/>
      <rect id="Img-2" data-name="Img" width="29" height="28" rx="2" transform="translate(2727 2053.81)" fill="#8ab5ea"/>
      <g id="Postcard" transform="translate(-2 5.81)">
        <rect id="Rectangle_66" data-name="Rectangle 66" width="80" height="88" rx="2" transform="translate(2729 1890)" fill="#2e4157"/>
        <rect id="Rectangle_81" data-name="Rectangle 81" width="58" height="34" rx="2" transform="translate(2740 1900)" fill="#3f5671"/>
      </g>
    </g>
  </g>
</svg>
