<svg xmlns="http://www.w3.org/2000/svg" viewbox="0 0 101.25 90"><path data-name="Icon awesome-external-link-alt" d="M101.25 4.219v22.5a4.222 4.222 0 01-7.2 2.983l-6.277-6.277-42.808 42.804a4.219 4.219 0 01-5.966 0l-3.977-3.977a4.219 4.219 0 010-5.966l42.806-42.808L71.552 7.2A4.222 4.222 0 0174.535 0h22.5a4.219 4.219 0 014.215 4.219zM71.548 47.6l-2.812 2.813A4.219 4.219 0 0067.5 53.4v25.35H11.25V22.5h46.406a4.219 4.219 0 002.983-1.235l2.813-2.813a4.219 4.219 0 00-2.983-7.2H8.438A8.437 8.437 0 000 19.688v61.875A8.437 8.437 0 008.438 90h61.875a8.437 8.437 0 008.438-8.437V50.584a4.219 4.219 0 00-7.203-2.984z"/></svg>