<svg xmlns="http://www.w3.org/2000/svg" xmlns:xlink="http://www.w3.org/1999/xlink" width="916.432" height="848" viewBox="0 0 916.432 848"><defs><clipPath id="a"><rect width="916.432" height="848" transform="translate(283 85)" fill="none" stroke="#707070" stroke-width="1"/></clipPath></defs><g transform="translate(-283 -85)" clip-path="url(#a)"><g transform="translate(41 -47)"><g transform="translate(15 -178)"><g transform="translate(86 321)"><g transform="translate(0 0)"><path d="M253.818,444.22l-23.74,55.666L128.485,464.956l22.337-43.046L254.1,435.688Z" transform="translate(568.315 1787.807)" fill="#f0f0f0"/><path d="M178.057,442.406,167.433,526.1,38.886,479.527l56.683-61.042Z" transform="translate(166.377 1772.441)" fill="#f0f0f0"/><path d="M736.157,261.231s54.471,69.171-23.5,169.365S541.832,628.41,541.832,628.41L363.94,924.77S265.6,1217.607,245.908,1225.306s-28.727-26.23-19.8,9.8,2.6,33.719-6.072,35.521-32.02-3.233-24.189,11.774,14.261,15.217-2.878,14.612-23.033-11.316-23.768,3.361-17.41,47.7-17.41,47.7S48.308,1315,44.657,1302.267s28.789-17.9,23-30.707-7.936-12.908-6.992-31.766,14.025-22.618,14.025-22.618,10.914-3.815,7.055-12.378-21.211-4.949.735-14.688,125.833-327.6,125.833-327.6,7.98-159.448,38.449-210.9,27.737-425.6,94.368-427.469S736.157,261.231,736.157,261.231Z" transform="translate(190.976 900.34)" fill="#233241"/><path d="M341.073,252.507,311.93,577.2s48.505,316.934,22.256,412.672-10.624,83.684-24.317,100.012-23.978,7.559-14.025,22.618,16.167,19.484-1.785,35.672-28.536,55.734-28.536,55.734l-108.686-14.333s30.258-47.245,20.051-58.136-38.869,4.931-16.273-17.363,34.9-11.4,22.575-22.317-31.81-7.426-13.841-23.6,37.261-15.474,20.432-22.392-36.422-1.286-27.213-13.588,20.642-26.59,20.642-26.59l-16.147-191.8s-26.837-63.99-16.905-90.959-23.823-253.019-23.823-253.019Z" transform="translate(558.671 1027.875)" fill="#233241"/><path d="M359.4,466.561s22.47-20.223,28.264-7.408,47.234,127.753,18.98,135.178-69.38,14.34-90.481,7.315S251.55,563.63,198.005,561.74s-97.368-26.55-96.948-34.94-5.627-59.042,35.065-57.606,117.966-42.069,117.966-42.069,17.47-9.13,25.954-6.723,0,45.466,0,45.466S326.969,513.757,359.4,466.561Z" transform="translate(444.834 1779.229)" fill="#233241"/><path d="M328.813,476.423s21.587-45.471,40.339-34.311-.61,140.767-.61,140.767-18.477,26.667-67.449,18.636-178.867-27.329-209.169-22.1-109.9-33.3-86.066-80.772c0,0,12.07-26.893,63.372-22.98s148.589-53.6,148.589-53.6,12.866-4.343,16.937,0,8.913,40.842,8.913,40.842S297.572,500.537,328.813,476.423Z" transform="translate(-1.47 1779.854)" fill="#233241"/><ellipse cx="124.378" cy="121.74" rx="124.378" ry="121.74" transform="translate(592.685 84.324) rotate(2.806)" fill="#f8caca"/><path d="M267.58,59.611S327.468,192.017,350.4,205.437c9.629,5.638-17.963,21.453-54.576,38.536-47.306,22.081-110.579,46-110.579,46S161.658,160.954,126.612,132.4,267.58,59.611,267.58,59.611Z" transform="translate(539.205 162.556)" fill="#f8caca"/><path d="M167.343,262.868l-12.557,79.417s-90.524-34.714-57.6-92.395Z" transform="translate(395.577 1016.135)" fill="#f8caca"/><path d="M140.3,167.45c-2.791-1.7-8.323-26.337-8.323-26.337l162.19-56.258s19.731,16.927,18.591,22.717S143.09,169.147,140.3,167.45Z" transform="translate(583.968 275.797)" fill="#f0f0f0"/><path d="M119.323,871.822c60.9,69.376,404.272,24.755,404.272,24.755l-1.85-48.378,45.044-42.513-2.58-206.048s43.355-95.129,57.129-241.745a129.626,129.626,0,0,0-.328-27.04c-15.5-132.31-136.387-245.408-142.519-243.631-3.07.869-129.648,36.809-164.088,52.909-39.558,18.484-81,38.042-81,38.042-52.359,17.1-58.9,319.478-77.415,346.138S149.9,645.939,149.9,645.939l-23.781,89.517S58.41,802.446,119.323,871.822Z" transform="translate(413.194 286.324)" fill="#1473e6"/><path d="M324.718,116.446s51.155,178.33,32.317,297.449S181.864,870.037,181.864,870.037l-48.359,23.509-2.94,58.728-28.742-89.093L202.307,679.751S120.825,31.488,324.718,116.446Z" transform="translate(448.711 383.08)" opacity="0.1" style="isolation:isolate"/><path d="M379.8,110.913s51.155,178.33,32.317,297.449S236.945,864.5,236.945,864.5L188.562,888.05l-2.938,58.7L88.467,916l24.885-68.468s-32.174-43.162-7.98-54.919,23.372-81.132,23.372-81.132S175.9,25.96,379.8,110.913Z" transform="translate(388.795 359.987)" fill="#1473e6"/><path d="M344.605,280.969c-.71-19.7-10.413-43.438-30.6-44.238-10.518-.42-19.989,5.842-29.618,10.159a85.553,85.553,0,0,1-59.7,3.658c-23.023-7.179-41.335-23.781-58.855-39.914l-26.493-24.4a135.637,135.637,0,0,1-15.88-16.364c-18.025-23.331-18.383-57.189-4.674-83.622a122.375,122.375,0,0,1,68.181-55.856,228.442,228.442,0,0,1,89.4-10.524A391.809,391.809,0,0,1,428.3,59.493c30.839,15.231,61.945,38.1,67.8,71.459,4.56,25.967-7.34,51.951-18.94,75.993l-42.07,87.213c-7.451,15.447-15.52,31.626-29.891,41.405s-37.033,10.054-46.584-4.012C358.593,331.561,345.32,300.669,344.605,280.969Z" transform="translate(481.548 -19.113)" fill="#93876f"/><path d="M180.525,329.088c5.858,19.494,2.4-61.987,2.4-61.987l34.858-54.264s-43.445,22.338-52.326,37.479S174.673,309.594,180.525,329.088Z" transform="translate(723.346 849.917)" fill="#0e58b2"/><path d="M184.927,163.946c-32.265,2.581-76.345-100.117-25.841-130.633S53.246,71.168,142.914,148.025,217.206,161.37,184.927,163.946Z" transform="translate(505.911 11.23)" fill="#837863"/><path d="M299.627,87.026C250.653,79,120.757,59.7,90.456,64.932,63.606,69.569-1.935,39.85.044,0,24.924,16.109,106.4,40.674,369.849,47.6c-1.543,12.534-2.778,20.8-2.778,20.8s-13.957,20.142-49.754,20.142A109.208,109.208,0,0,1,299.627,87.026Z" transform="translate(0 2299.826)" fill="#fff"/><path d="M215.206,100.351c-21.1-7.026-64.615-38.013-118.16-39.9S-.319,33.894.1,25.506C.273,22.027-.664,11.284,1.079,0l.913.256s63.42,29.782,94.821,30.068S239.5,51.051,263.276,64.728c13.693,7.872,32.212,18.947,45.458,26.925a9.743,9.743,0,0,1-3.051,1.386c-19.957,5.245-46.344,10.235-67.553,10.236C229.315,103.275,221.4,102.413,215.206,100.351Z" transform="translate(545.793 2280.521)" fill="#fff"/><path d="M1674.307,1728.7s39.588-19.666,84.261-14.517c15.189,1.751,45.451,10.724,60.693,14.517,24.765,6.154,48.8,4.447,48.8,4.447s-32.862,11.621-77.535,6.47c-13.536-1.561-18.891-8.351-42.363-10.918S1674.307,1728.7,1674.307,1728.7Z" transform="translate(-1551.932 559.628)" fill="#fff"/><path d="M0,15.377S39.588-4.29,84.261.86c15.189,1.752,45.451,10.724,60.693,14.517,24.765,6.154,48.8,4.447,48.8,4.447s-32.862,11.621-77.535,6.47c-13.536-1.56-18.891-8.351-42.363-10.918S0,15.377,0,15.377Z" transform="translate(651.43 2261.247) rotate(7)" fill="#fff"/></g></g></g></g></g></svg>