<svg class="dark" xmlns="http://www.w3.org/2000/svg" width="12" height="16" viewBox="0 0 12 16">
    <path fill="var(--Text,#2e4157)" d="M5.816,0A6.167,6.167,0,0,0,0,6.252V14.5a.5.5,0,0,0,.853.353l.779-.579a.5.5,0,0,1,.672.069l1.342,1.511a.5.5,0,0,0,.707,0l1.273-1.433a.5.5,0,0,1,.748,0l1.273,1.433a.5.5,0,0,0,.707,0L9.7,14.343a.5.5,0,0,1,.672-.069l.779.579A.5.5,0,0,0,12,14.5V6A6,6,0,0,0,5.816,0ZM4,7A1,1,0,1,1,5,6,1,1,0,0,1,4,7ZM8,7A1,1,0,1,1,9,6,1,1,0,0,1,8,7Z" transform="translate(0 0)" />
</svg>