<svg xmlns="http://www.w3.org/2000/svg" width="26.666" height="26" viewBox="0 0 26.666 26"><path d="M8.919,21.5c0,.108-.124.194-.28.194-.177.016-.3-.07-.3-.194,0-.108.124-.194.28-.194C8.779,21.288,8.919,21.374,8.919,21.5Zm-1.672-.242c-.038.108.07.231.231.263a.252.252,0,0,0,.333-.108c.032-.108-.07-.231-.231-.28A.276.276,0,0,0,7.247,21.256Zm2.376-.091c-.156.038-.263.14-.247.263.016.108.156.177.317.14s.263-.14.247-.247S9.779,21.148,9.624,21.164ZM13.161.563A12.892,12.892,0,0,0,0,13.681a13.479,13.479,0,0,0,9.113,12.86c.688.124.93-.3.93-.651,0-.333-.016-2.172-.016-3.3,0,0-3.763.806-4.554-1.6,0,0-.613-1.564-1.495-1.968,0,0-1.231-.844.086-.828A2.838,2.838,0,0,1,6.14,19.578,2.842,2.842,0,0,0,10.059,20.7a2.988,2.988,0,0,1,.86-1.812c-3.005-.333-6.038-.769-6.038-5.941A4.075,4.075,0,0,1,6.15,9.783a5.08,5.08,0,0,1,.14-3.65C7.414,5.783,10,7.584,10,7.584a12.7,12.7,0,0,1,6.753,0s2.586-1.806,3.71-1.452a5.077,5.077,0,0,1,.14,3.65,4.179,4.179,0,0,1,1.387,3.167c0,5.188-3.167,5.6-6.172,5.941a3.179,3.179,0,0,1,.914,2.495c0,1.812-.016,4.054-.016,4.495,0,.349.247.774.93.651a13.355,13.355,0,0,0,9.021-12.849A13.182,13.182,0,0,0,13.161.563ZM5.226,19.105c-.07.054-.054.177.038.28.086.086.21.124.28.054.07-.054.054-.177-.038-.28C5.419,19.073,5.3,19.035,5.226,19.105Zm-.581-.435c-.038.07.016.156.124.21A.16.16,0,0,0,5,18.842c.038-.07-.016-.156-.124-.21C4.769,18.6,4.683,18.616,4.645,18.67Zm1.742,1.914c-.086.07-.054.231.07.333.124.124.28.14.349.054.07-.07.038-.231-.07-.333C6.618,20.514,6.457,20.5,6.387,20.584Zm-.613-.79c-.086.054-.086.194,0,.317s.231.177.3.124a.245.245,0,0,0,0-.333C6,19.777,5.86,19.723,5.774,19.793Z" transform="translate(0 -0.563)"/></svg>