<svg xmlns="http://www.w3.org/2000/svg" width="1884" height="1824" viewBox="0 0 1884 1824"><g transform="translate(-426 -61)"><g transform="translate(451 61)"><rect width="118" height="59" rx="2" transform="translate(64)" fill="#233241"/><rect width="117" height="59" rx="2" transform="translate(193)" fill="#233241"/><rect width="116" height="59" rx="2" transform="translate(323)" fill="#233241"/><rect width="116" height="59" rx="2" transform="translate(452)" fill="#233241"/><rect width="117" height="59" rx="2" transform="translate(580)" fill="#233241"/><rect width="116" height="59" rx="2" transform="translate(710)" fill="#233241"/><rect width="116" height="59" rx="2" transform="translate(839)" fill="#233241"/><rect width="118" height="59" rx="2" transform="translate(967)" fill="#233241"/><rect width="116" height="59" rx="2" transform="translate(1097)" fill="#233241"/><rect width="116" height="59" rx="2" transform="translate(1226)" fill="#233241"/><rect width="117" height="59" rx="2" transform="translate(1355)" fill="#233241"/><rect width="117" height="59" rx="2" transform="translate(1484)" fill="#233241"/><rect width="116" height="59" rx="2" transform="translate(1613)" fill="#233241"/><rect width="117" height="59" rx="2" transform="translate(1742)" fill="#233241"/><rect width="116" height="58" rx="2" transform="translate(0 71)" fill="#233241"/><rect width="117" height="58" rx="2" transform="translate(129 71)" fill="#233241"/><rect width="116" height="58" rx="2" transform="translate(259 71)" fill="#233241"/><rect width="116" height="58" rx="2" transform="translate(387 71)" fill="#233241"/><rect width="117" height="58" rx="2" transform="translate(516 71)" fill="#233241"/><rect width="116" height="58" rx="2" transform="translate(646 71)" fill="#233241"/><rect width="116" height="58" rx="2" transform="translate(774 71)" fill="#233241"/><rect width="117" height="58" rx="2" transform="translate(903 71)" fill="#233241"/><rect width="116" height="58" rx="2" transform="translate(1033 71)" fill="#233241"/><rect width="116" height="58" rx="2" transform="translate(1162 71)" fill="#233241"/><rect width="118" height="58" rx="2" transform="translate(1290 71)" fill="#233241"/><rect width="117" height="58" rx="2" transform="translate(1419 71)" fill="#233241"/><rect width="116" height="58" rx="2" transform="translate(1549 71)" fill="#233241"/><rect width="116" height="58" rx="2" transform="translate(1678 71)" fill="#233241"/></g><g transform="translate(451 202.326)"><rect width="118" height="59" rx="2" transform="translate(64 -0.326)" fill="#233241"/><rect width="117" height="59" rx="2" transform="translate(193 -0.326)" fill="#233241"/><rect width="116" height="59" rx="2" transform="translate(323 -0.326)" fill="#233241"/><rect width="116" height="59" rx="2" transform="translate(452 -0.326)" fill="#233241"/><rect width="117" height="59" rx="2" transform="translate(580 -0.326)" fill="#233241"/><rect width="116" height="59" rx="2" transform="translate(710 -0.326)" fill="#233241"/><rect width="116" height="59" rx="2" transform="translate(839 -0.326)" fill="#233241"/><rect width="118" height="59" rx="2" transform="translate(967 -0.326)" fill="#233241"/><rect width="116" height="59" rx="2" transform="translate(1097 -0.326)" fill="#233241"/><rect width="116" height="59" rx="2" transform="translate(1226 -0.326)" fill="#233241"/><rect width="117" height="59" rx="2" transform="translate(1355 -0.326)" fill="#233241"/><rect width="117" height="59" rx="2" transform="translate(1484 -0.326)" fill="#233241"/><rect width="116" height="59" rx="2" transform="translate(1613 -0.326)" fill="#233241"/><rect width="117" height="59" rx="2" transform="translate(1742 -0.326)" fill="#233241"/><rect width="116" height="58" rx="2" transform="translate(0 71.674)" fill="#233241"/><rect width="117" height="58" rx="2" transform="translate(129 71.674)" fill="#233241"/><rect width="116" height="58" rx="2" transform="translate(259 71.674)" fill="#233241"/><rect width="116" height="58" rx="2" transform="translate(387 71.674)" fill="#233241"/><rect width="117" height="58" rx="2" transform="translate(516 71.674)" fill="#233241"/><rect width="116" height="58" rx="2" transform="translate(646 71.674)" fill="#233241"/><rect width="116" height="58" rx="2" transform="translate(774 71.674)" fill="#233241"/><rect width="117" height="58" rx="2" transform="translate(903 71.674)" fill="#233241"/><rect width="116" height="58" rx="2" transform="translate(1033 71.674)" fill="#233241"/><rect width="116" height="58" rx="2" transform="translate(1162 71.674)" fill="#233241"/><rect width="118" height="58" rx="2" transform="translate(1290 71.674)" fill="#233241"/><rect width="117" height="58" rx="2" transform="translate(1419 71.674)" fill="#233241"/><rect width="116" height="58" rx="2" transform="translate(1549 71.674)" fill="#233241"/><rect width="116" height="58" rx="2" transform="translate(1678 71.674)" fill="#233241"/></g><g transform="translate(451 344.801)"><rect width="118" height="57" rx="2" transform="translate(64 0.199)" fill="#233241"/><rect width="117" height="57" rx="2" transform="translate(193 0.199)" fill="#233241"/><rect width="116" height="57" rx="2" transform="translate(323 0.199)" fill="#233241"/><rect width="116" height="57" rx="2" transform="translate(452 0.199)" fill="#233241"/><rect width="117" height="57" rx="2" transform="translate(580 0.199)" fill="#233241"/><rect width="116" height="57" rx="2" transform="translate(710 0.199)" fill="#233241"/><rect width="116" height="57" rx="2" transform="translate(839 0.199)" fill="#233241"/><rect width="118" height="57" rx="2" transform="translate(967 0.199)" fill="#233241"/><rect width="116" height="57" rx="2" transform="translate(1097 0.199)" fill="#233241"/><rect width="116" height="57" rx="2" transform="translate(1226 0.199)" fill="#233241"/><rect width="117" height="57" rx="2" transform="translate(1355 0.199)" fill="#233241"/><rect width="117" height="57" rx="2" transform="translate(1484 0.199)" fill="#233241"/><rect width="116" height="57" rx="2" transform="translate(1613 0.199)" fill="#233241"/><rect width="117" height="57" rx="2" transform="translate(1742 0.199)" fill="#233241"/><rect width="116" height="58" rx="2" transform="translate(0 70.199)" fill="#233241"/><rect width="117" height="58" rx="2" transform="translate(129 70.199)" fill="#233241"/><rect width="116" height="58" rx="2" transform="translate(259 70.199)" fill="#233241"/><rect width="116" height="58" rx="2" transform="translate(387 70.199)" fill="#233241"/><rect width="117" height="58" rx="2" transform="translate(516 70.199)" fill="#233241"/><rect width="116" height="58" rx="2" transform="translate(646 70.199)" fill="#233241"/><rect width="116" height="58" rx="2" transform="translate(774 70.199)" fill="#233241"/><rect width="117" height="58" rx="2" transform="translate(903 70.199)" fill="#233241"/><rect width="116" height="58" rx="2" transform="translate(1033 70.199)" fill="#233241"/><rect width="116" height="58" rx="2" transform="translate(1162 70.199)" fill="#233241"/><rect width="118" height="58" rx="2" transform="translate(1290 70.199)" fill="#233241"/><rect width="117" height="58" rx="2" transform="translate(1419 70.199)" fill="#233241"/><rect width="116" height="58" rx="2" transform="translate(1549 70.199)" fill="#233241"/><rect width="116" height="58" rx="2" transform="translate(1678 70.199)" fill="#233241"/></g><g transform="translate(451 486.126)"><rect width="118" height="59" rx="2" transform="translate(64 -0.126)" fill="#233241"/><rect width="117" height="59" rx="2" transform="translate(193 -0.126)" fill="#233241"/><rect width="116" height="59" rx="2" transform="translate(323 -0.126)" fill="#233241"/><rect width="116" height="59" rx="2" transform="translate(452 -0.126)" fill="#233241"/><rect width="117" height="59" rx="2" transform="translate(580 -0.126)" fill="#233241"/><rect width="116" height="59" rx="2" transform="translate(710 -0.126)" fill="#233241"/><rect width="116" height="59" rx="2" transform="translate(839 -0.126)" fill="#233241"/><rect width="118" height="59" rx="2" transform="translate(967 -0.126)" fill="#233241"/><rect width="116" height="59" rx="2" transform="translate(1097 -0.126)" fill="#233241"/><rect width="116" height="59" rx="2" transform="translate(1226 -0.126)" fill="#233241"/><rect width="117" height="59" rx="2" transform="translate(1355 -0.126)" fill="#233241"/><rect width="117" height="59" rx="2" transform="translate(1484 -0.126)" fill="#233241"/><rect width="116" height="59" rx="2" transform="translate(1613 -0.126)" fill="#233241"/><rect width="117" height="59" rx="2" transform="translate(1742 -0.126)" fill="#233241"/><rect width="116" height="59" rx="2" transform="translate(0 69.874)" fill="#233241"/><rect width="117" height="59" rx="2" transform="translate(129 69.874)" fill="#233241"/><rect width="116" height="59" rx="2" transform="translate(259 69.874)" fill="#233241"/><rect width="116" height="59" rx="2" transform="translate(387 69.874)" fill="#233241"/><rect width="117" height="59" rx="2" transform="translate(516 69.874)" fill="#233241"/><rect width="116" height="59" rx="2" transform="translate(646 69.874)" fill="#233241"/><rect width="116" height="59" rx="2" transform="translate(774 69.874)" fill="#233241"/><rect width="117" height="59" rx="2" transform="translate(903 69.874)" fill="#233241"/><rect width="116" height="59" rx="2" transform="translate(1033 69.874)" fill="#233241"/><rect width="116" height="59" rx="2" transform="translate(1162 69.874)" fill="#233241"/><rect width="118" height="59" rx="2" transform="translate(1290 69.874)" fill="#233241"/><rect width="117" height="59" rx="2" transform="translate(1419 69.874)" fill="#233241"/><rect width="116" height="59" rx="2" transform="translate(1549 69.874)" fill="#233241"/><rect width="116" height="59" rx="2" transform="translate(1678 69.874)" fill="#233241"/></g><g transform="translate(451 627.452)"><rect width="118" height="59" rx="2" transform="translate(64 -0.452)" fill="#233241"/><rect width="117" height="59" rx="2" transform="translate(193 -0.452)" fill="#233241"/><rect width="116" height="59" rx="2" transform="translate(323 -0.452)" fill="#233241"/><rect width="116" height="59" rx="2" transform="translate(452 -0.452)" fill="#233241"/><rect width="117" height="59" rx="2" transform="translate(580 -0.452)" fill="#233241"/><rect width="116" height="59" rx="2" transform="translate(710 -0.452)" fill="#233241"/><rect width="116" height="59" rx="2" transform="translate(839 -0.452)" fill="#233241"/><rect width="118" height="59" rx="2" transform="translate(967 -0.452)" fill="#233241"/><rect width="116" height="59" rx="2" transform="translate(1097 -0.452)" fill="#233241"/><rect width="116" height="59" rx="2" transform="translate(1226 -0.452)" fill="#233241"/><rect width="117" height="59" rx="2" transform="translate(1355 -0.452)" fill="#233241"/><rect width="117" height="59" rx="2" transform="translate(1484 -0.452)" fill="#233241"/><rect width="116" height="59" rx="2" transform="translate(1613 -0.452)" fill="#233241"/><rect width="117" height="59" rx="2" transform="translate(1742 -0.452)" fill="#233241"/><rect width="116" height="57" rx="2" transform="translate(0 71.548)" fill="#233241"/><rect width="117" height="57" rx="2" transform="translate(129 71.548)" fill="#233241"/><rect width="116" height="57" rx="2" transform="translate(259 71.548)" fill="#233241"/><rect width="116" height="57" rx="2" transform="translate(387 71.548)" fill="#233241"/><rect width="117" height="57" rx="2" transform="translate(516 71.548)" fill="#233241"/><rect width="116" height="57" rx="2" transform="translate(646 71.548)" fill="#233241"/><rect width="116" height="57" rx="2" transform="translate(774 71.548)" fill="#233241"/><rect width="117" height="57" rx="2" transform="translate(903 71.548)" fill="#233241"/><rect width="116" height="57" rx="2" transform="translate(1033 71.548)" fill="#233241"/><rect width="116" height="57" rx="2" transform="translate(1162 71.548)" fill="#233241"/><rect width="118" height="57" rx="2" transform="translate(1290 71.548)" fill="#233241"/><rect width="117" height="57" rx="2" transform="translate(1419 71.548)" fill="#233241"/><rect width="116" height="57" rx="2" transform="translate(1549 71.548)" fill="#233241"/><rect width="116" height="57" rx="2" transform="translate(1678 71.548)" fill="#233241"/></g><g transform="translate(451 768.778)"><rect width="118" height="58" rx="2" transform="translate(64 0.222)" fill="#233241"/><rect width="117" height="58" rx="2" transform="translate(193 0.222)" fill="#233241"/><rect width="116" height="58" rx="2" transform="translate(323 0.222)" fill="#233241"/><rect width="116" height="58" rx="2" transform="translate(452 0.222)" fill="#233241"/><rect width="117" height="58" rx="2" transform="translate(580 0.222)" fill="#233241"/><rect width="116" height="58" rx="2" transform="translate(710 0.222)" fill="#233241"/><rect width="116" height="58" rx="2" transform="translate(839 0.222)" fill="#233241"/><rect width="118" height="58" rx="2" transform="translate(967 0.222)" fill="#233241"/><rect width="116" height="58" rx="2" transform="translate(1097 0.222)" fill="#233241"/><rect width="116" height="58" rx="2" transform="translate(1226 0.222)" fill="#233241"/><rect width="117" height="58" rx="2" transform="translate(1355 0.222)" fill="#233241"/><rect width="117" height="58" rx="2" transform="translate(1484 0.222)" fill="#233241"/><rect width="116" height="58" rx="2" transform="translate(1613 0.222)" fill="#233241"/><rect width="117" height="58" rx="2" transform="translate(1742 0.222)" fill="#233241"/><rect width="116" height="59" rx="2" transform="translate(0 71.222)" fill="#233241"/><rect width="117" height="59" rx="2" transform="translate(129 71.222)" fill="#233241"/><rect width="116" height="59" rx="2" transform="translate(259 71.222)" fill="#233241"/><rect width="116" height="59" rx="2" transform="translate(387 71.222)" fill="#233241"/><rect width="117" height="59" rx="2" transform="translate(516 71.222)" fill="#233241"/><rect width="116" height="59" rx="2" transform="translate(646 71.222)" fill="#233241"/><rect width="116" height="59" rx="2" transform="translate(774 71.222)" fill="#233241"/><rect width="117" height="59" rx="2" transform="translate(903 71.222)" fill="#233241"/><rect width="116" height="59" rx="2" transform="translate(1033 71.222)" fill="#233241"/><rect width="116" height="59" rx="2" transform="translate(1162 71.222)" fill="#233241"/><rect width="118" height="59" rx="2" transform="translate(1290 71.222)" fill="#233241"/><rect width="117" height="59" rx="2" transform="translate(1419 71.222)" fill="#233241"/><rect width="116" height="59" rx="2" transform="translate(1549 71.222)" fill="#233241"/><rect width="116" height="59" rx="2" transform="translate(1678 71.222)" fill="#233241"/></g><g transform="translate(451 911.253)"><rect width="118" height="58" rx="2" transform="translate(64 -0.253)" fill="#233241"/><rect width="117" height="58" rx="2" transform="translate(193 -0.253)" fill="#233241"/><rect width="116" height="58" rx="2" transform="translate(323 -0.253)" fill="#233241"/><rect width="116" height="58" rx="2" transform="translate(452 -0.253)" fill="#233241"/><rect width="117" height="58" rx="2" transform="translate(580 -0.253)" fill="#233241"/><rect width="116" height="58" rx="2" transform="translate(710 -0.253)" fill="#233241"/><rect width="116" height="58" rx="2" transform="translate(839 -0.253)" fill="#233241"/><rect width="118" height="58" rx="2" transform="translate(967 -0.253)" fill="#233241"/><rect width="116" height="58" rx="2" transform="translate(1097 -0.253)" fill="#233241"/><rect width="116" height="58" rx="2" transform="translate(1226 -0.253)" fill="#233241"/><rect width="117" height="58" rx="2" transform="translate(1355 -0.253)" fill="#233241"/><rect width="117" height="58" rx="2" transform="translate(1484 -0.253)" fill="#233241"/><rect width="116" height="58" rx="2" transform="translate(1613 -0.253)" fill="#233241"/><rect width="117" height="58" rx="2" transform="translate(1742 -0.253)" fill="#233241"/><rect width="116" height="59" rx="2" transform="translate(0 69.747)" fill="#233241"/><rect width="117" height="59" rx="2" transform="translate(129 69.747)" fill="#233241"/><rect width="116" height="59" rx="2" transform="translate(259 69.747)" fill="#233241"/><rect width="116" height="59" rx="2" transform="translate(387 69.747)" fill="#233241"/><rect width="117" height="59" rx="2" transform="translate(516 69.747)" fill="#233241"/><rect width="116" height="59" rx="2" transform="translate(646 69.747)" fill="#233241"/><rect width="116" height="59" rx="2" transform="translate(774 69.747)" fill="#233241"/><rect width="117" height="59" rx="2" transform="translate(903 69.747)" fill="#233241"/><rect width="116" height="59" rx="2" transform="translate(1033 69.747)" fill="#233241"/><rect width="116" height="59" rx="2" transform="translate(1162 69.747)" fill="#233241"/><rect width="118" height="59" rx="2" transform="translate(1290 69.747)" fill="#233241"/><rect width="117" height="59" rx="2" transform="translate(1419 69.747)" fill="#233241"/><rect width="116" height="59" rx="2" transform="translate(1549 69.747)" fill="#233241"/><rect width="116" height="59" rx="2" transform="translate(1678 69.747)" fill="#233241"/></g><g transform="translate(451 1052.579)"><rect width="118" height="58" rx="2" transform="translate(64 0.421)" fill="#233241"/><rect width="117" height="58" rx="2" transform="translate(193 0.421)" fill="#233241"/><rect width="116" height="58" rx="2" transform="translate(323 0.421)" fill="#233241"/><rect width="116" height="58" rx="2" transform="translate(452 0.421)" fill="#233241"/><rect width="117" height="58" rx="2" transform="translate(580 0.421)" fill="#233241"/><rect width="116" height="58" rx="2" transform="translate(710 0.421)" fill="#233241"/><rect width="116" height="58" rx="2" transform="translate(839 0.421)" fill="#233241"/><rect width="118" height="58" rx="2" transform="translate(967 0.421)" fill="#233241"/><rect width="116" height="58" rx="2" transform="translate(1097 0.421)" fill="#233241"/><rect width="116" height="58" rx="2" transform="translate(1226 0.421)" fill="#233241"/><rect width="117" height="58" rx="2" transform="translate(1355 0.421)" fill="#233241"/><rect width="117" height="58" rx="2" transform="translate(1484 0.421)" fill="#233241"/><rect width="116" height="58" rx="2" transform="translate(1613 0.421)" fill="#233241"/><rect width="117" height="58" rx="2" transform="translate(1742 0.421)" fill="#233241"/><rect width="116" height="57" rx="2" transform="translate(0 71.421)" fill="#233241"/><rect width="117" height="57" rx="2" transform="translate(129 71.421)" fill="#233241"/><rect width="116" height="57" rx="2" transform="translate(259 71.421)" fill="#233241"/><rect width="116" height="57" rx="2" transform="translate(387 71.421)" fill="#233241"/><rect width="117" height="57" rx="2" transform="translate(516 71.421)" fill="#233241"/><rect width="116" height="57" rx="2" transform="translate(646 71.421)" fill="#233241"/><rect width="116" height="57" rx="2" transform="translate(774 71.421)" fill="#233241"/><rect width="117" height="57" rx="2" transform="translate(903 71.421)" fill="#233241"/><rect width="116" height="57" rx="2" transform="translate(1033 71.421)" fill="#233241"/><rect width="116" height="57" rx="2" transform="translate(1162 71.421)" fill="#233241"/><rect width="118" height="57" rx="2" transform="translate(1290 71.421)" fill="#233241"/><rect width="117" height="57" rx="2" transform="translate(1419 71.421)" fill="#233241"/><rect width="116" height="57" rx="2" transform="translate(1549 71.421)" fill="#233241"/><rect width="116" height="57" rx="2" transform="translate(1678 71.421)" fill="#233241"/><rect width="118" height="58" rx="2" transform="translate(64 141.421)" fill="#233241"/><rect width="117" height="58" rx="2" transform="translate(193 141.421)" fill="#233241"/><rect width="116" height="58" rx="2" transform="translate(323 141.421)" fill="#233241"/><rect width="116" height="58" rx="2" transform="translate(452 141.421)" fill="#233241"/><rect width="117" height="58" rx="2" transform="translate(580 141.421)" fill="#233241"/><rect width="116" height="58" rx="2" transform="translate(710 141.421)" fill="#233241"/><rect width="116" height="58" rx="2" transform="translate(839 141.421)" fill="#233241"/><rect width="118" height="58" rx="2" transform="translate(967 141.421)" fill="#233241"/><rect width="116" height="58" rx="2" transform="translate(1097 141.421)" fill="#233241"/><rect width="116" height="58" rx="2" transform="translate(1226 141.421)" fill="#233241"/><rect width="117" height="58" rx="2" transform="translate(1355 141.421)" fill="#233241"/><rect width="117" height="58" rx="2" transform="translate(1484 141.421)" fill="#233241"/><rect width="116" height="58" rx="2" transform="translate(1613 141.421)" fill="#233241"/><rect width="117" height="58" rx="2" transform="translate(1742 141.421)" fill="#233241"/><rect width="116" height="57" rx="2" transform="translate(0 212.421)" fill="#233241"/><rect width="117" height="57" rx="2" transform="translate(129 212.421)" fill="#233241"/><rect width="116" height="57" rx="2" transform="translate(259 212.421)" fill="#233241"/><rect width="116" height="57" rx="2" transform="translate(387 212.421)" fill="#233241"/><rect width="117" height="57" rx="2" transform="translate(516 212.421)" fill="#233241"/><rect width="116" height="57" rx="2" transform="translate(646 212.421)" fill="#233241"/><rect width="116" height="57" rx="2" transform="translate(774 212.421)" fill="#233241"/><rect width="117" height="57" rx="2" transform="translate(903 212.421)" fill="#233241"/><rect width="116" height="57" rx="2" transform="translate(1033 212.421)" fill="#233241"/><rect width="116" height="57" rx="2" transform="translate(1162 212.421)" fill="#233241"/><rect width="118" height="57" rx="2" transform="translate(1290 212.421)" fill="#233241"/><rect width="117" height="57" rx="2" transform="translate(1419 212.421)" fill="#233241"/><rect width="116" height="57" rx="2" transform="translate(1549 212.421)" fill="#233241"/><rect width="116" height="57" rx="2" transform="translate(1678 212.421)" fill="#233241"/><rect width="118" height="58" rx="2" transform="translate(64 282.421)" fill="#233241"/><rect width="117" height="58" rx="2" transform="translate(193 282.421)" fill="#233241"/><rect width="116" height="58" rx="2" transform="translate(323 282.421)" fill="#233241"/><rect width="116" height="58" rx="2" transform="translate(452 282.421)" fill="#233241"/><rect width="117" height="58" rx="2" transform="translate(580 282.421)" fill="#233241"/><rect width="116" height="58" rx="2" transform="translate(710 282.421)" fill="#233241"/><rect width="116" height="58" rx="2" transform="translate(839 282.421)" fill="#233241"/><rect width="118" height="58" rx="2" transform="translate(967 282.421)" fill="#233241"/><rect width="116" height="58" rx="2" transform="translate(1097 282.421)" fill="#233241"/><rect width="116" height="58" rx="2" transform="translate(1226 282.421)" fill="#233241"/><rect width="117" height="58" rx="2" transform="translate(1355 282.421)" fill="#233241"/><rect width="117" height="58" rx="2" transform="translate(1484 282.421)" fill="#233241"/><rect width="116" height="58" rx="2" transform="translate(1613 282.421)" fill="#233241"/><rect width="117" height="58" rx="2" transform="translate(1742 282.421)" fill="#233241"/><rect width="116" height="57" rx="2" transform="translate(0 353.421)" fill="#233241"/><rect width="117" height="57" rx="2" transform="translate(129 353.421)" fill="#233241"/><rect width="116" height="57" rx="2" transform="translate(259 353.421)" fill="#233241"/><rect width="116" height="57" rx="2" transform="translate(387 353.421)" fill="#233241"/><rect width="117" height="57" rx="2" transform="translate(516 353.421)" fill="#233241"/><rect width="116" height="57" rx="2" transform="translate(646 353.421)" fill="#233241"/><rect width="116" height="57" rx="2" transform="translate(774 353.421)" fill="#233241"/><rect width="117" height="57" rx="2" transform="translate(903 353.421)" fill="#233241"/><rect width="116" height="57" rx="2" transform="translate(1033 353.421)" fill="#233241"/><rect width="116" height="57" rx="2" transform="translate(1162 353.421)" fill="#233241"/><rect width="118" height="57" rx="2" transform="translate(1290 353.421)" fill="#233241"/><rect width="117" height="57" rx="2" transform="translate(1419 353.421)" fill="#233241"/><rect width="116" height="57" rx="2" transform="translate(1549 353.421)" fill="#233241"/><rect width="116" height="57" rx="2" transform="translate(1678 353.421)" fill="#233241"/><rect width="118" height="58" rx="2" transform="translate(64 423.421)" fill="#233241"/><rect width="117" height="58" rx="2" transform="translate(193 423.421)" fill="#233241"/><rect width="116" height="58" rx="2" transform="translate(323 423.421)" fill="#233241"/><rect width="116" height="58" rx="2" transform="translate(452 423.421)" fill="#233241"/><rect width="117" height="58" rx="2" transform="translate(580 423.421)" fill="#233241"/><rect width="116" height="58" rx="2" transform="translate(710 423.421)" fill="#233241"/><rect width="116" height="58" rx="2" transform="translate(839 423.421)" fill="#233241"/><rect width="118" height="58" rx="2" transform="translate(967 423.421)" fill="#233241"/><rect width="116" height="58" rx="2" transform="translate(1097 423.421)" fill="#233241"/><rect width="116" height="58" rx="2" transform="translate(1226 423.421)" fill="#233241"/><rect width="117" height="58" rx="2" transform="translate(1355 423.421)" fill="#233241"/><rect width="117" height="58" rx="2" transform="translate(1484 423.421)" fill="#233241"/><rect width="116" height="58" rx="2" transform="translate(1613 423.421)" fill="#233241"/><rect width="117" height="58" rx="2" transform="translate(1742 423.421)" fill="#233241"/><rect width="116" height="57" rx="2" transform="translate(0 494.421)" fill="#233241"/><rect width="117" height="57" rx="2" transform="translate(129 494.421)" fill="#233241"/><rect width="116" height="57" rx="2" transform="translate(259 494.421)" fill="#233241"/><rect width="116" height="57" rx="2" transform="translate(387 494.421)" fill="#233241"/><rect width="117" height="57" rx="2" transform="translate(516 494.421)" fill="#233241"/><rect width="116" height="57" rx="2" transform="translate(646 494.421)" fill="#233241"/><rect width="116" height="57" rx="2" transform="translate(774 494.421)" fill="#233241"/><rect width="117" height="57" rx="2" transform="translate(903 494.421)" fill="#233241"/><rect width="116" height="57" rx="2" transform="translate(1033 494.421)" fill="#233241"/><rect width="116" height="57" rx="2" transform="translate(1162 494.421)" fill="#233241"/><rect width="118" height="57" rx="2" transform="translate(1290 494.421)" fill="#233241"/><rect width="117" height="57" rx="2" transform="translate(1419 494.421)" fill="#233241"/><rect width="116" height="57" rx="2" transform="translate(1549 494.421)" fill="#233241"/><rect width="116" height="57" rx="2" transform="translate(1678 494.421)" fill="#233241"/></g><g transform="translate(690.1 201.445)"><g transform="translate(0.119 0.313)"><rect width="326" height="400" rx="8" transform="translate(11.781 12.242)" fill="#233241"/><g transform="translate(25 20.208)"><g transform="translate(13 0)"><g transform="translate(0 0)"><g transform="translate(108.038 0)"><circle cx="20.897" cy="20.897" r="20.897" transform="translate(0 285.792)" fill="#233241"/><rect width="107.105" height="8.82" rx="4.41" transform="translate(51.473 290.705)" fill="#233241"/><rect width="120.209" height="8.82" rx="4.41" transform="translate(51.148 306.332)" fill="#233241"/><rect width="82.156" height="8.82" rx="4.41" transform="translate(51.385 321.881)" fill="#233241"/><circle cx="12.7" cy="12.7" r="12.7" transform="translate(149.736 0)" fill="#233241"/></g><rect width="249" height="10" rx="5" transform="translate(-0.219 47.034)" fill="#233241"/><rect width="209" height="13" rx="6.5" transform="translate(-0.219 59.034)" fill="#233241"/><rect width="94" height="12" rx="6" transform="translate(-0.219 79.034)" fill="#233241"/><rect width="286" height="12" rx="6" transform="translate(-0.219 96.034)" fill="#233241"/><rect width="256" height="7" rx="3.5" transform="translate(-0.219 119.034)" fill="#233241"/><rect width="246" height="8" rx="4" transform="translate(-0.219 139.034)" fill="#233241"/><rect width="95" height="13" rx="6.5" transform="translate(154.781 7.034)" fill="#233241"/></g></g><rect width="299" height="34" rx="8" transform="translate(-0.219 342.034)" fill="#233241"/></g><g transform="translate(66.146 175.044)"><path d="M12.825,0h190.77a12.825,12.825,0,0,1,12.825,12.825v96.186a12.825,12.825,0,0,1-12.825,12.825H12.825A12.825,12.825,0,0,1,0,109.011V12.825A12.825,12.825,0,0,1,12.825,0Z" transform="translate(0 0)" fill="#233241"/></g><path d="M21.294,6.878a4,4,0,0,1,7.107,0L46.681,42.257a4,4,0,0,1-3.554,5.836H6.569a4,4,0,0,1-3.554-5.836Z" transform="translate(198.382 211.612) rotate(90)" fill="#233241"/><rect width="95" height="6" rx="3" transform="translate(126.781 298.242)" fill="#233241"/><rect width="350" height="428" transform="translate(-0.219 0.242)" fill="#233241"/></g><g transform="translate(12.119 12.313)"><rect width="326" height="400" rx="8" transform="translate(-0.219 0.242)" fill="#233241"/><g transform="translate(13 8.208)"><g transform="translate(13 0)"><g transform="translate(0 0)"><g transform="translate(108.054 0)"><circle cx="20.897" cy="20.897" r="20.897" transform="translate(0 285.738)" fill="#2e4157"/><rect width="107.105" height="8.82" rx="4.41" transform="translate(51.473 290.651)" fill="#2e4157"/><rect width="120.209" height="8.82" rx="4.41" transform="translate(51.148 306.278)" fill="#2e4157"/><rect width="82.156" height="8.82" rx="4.41" transform="translate(51.385 321.827)" fill="#2e4157"/><circle cx="12.7" cy="12.7" r="12.7" transform="translate(149.736 0)" fill="#2e4157"/></g><rect width="249" height="10" rx="5" transform="translate(-0.219 47.034)" fill="#2e4157"/><rect width="209" height="12" rx="6" transform="translate(-0.219 63.034)" fill="#2e4157"/><rect width="94" height="12" rx="6" transform="translate(-0.219 79.034)" fill="#2e4157"/><rect width="256" height="7" rx="3.5" transform="translate(-0.219 119.034)" fill="#2e4157"/><rect width="246" height="8" rx="4" transform="translate(-0.219 133.034)" fill="#2e4157"/><rect width="95" height="13" rx="6.5" transform="translate(154.781 7.034)" fill="#2e4157"/></g></g><rect width="299" height="34" rx="8" transform="translate(-0.219 342.034)" fill="#2e4157"/></g><g transform="translate(54.021 156.423)"><path d="M12.825,0h190.77a12.825,12.825,0,0,1,12.825,12.825v96.186a12.825,12.825,0,0,1-12.825,12.825H12.825A12.825,12.825,0,0,1,0,109.011V12.825A12.825,12.825,0,0,1,12.825,0Z" transform="translate(0 0)" fill="#2e4157"/></g><path d="M21.294,6.878a4,4,0,0,1,7.107,0L46.681,42.257a4,4,0,0,1-3.554,5.836H6.569a4,4,0,0,1-3.554-5.836Z" transform="translate(186.326 193.08) rotate(90)" fill="#233241"/><rect width="95" height="7" rx="3.5" transform="translate(114.781 279.242)" fill="#2e4157"/></g></g><g transform="translate(1079.705 544.725)"><g transform="translate(0 0)"><rect width="333" height="412" rx="8" transform="translate(11.295 11.275)" fill="#233241"/><g transform="translate(25.278 18.798)"><g transform="translate(12.639 0)"><g transform="translate(0 0)"><g transform="translate(117.045 0)"><circle cx="20.897" cy="20.897" r="20.897" transform="translate(0 296.691)" fill="#2e4157"/><rect width="107.105" height="8.82" rx="4.41" transform="translate(51.473 301.604)" fill="#2e4157"/><rect width="120.209" height="8.82" rx="4.41" transform="translate(51.148 317.231)" fill="#2e4157"/><rect width="82.156" height="8.82" rx="4.41" transform="translate(51.385 332.78)" fill="#2e4157"/><circle cx="12.7" cy="12.7" r="12.7" transform="translate(149.736 0)" fill="#2e4157"/></g><rect width="267" height="11" rx="5.5" transform="translate(0.379 47.477)" fill="#2e4157"/><rect width="209" height="13" rx="6.5" transform="translate(0.379 60.477)" fill="#2e4157"/><rect width="94" height="12" rx="6" transform="translate(0.379 81.477)" fill="#2e4157"/><rect width="293" height="12" rx="6" transform="translate(0.379 101.477)" fill="#2e4157"/><rect width="263" height="8" rx="4" transform="translate(0.379 123.477)" fill="#2e4157"/><rect width="242" height="7" rx="3.5" transform="translate(0.379 143.477)" fill="#2e4157"/><rect width="96" height="12" rx="6" transform="translate(162.379 5.477)" fill="#2e4157"/></g></g><rect width="306" height="34" rx="8" transform="translate(0.017 353.477)" fill="#2e4157"/></g><g transform="translate(70.594 179.926)"><path d="M12.825,0h190.77a12.825,12.825,0,0,1,12.825,12.825v96.186a12.825,12.825,0,0,1-12.825,12.825H12.825A12.825,12.825,0,0,1,0,109.011V12.825A12.825,12.825,0,0,1,12.825,0Z" transform="translate(0 0)" fill="#2e4157"/></g><path d="M21.294,6.878a4,4,0,0,1,7.107,0L46.681,42.257a4,4,0,0,1-3.554,5.836H6.569a4,4,0,0,1-3.554-5.836Z" transform="translate(202.85 216.349) rotate(90)" fill="#233241"/><rect width="95" height="5" rx="2.5" transform="translate(131.295 307.275)" fill="#2e4157"/><rect width="357" height="439" transform="translate(0.295 0.275)" fill="#3f5671"/></g><g transform="translate(12.639 11.49)"><rect width="332" height="415" rx="8" transform="translate(-0.344 -0.215)" fill="#233241"/><g transform="translate(13.788 9.466)"><g transform="translate(0 0)"><g transform="translate(0 0)"><g transform="translate(128.924 0)"><circle cx="20.973" cy="20.973" r="20.973" transform="translate(0 296.305)" fill="#2e4157"/><rect width="107.495" height="8.853" rx="4.426" transform="translate(51.661 301.236)" fill="#2e4157"/><rect width="120.648" height="8.853" rx="4.426" transform="translate(51.335 316.921)" fill="#2e4157"/><rect width="82.455" height="8.853" rx="4.426" transform="translate(51.573 332.527)" fill="#2e4157"/><circle cx="12.746" cy="12.746" r="12.746" transform="translate(150.282 0)" fill="#2e4157"/></g><path d="M208,118H8a8.009,8.009,0,0,1-8-8V8A8.009,8.009,0,0,1,8,0H208a8.009,8.009,0,0,1,8,8V110A8.009,8.009,0,0,1,208,118ZM181.229,97.469v5.781h6.047a7.327,7.327,0,0,0,3.283-.819,9.412,9.412,0,0,0,2.98-2.408,13.068,13.068,0,0,0,2.2-3.95,15.862,15.862,0,0,0,.864-5.443V73.1a16.881,16.881,0,0,1,.6-4.624,12.906,12.906,0,0,1,1.6-3.613,7.788,7.788,0,0,1,2.289-2.312,4.977,4.977,0,0,1,2.678-.819V55.176a5.192,5.192,0,0,1-2.678-.77,7.4,7.4,0,0,1-2.289-2.216,12.192,12.192,0,0,1-1.6-3.565,17.263,17.263,0,0,1-.6-4.721V26.467a15.87,15.87,0,0,0-.864-5.443,13.059,13.059,0,0,0-2.2-3.949,9.429,9.429,0,0,0-2.98-2.409,7.338,7.338,0,0,0-3.283-.818h-6.047v5.78h4.32a2.938,2.938,0,0,1,2.073.723,5.2,5.2,0,0,1,1.253,1.927,10.72,10.72,0,0,1,.648,2.7,25.749,25.749,0,0,1,.173,2.939V45.446a17.476,17.476,0,0,0,.907,6.07,14.1,14.1,0,0,0,2.117,3.9,8.416,8.416,0,0,0,2.462,2.167,6.283,6.283,0,0,0,2.03.771v.289a7.831,7.831,0,0,0-2.03.963,9.712,9.712,0,0,0-2.462,2.312,15.117,15.117,0,0,0-2.117,3.9,16.092,16.092,0,0,0-.907,5.732v17.63a26.6,26.6,0,0,1-.173,3.035,10.009,10.009,0,0,1-.648,2.649,5.267,5.267,0,0,1-1.253,1.879,2.938,2.938,0,0,1-2.073.722ZM24.054,13.847a7.338,7.338,0,0,0-3.283.818,9.449,9.449,0,0,0-2.98,2.409,13.059,13.059,0,0,0-2.2,3.949,15.87,15.87,0,0,0-.864,5.443V44a16.881,16.881,0,0,1-.6,4.624,12.915,12.915,0,0,1-1.6,3.613,7.767,7.767,0,0,1-2.29,2.312,4.968,4.968,0,0,1-2.678.819V61.92a5.2,5.2,0,0,1,2.678.771,7.417,7.417,0,0,1,2.29,2.216,12.182,12.182,0,0,1,1.6,3.564,17.263,17.263,0,0,1,.6,4.72V90.629a15.863,15.863,0,0,0,.864,5.443,13.056,13.056,0,0,0,2.2,3.95,9.431,9.431,0,0,0,2.98,2.408,7.327,7.327,0,0,0,3.283.819H30.1V97.469H25.782a2.939,2.939,0,0,1-2.074-.722,5.2,5.2,0,0,1-1.253-1.927,10.725,10.725,0,0,1-.648-2.7,25.749,25.749,0,0,1-.173-2.938V71.651a17.476,17.476,0,0,0-.907-6.07,14.083,14.083,0,0,0-2.116-3.9,8.449,8.449,0,0,0-2.462-2.168,6.259,6.259,0,0,0-2.03-.77v-.289a7.835,7.835,0,0,0,2.03-.964,9.716,9.716,0,0,0,2.462-2.312,15.089,15.089,0,0,0,2.116-3.9,16.092,16.092,0,0,0,.907-5.732V27.913a26.588,26.588,0,0,1,.173-3.035,10.031,10.031,0,0,1,.648-2.65,5.257,5.257,0,0,1,1.253-1.878,2.939,2.939,0,0,1,2.074-.723H30.1v-5.78ZM35.086,79.993a6.584,6.584,0,0,0-.135,1.867,6.584,6.584,0,0,0,.135,1.867h7.855a6.584,6.584,0,0,0,.135-1.867,6.584,6.584,0,0,0-.135-1.867Zm1.535-9.717a1.878,1.878,0,0,0,0,3.733h97.128a1.878,1.878,0,0,0,0-3.733Zm1.3-17.1a3.255,3.255,0,0,0,0,6.51H178.408a3.255,3.255,0,0,0,0-6.51Zm-.3-15.818a2.56,2.56,0,0,0,0,5.121H72.854a2.56,2.56,0,1,0,0-5.121Z" transform="translate(54.868 33.319)" fill="#2e4157"/><rect width="270" height="11" rx="5.5" transform="translate(-0.132 164.319)" fill="#2e4157"/><rect width="210" height="9" rx="4.5" transform="translate(-0.132 183.319)" fill="#2e4157"/><rect width="97" height="13" rx="6.5" transform="translate(-0.132 200.319)" fill="#2e4157"/><rect width="292" height="12" rx="6" transform="translate(-0.132 220.319)" fill="#2e4157"/><rect width="263" height="9" rx="4.5" transform="translate(-0.132 241.319)" fill="#2e4157"/><rect width="245" height="8" rx="4" transform="translate(-0.132 261.319)" fill="#2e4157"/><rect width="109" height="12" rx="6" transform="translate(-0.132 275.319)" fill="#2e4157"/><rect width="96" height="10" rx="5" transform="translate(173.868 9.319)" fill="#2e4157"/><rect width="96" height="7" rx="3.5" transform="translate(97.868 143.319)" fill="#2e4157"/></g></g><rect width="302" height="34" rx="8" transform="translate(-0.132 356.319)" fill="#2e4157"/></g></g></g><g transform="translate(1470.319 189.687)"><g transform="translate(0 0)"><rect width="332" height="408" rx="8" transform="translate(10.681 12.313)" fill="#233241"/><g transform="translate(25.278 19.734)"><g transform="translate(12.639 0)"><g transform="translate(0 0)"><g transform="translate(114.865 0)"><circle cx="20.897" cy="20.897" r="20.897" transform="translate(0 294.228)" fill="#2e4157"/><rect width="107.105" height="8.82" rx="4.41" transform="translate(51.473 299.141)" fill="#2e4157"/><rect width="120.209" height="8.82" rx="4.41" transform="translate(51.148 314.768)" fill="#2e4157"/><rect width="82.156" height="8.82" rx="4.41" transform="translate(51.385 330.317)" fill="#2e4157"/><circle cx="12.7" cy="12.7" r="12.7" transform="translate(149.736 0)" fill="#2e4157"/></g><rect width="261" height="10" rx="5" transform="translate(-0.235 47.579)" fill="#2e4157"/><rect width="209" height="13" rx="6.5" transform="translate(-0.235 60.579)" fill="#2e4157"/><rect width="94" height="12" rx="6" transform="translate(-0.235 81.579)" fill="#2e4157"/><rect width="291" height="11" rx="5.5" transform="translate(-0.235 101.579)" fill="#2e4157"/><rect width="261" height="7" rx="3.5" transform="translate(-0.235 122.579)" fill="#2e4157"/><rect width="243" height="8" rx="4" transform="translate(-0.235 141.579)" fill="#2e4157"/><rect width="96" height="13" rx="6.5" transform="translate(159.765 5.579)" fill="#2e4157"/></g></g><rect width="303" height="34" rx="8" transform="translate(0.404 350.579)" fill="#2e4157"/></g><g transform="translate(69.409 179.468)"><path d="M12.825,0h190.77a12.825,12.825,0,0,1,12.825,12.825v96.186a12.825,12.825,0,0,1-12.825,12.825H12.825A12.825,12.825,0,0,1,0,109.011V12.825A12.825,12.825,0,0,1,12.825,0Z" transform="translate(0 0)" fill="#2e4157"/></g><path d="M21.294,6.878a4,4,0,0,1,7.107,0L46.681,42.257a4,4,0,0,1-3.554,5.836H6.569a4,4,0,0,1-3.554-5.836Z" transform="translate(201.667 215.919) rotate(90)" fill="#233241"/><rect width="97" height="6" rx="3" transform="translate(128.681 304.313)" fill="#2e4157"/><rect width="355" height="436" transform="translate(-0.319 0.313)" fill="#3f5671"/></g><g transform="translate(12.639 12.639)"><rect width="330" height="412" rx="8" transform="translate(0.043 -0.326)" fill="#233241"/><g transform="translate(13.788 9.254)"><g transform="translate(0 0)"><g transform="translate(0 0)"><g transform="translate(126.778 0)"><circle cx="20.973" cy="20.973" r="20.973" transform="translate(0 293.842)" fill="#2e4157"/><rect width="107.495" height="8.853" rx="4.426" transform="translate(51.661 298.773)" fill="#2e4157"/><rect width="120.648" height="8.853" rx="4.426" transform="translate(51.335 314.458)" fill="#2e4157"/><rect width="82.455" height="8.853" rx="4.426" transform="translate(51.573 330.063)" fill="#2e4157"/><circle cx="12.746" cy="12.746" r="12.746" transform="translate(150.282 0)" fill="#2e4157"/></g><rect width="263" height="12" rx="6" transform="translate(0.255 50.42)" fill="#2e4157"/><rect width="209" height="9" rx="4.5" transform="translate(0.255 66.42)" fill="#2e4157"/><rect width="262" height="9" rx="4.5" transform="translate(0.255 240.42)" fill="#2e4157"/><rect width="243" height="8" rx="4" transform="translate(0.255 259.42)" fill="#2e4157"/><rect width="109" height="11" rx="5.5" transform="translate(0.255 272.42)" fill="#2e4157"/><rect width="96" height="11" rx="5.5" transform="translate(171.255 8.42)" fill="#2e4157"/><rect width="249" height="112" rx="8" transform="translate(28.255 95.42)" fill="#2e4157"/><g transform="translate(116.777 128.594)"><path d="M28.308,20.754A7.554,7.554,0,1,1,20.754,13.2,7.554,7.554,0,0,1,28.308,20.754Z" transform="translate(2.853 2.853)" fill="#233241"/><path d="M19.525,3,15.2,7.721H7.721A4.735,4.735,0,0,0,3,12.443V40.771a4.735,4.735,0,0,0,4.721,4.721H45.492a4.735,4.735,0,0,0,4.721-4.721V12.443a4.735,4.735,0,0,0-4.721-4.721H38.009L33.689,3Zm7.082,35.41a11.8,11.8,0,1,1,11.8-11.8A11.808,11.808,0,0,1,26.607,38.41Z" transform="translate(-3 -3)" fill="#233241"/></g><rect width="96" height="6" rx="3" transform="translate(96.255 214.42)" fill="#2e4157"/></g></g><rect width="301" height="35" rx="8" transform="translate(0.255 352.42)" fill="#2e4157"/></g></g></g><g transform="translate(1921.975 538.725)"><g transform="translate(0 0)"><rect width="332" height="408" rx="8" transform="translate(10.025 11.275)" fill="#233241"/><g transform="translate(24.129 19.584)"><g transform="translate(12.639 0)"><g transform="translate(0 0)"><g transform="translate(0 0)"><g transform="translate(114.86 0)"><circle cx="20.897" cy="20.897" r="20.897" transform="translate(0 293.592)" fill="#2e4157"/><rect width="107.105" height="8.82" rx="4.41" transform="translate(51.473 298.505)" fill="#2e4157"/><rect width="120.209" height="8.82" rx="4.41" transform="translate(51.148 314.133)" fill="#2e4157"/><rect width="82.156" height="8.82" rx="4.41" transform="translate(51.385 329.682)" fill="#2e4157"/><circle cx="12.7" cy="12.7" r="12.7" transform="translate(149.736 0)" fill="#2e4157"/></g><rect width="255" height="11" rx="5.5" transform="translate(0.257 46.691)" fill="#2e4157"/><rect width="210" height="13" rx="6.5" transform="translate(0.257 59.691)" fill="#2e4157"/><rect width="95" height="12" rx="6" transform="translate(0.257 80.691)" fill="#2e4157"/><rect width="292" height="11" rx="5.5" transform="translate(0.257 99.691)" fill="#2e4157"/><rect width="262" height="8" rx="4" transform="translate(0.257 121.691)" fill="#2e4157"/><rect width="242" height="7" rx="3.5" transform="translate(0.257 142.691)" fill="#2e4157"/><rect width="96" height="13" rx="6.5" transform="translate(161.257 6.691)" fill="#2e4157"/></g></g></g><rect width="305" height="35" rx="8" transform="translate(-0.104 349.691)" fill="#2e4157"/></g><g transform="translate(68.538 178.878)"><path d="M12.825,0h190.77a12.825,12.825,0,0,1,12.825,12.825v96.186a12.825,12.825,0,0,1-12.825,12.825H12.825A12.825,12.825,0,0,1,0,109.011V12.825A12.825,12.825,0,0,1,12.825,0Z" transform="translate(0 0)" fill="#2e4157"/></g><path d="M21.294,6.878a4,4,0,0,1,7.107,0L46.681,42.257a4,4,0,0,1-3.554,5.836H6.569a4,4,0,0,1-3.554-5.836Z" transform="translate(200.781 215.35) rotate(90)" fill="#233241"/><rect width="95" height="6" rx="3" transform="translate(129.025 303.275)" fill="#2e4157"/><rect width="355" height="435" transform="translate(0.025 0.275)" fill="#3f5671"/></g><g transform="translate(10.341 11.49)"><rect width="332" height="408" rx="8" transform="translate(-0.316 -0.215)" fill="#233241"/><g transform="translate(13.788 8.095)"><g transform="translate(12.639 0)"><g transform="translate(0 0)"><g transform="translate(114.889 0)"><circle cx="20.897" cy="20.897" r="20.897" transform="translate(0 293.58)" fill="#2e4157"/><rect width="107.105" height="8.82" rx="4.41" transform="translate(51.473 298.493)" fill="#2e4157"/><rect width="120.209" height="8.82" rx="4.41" transform="translate(51.148 314.121)" fill="#2e4157"/><rect width="82.156" height="8.82" rx="4.41" transform="translate(51.385 329.669)" fill="#2e4157"/><circle cx="12.7" cy="12.7" r="12.7" transform="translate(149.736 0)" fill="#2e4157"/></g><rect width="255" height="11" rx="5.5" transform="translate(0.257 46.691)" fill="#2e4157"/><rect width="292" height="11" rx="5.5" transform="translate(0.257 99.691)" fill="#2e4157"/><rect width="262" height="8" rx="4" transform="translate(0.257 121.691)" fill="#2e4157"/><rect width="96" height="13" rx="6.5" transform="translate(161.257 6.691)" fill="#2e4157"/></g></g><rect width="305" height="35" rx="8" transform="translate(-0.104 349.691)" fill="#2e4157"/></g><g transform="translate(58.07 152.85)"><path d="M12.825,0h190.77a12.825,12.825,0,0,1,12.825,12.825v96.186a12.825,12.825,0,0,1-12.825,12.825H12.825A12.825,12.825,0,0,1,0,109.011V12.825A12.825,12.825,0,0,1,12.825,0Z" transform="translate(0 0)" fill="#2e4157"/></g><rect width="95" height="6" rx="3" transform="translate(118.684 282.785)" fill="#2e4157"/><path d="M95.712,52.227H52.681L81.339,80.884a2.91,2.91,0,0,0,4.024.123A43.431,43.431,0,0,0,98.624,55.464a2.907,2.907,0,0,0-2.912-3.237ZM92.841,40.476A43.626,43.626,0,0,0,52.372.007a2.918,2.918,0,0,0-3.047,2.938V43.522H89.905a2.917,2.917,0,0,0,2.936-3.047ZM40.621,52.227V9.2a2.906,2.906,0,0,0-3.235-2.912A43.491,43.491,0,0,0,.026,50.843c.791,23.237,20.8,42.293,44.047,42A43.184,43.184,0,0,0,68.6,84.86a2.881,2.881,0,0,0,.285-4.367Z" transform="translate(116.647 168.025)" fill="#233241"/></g></g><rect width="118" height="58" rx="2" transform="translate(490 1616)" fill="#233241"/><rect width="117" height="58" rx="2" transform="translate(619 1616)" fill="#233241"/><rect width="116" height="58" rx="2" transform="translate(749 1616)" fill="#233241"/><rect width="116" height="58" rx="2" transform="translate(878 1616)" fill="#233241"/><rect width="117" height="58" rx="2" transform="translate(1006 1616)" fill="#233241"/><rect width="116" height="58" rx="2" transform="translate(1136 1616)" fill="#233241"/><rect width="116" height="58" rx="2" transform="translate(1265 1616)" fill="#233241"/><rect width="118" height="58" rx="2" transform="translate(1393 1616)" fill="#233241"/><rect width="116" height="58" rx="2" transform="translate(1523 1616)" fill="#233241"/><rect width="116" height="58" rx="2" transform="translate(1652 1616)" fill="#233241"/><rect width="117" height="58" rx="2" transform="translate(1781 1616)" fill="#233241"/><rect width="117" height="58" rx="2" transform="translate(1910 1616)" fill="#233241"/><rect width="116" height="58" rx="2" transform="translate(2039 1616)" fill="#233241"/><rect width="117" height="58" rx="2" transform="translate(2168 1616)" fill="#233241"/><rect width="116" height="57" rx="2" transform="translate(426 1687)" fill="#233241"/><rect width="117" height="57" rx="2" transform="translate(555 1687)" fill="#233241"/><rect width="116" height="57" rx="2" transform="translate(685 1687)" fill="#233241"/><rect width="116" height="57" rx="2" transform="translate(813 1687)" fill="#233241"/><rect width="117" height="57" rx="2" transform="translate(942 1687)" fill="#233241"/><rect width="116" height="57" rx="2" transform="translate(1072 1687)" fill="#233241"/><rect width="116" height="57" rx="2" transform="translate(1200 1687)" fill="#233241"/><rect width="117" height="57" rx="2" transform="translate(1329 1687)" fill="#233241"/><rect width="116" height="57" rx="2" transform="translate(1459 1687)" fill="#233241"/><rect width="116" height="57" rx="2" transform="translate(1588 1687)" fill="#233241"/><rect width="118" height="57" rx="2" transform="translate(1716 1687)" fill="#233241"/><rect width="117" height="57" rx="2" transform="translate(1845 1687)" fill="#233241"/><rect width="116" height="57" rx="2" transform="translate(1975 1687)" fill="#233241"/><rect width="116" height="57" rx="2" transform="translate(2104 1687)" fill="#233241"/><rect width="118" height="58" rx="2" transform="translate(490 1757)" fill="#233241"/><rect width="117" height="58" rx="2" transform="translate(619 1757)" fill="#233241"/><rect width="116" height="58" rx="2" transform="translate(749 1757)" fill="#233241"/><rect width="116" height="58" rx="2" transform="translate(878 1757)" fill="#233241"/><rect width="117" height="58" rx="2" transform="translate(1006 1757)" fill="#233241"/><rect width="116" height="58" rx="2" transform="translate(1136 1757)" fill="#233241"/><rect width="116" height="58" rx="2" transform="translate(1265 1757)" fill="#233241"/><rect width="118" height="58" rx="2" transform="translate(1393 1757)" fill="#233241"/><rect width="116" height="58" rx="2" transform="translate(1523 1757)" fill="#233241"/><rect width="116" height="58" rx="2" transform="translate(1652 1757)" fill="#233241"/><rect width="117" height="58" rx="2" transform="translate(1781 1757)" fill="#233241"/><rect width="117" height="58" rx="2" transform="translate(1910 1757)" fill="#233241"/><rect width="116" height="58" rx="2" transform="translate(2039 1757)" fill="#233241"/><rect width="117" height="58" rx="2" transform="translate(2168 1757)" fill="#233241"/><rect width="116" height="57" rx="2" transform="translate(426 1828)" fill="#233241"/><rect width="117" height="57" rx="2" transform="translate(555 1828)" fill="#233241"/><rect width="116" height="57" rx="2" transform="translate(685 1828)" fill="#233241"/><rect width="116" height="57" rx="2" transform="translate(813 1828)" fill="#233241"/><rect width="117" height="57" rx="2" transform="translate(942 1828)" fill="#233241"/><rect width="116" height="57" rx="2" transform="translate(1072 1828)" fill="#233241"/><rect width="116" height="57" rx="2" transform="translate(1200 1828)" fill="#233241"/><rect width="117" height="57" rx="2" transform="translate(1329 1828)" fill="#233241"/><rect width="116" height="57" rx="2" transform="translate(1459 1828)" fill="#233241"/><rect width="116" height="57" rx="2" transform="translate(1588 1828)" fill="#233241"/><rect width="118" height="57" rx="2" transform="translate(1716 1828)" fill="#233241"/><rect width="117" height="57" rx="2" transform="translate(1845 1828)" fill="#233241"/><rect width="116" height="57" rx="2" transform="translate(1975 1828)" fill="#233241"/><rect width="116" height="57" rx="2" transform="translate(2104 1828)" fill="#233241"/></g></svg>