<svg class="hero" xmlns="http://www.w3.org/2000/svg" viewBox="0 0 888.251 457.242">
    <g transform="translate(-789.467 532.287)">
        <path d="M10,0H695a10,10,0,0,1,10,10V378a0,0,0,0,1,0,0H0a0,0,0,0,1,0,0V10A10,10,0,0,1,10,0Z" transform="translate(955 -496.046)" fill="var(--HeroBorders, #233241)" />
        <rect width="679" height="361" transform="translate(967 -479.046)" fill="var(--HeroBricks, #3F5671)" />
        <g transform="translate(452 70.804)">
            <path d="M940.183,633.77V661.8h-8.525v34.377H895.353v37.566h96.855v34.281H963.492v37.349h-40.8v38.565h89.089v36.488H982.413V917.1H943.337v36.983h30.778v37.478H351.461V633.77H940.183Z" transform="translate(175.989 -1176.285)" fill="var(--HeroBackground, #3F5671)" />
            <path d="M880.446,117.342l461.246,256.6H1203.865v29.05H1394.2l72.249,40.207H877.957Z" transform="translate(-349 -628.85)" fill="var(--HeroTriangle, #fff)" />
            <path class="lines" fill="var(--HeroBricks, #2E4157)" d="M0,366.264V.15l575.81.906H594.7v34.55h-8.836V72.347H551.6v28.8h96.419v44.686H619.646V182.57H580.46v28.785H668.4v44.686H640.586v36.741H600.552v28.8h30.8v44.686Zm563.419-7.956H622.5V329.523h-59.08ZM8.461,150.787h.02V168.67l-.01,17.863h.01V358.309H555.649V329.523h-231.7V284.837h40.913v-28.8H219.15V248.1H389.883V219.3H76.594v-7.946l159.991-.169V182.57H62.624v-7.956H275.287V145.829H35.049v-8.195l338.672.129V108.9l-261.159.189v-7.946l162.716-.159V72.317l-105.739.03V64.4h272.74V35.716H8.461v9.827h.02v87.381h-.02ZM532.9,321.578h59.08v-28.8H532.9Zm-66.948,0h59.08v-28.8h-59.08Zm-66.958,0h59.08v-28.8H399Zm-66.948,0h59.08v-28.8h-59.08Zm240.238-36.741h59.07v-28.8h-59.07Zm-66.948,0h59.07v-28.8h-59.07Zm-66.948,0h59.07v-28.8h-59.07Zm-66.948,0h59.07v-28.8H371.44ZM599.851,248.1h59.08V219.3h-59.08Zm-66.948,0h59.08V219.3H532.9Zm-66.958,0h59.08V219.3h-59.08ZM399,248.1h59.08V219.3H399Zm113.233-36.741H571.3V182.57h-59.07Zm-66.958,0h59.08V182.57H445.27Zm-66.948,0H437.4V182.57h-59.08Zm-66.948,0h59.08V182.57h-59.08Zm-66.948,0H303.5V182.57h-59.08Zm306.2-36.741h59.07V145.829h-59.07Zm-66.948,0h59.07V145.829h-59.07Zm-66.948,0H475.8V145.829h-59.07Zm-66.948,0h59.06V145.829h-59.06Zm-66.958,0h59.07V145.829H282.82Zm298.321-36.741h59.08V109.088h-59.08Zm-66.948,0h59.07V109.088h-59.07Zm-66.949,0h59.07V109.088h-59.07Zm-66.948,0h59.07V109.088H380.3Zm103.38-36.741h59.07V72.347h-59.07Zm-66.948,0H475.8V72.347h-59.07Zm-66.948,0h59.06V72.347h-59.06Zm-66.958,0h59.07V72.347H282.82ZM517.145,64.4h59.08v-28.8h-59.08Zm-66.948,0h59.08v-28.8H450.2ZM585.9,28.607V7.847L8.481,8.524V27.671h-.02v.169H18.3v-.01Z" transform="translate(523 -547.414)" />
        </g>
        <path d="M5,51.316a5,5,0,0,1-5-5V12.351a5,5,0,0,1,5-5H46.575A7.4,7.4,0,0,1,53.7,1.974H73.112a7.4,7.4,0,0,1,7.121,5.378h7.606A7.4,7.4,0,0,1,94.96,1.974h19.415A7.4,7.4,0,0,1,121.5,7.351h7.6a7.4,7.4,0,0,1,7.121-5.378h19.416a7.4,7.4,0,0,1,7.121,5.378h7.606a7.4,7.4,0,0,1,7.121-5.378H196.9a7.4,7.4,0,0,1,7.121,5.378h7.606a7.4,7.4,0,0,1,7.121-5.378H364.973a7.4,7.4,0,0,1,7.121,5.378H379.7a7.4,7.4,0,0,1,7.121-5.378h19.415a7.4,7.4,0,0,1,7.121,5.378h7.606a7.405,7.405,0,0,1,7.121-5.378H447.5a7.4,7.4,0,0,1,7.121,5.378h7.606a7.4,7.4,0,0,1,7.121-5.378h19.415a7.4,7.4,0,0,1,7.121,5.378h7.606a7.4,7.4,0,0,1,7.121-5.378h19.415a7.405,7.405,0,0,1,7.121,5.378h7.326A7.4,7.4,0,0,1,551.875,0h19.415a7.4,7.4,0,0,1,7.4,7.351h7.045A7.4,7.4,0,0,1,593.138,0h19.415a7.4,7.4,0,0,1,7.4,7.351H734.72a5,5,0,0,1,5,5V46.317a5,5,0,0,1-5,5Z" transform="translate(938 -126.362)" fill="var(--HeroBorders, #233241)" />
        <g transform="translate(-1733 -2324.046)">
            <circle cx="6.5" cy="6.5" r="6.5" transform="translate(2767 1859)" fill="var(--HeroBricks, #2E4157)" />
            <circle cx="6.5" cy="6.5" r="6.5" transform="translate(2745 1859)" fill="var(--HeroBorders, #233241)" />
            <circle cx="6.5" cy="6.5" r="6.5" transform="translate(2723 1859)" fill="var(--HeroShirt, #8ab5ea)" />
        </g>
        <g transform="translate(-1737 -2329.855)">
            <rect width="144" height="92" rx="2" transform="translate(2761 2108.81)" fill="var(--HeroBricks, #2E4157)" />
            <rect width="126" height="59" rx="2" transform="translate(2769 2118.81)" fill="var(--HeroBackground, #3F5671)" />
            <circle cx="6.5" cy="6.5" r="6.5" transform="translate(2769 2182.81)" fill="var(--HeroAccents, #f0f0f0)" />
            <rect width="109" height="4" transform="translate(2786 2190.81)" fill="var(--HeroShirt, #8ab5ea)" />
            <rect width="95" height="5" transform="translate(2786 2182.81)" fill="var(--HeroShirt, #8ab5ea)" />
            <rect width="158" height="3" transform="translate(2768 2054.81)" fill="var(--HeroShirt, #8ab5ea)" />
            <rect width="124" height="4" transform="translate(2768 2019.81)" fill="var(--HeroShirt, #8ab5ea)" />
            <rect width="29" height="29" rx="2" transform="translate(2727 2009.81)" fill="var(--HeroBricks, #2E4157)" />
            <rect width="29" height="28" rx="2" transform="translate(2727 2053.81)" fill="var(--HeroShirt, #8ab5ea)" />
            <g transform="translate(-2 5.81)">
                <rect width="80" height="88" rx="2" transform="translate(2729 1890)" fill="var(--HeroBricks, #2E4157)" />
                <rect width="58" height="34" rx="2" transform="translate(2740 1900)" fill="var(--HeroBackground, #3F5671)" />
            </g>
        </g>
    </g>
    <g transform="matrix(0.999, 0.035, -0.035, 0.999, -414.036, -103.666)">
        <path d="M2526.979,1640.308l-3.917,10.225-18.333-6.03,3.739-7.92,18.512,2.169Z" transform="translate(-1975.976 -1086.667) rotate(-1)" fill="var(--HeroWhite, #f0f0f0)" />
        <path d="M873.983,761.7l-1.148,15.312-23.348-7.656,9.567-11.483Z" transform="translate(-380.108 -252.459)" fill="var(--HeroWhite, #f0f0f0)" />
        <path d="M969.877,512.155s10.335,12.249-2.68,31-28.708,37.129-28.708,37.129L909.4,635.408s-14.928,53.971-18.373,55.5-5.359-4.593-3.445,1.913.765,6.125-.766,6.509-5.741-.383-4.21,2.3,2.68,2.68-.383,2.68-4.21-1.913-4.21.765-2.68,8.8-2.68,8.8-18.756-5.359-19.521-7.655,4.976-3.445,3.828-5.741-1.531-2.3-1.531-5.741,2.3-4.21,2.3-4.21,1.913-.765,1.148-2.3-3.828-.765,0-2.68,19.523-60.479,19.523-60.479,0-29.094,4.976-38.662,1.148-77.7,13.018-78.468S969.877,512.155,969.877,512.155Z" transform="translate(-381.456 -198.509)" fill="var(--HeroBorders, #233241)" />
        <path d="M986.4,541.157l-2.3,59.329s11.483,57.416,7.655,75.023-1.148,15.311-3.445,18.373-4.21,1.531-2.3,4.21,3.058,3.445,0,6.509-4.593,10.335-4.593,10.335L961.9,713.024s4.976-8.8,3.058-10.718-6.89,1.148-3.058-3.058,6.125-2.3,3.828-4.21-5.741-1.148-2.68-4.21,6.509-3.058,3.445-4.21-6.509,0-4.976-2.3,3.445-4.976,3.445-4.976l-4.593-34.832s-5.359-11.483-3.828-16.459-6.509-45.933-6.509-45.933Z" transform="translate(-401.804 -205.694)" fill="var(--HeroBorders, #233241)" />
        <path d="M973.1,762.795s3.828-3.828,4.976-1.531,9.567,22.966,4.593,24.5-12.249,3.058-16.076,1.914-11.866-6.509-21.435-6.509-17.607-4.21-17.607-5.741-1.531-10.718,5.741-10.718,20.669-8.421,20.669-8.421,3.058-6.125,4.593-5.741.383,12.631.383,12.631S967.736,771.6,973.1,762.795Z" transform="translate(-396.923 -250.874)" fill="var(--HeroBorders, #233241)" />
        <path d="M861.334,768.076s3.445-8.421,6.89-6.509,1.148,25.644,1.148,25.644-3.058,4.976-11.866,3.828-32.153-3.828-37.512-2.68S800.091,783,803.919,774.2c0,0,1.913-4.976,11.1-4.593s26.029-10.718,26.029-10.718,2.68-7.655,3.445-6.89,1.531,14.163,1.531,14.163S855.976,772.669,861.334,768.076Z" transform="translate(-370.138 -251.179)" fill="var(--HeroBorders, #233241)" />
        <circle cx="22.201" cy="22.201" r="22.201" transform="translate(519.139 119.581)" fill="var(--Skin, #f8caca)" />
        <path d="M956.225,296.132s11.866,23.732,16.076,26.029c1.768.965-3.013,4.023-9.392,7.37-8.242,4.326-19.316,9.09-19.316,9.09s-5.359-23.349-11.866-28.325S956.225,296.132,956.225,296.132Z" transform="translate(-397.661 -152.82)" fill="var(--Skin, #f8caca)" />
        <path d="M916,543.071l-1.531,14.546s-16.459-5.741-11.1-16.459Z" transform="translate(-391.504 -205.694)" fill="var(--Skin, #f8caca)" />
        <path d="M2637.23,1901.585c-.508-.3-1.637-4.773-1.637-4.773l28.624-10.792s3.619,3.02,3.449,4.079S2637.738,1901.885,2637.23,1901.585Z" transform="translate(-2124.2 -1671.169) rotate(-1)" fill="var(--HeroWhite, #f0f0f0)" />
        <path d="M910.073,477.014c11.483,12.245,72.341,1.91,72.341,1.91l-.762-8.8,7.656-8.033-2.3-37.514s6.885-17.606,8.033-44.4a24.149,24.149,0,0,0-.3-4.923c-3.946-24-26.522-43.823-27.6-43.46-.54.178-22.8,7.538-28.8,10.692-6.892,3.621-14.111,7.45-14.111,7.45-9.188,3.451-7.655,58.57-10.72,63.545s0,22.193,0,22.193l-3.443,16.458S898.587,464.769,910.073,477.014Z" transform="translate(-392.08 -161.455)" fill="var(--HeroShirt, #8ab5ea)" />
        <path d="M949.676,360.5s10.718,32.153,8.421,53.971-27.177,84.21-27.177,84.21l-8.417,4.593V513.99l-5.923-16.043,16.288-34.057S912.544,346.336,949.676,360.5Z" transform="translate(-394.586 -166.454)" opacity="0.1" style="isolation:isolate" />
        <path d="M945.034,353.909s10.718,32.153,8.421,53.971-27.177,84.21-27.177,84.21l-8.421,4.6V507.4l-17.607-4.976,3.828-12.631s-6.125-7.655-1.914-9.952,3.445-14.928,3.445-14.928S907.9,339.746,945.034,353.909Z" transform="translate(-391.062 -165.046)" fill="var(--HeroShirt, #8ab5ea)" />
        <path d="M899.614,423.464c1-3.454.711-8.127-2.652-9.433-1.752-.681-3.707-.144-5.578.047a14.936,14.936,0,0,1-10.288-2.819c-3.479-2.575-5.627-6.51-7.668-10.318l-3.086-5.759a24.978,24.978,0,0,1-1.751-3.753c-1.717-5.084.147-10.97,3.964-14.756a21.55,21.55,0,0,1,14.686-5.733,39.782,39.782,0,0,1,15.692,3.347,69.422,69.422,0,0,1,23.4,15.651c4.341,4.422,8.293,10.182,7.386,16.3-.706,4.762-4.192,8.575-7.517,12.069l-12.06,12.675c-2.136,2.245-4.418,4.581-7.4,5.444s-6.824-.4-7.637-3.389C899.1,433.037,898.615,426.918,899.614,423.464Z" transform="translate(-429.466 76.963) rotate(-21)" fill="var(--HairDark, #93876f)" />
        <path d="M584.392,320.066c1.219,3.513-.126-11.306-.126-11.306L590,298.652s-7.551,4.348-9,7.163S583.174,316.553,584.392,320.066Z" transform="translate(0.035 -3.095)" fill="var(--HeroShirt50,#7ca3d2)" />
        <path d="M2643.443,1858.016c-5.2,2.507-19.505-12.053-13.154-20.46s-15.067,13.2,5.077,20.46S2648.646,1855.509,2643.443,1858.016Z" transform="translate(-1357.054 -2481.919) rotate(19)" fill="var(--Hair,#837863)" />
    </g>
</svg>