<svg xmlns="http://www.w3.org/2000/svg" width="888.476" height="452.26" viewBox="0 0 888.476 452.26">
    <g transform="translate(0.223 -4.982)">
        <g transform="translate(-789.467 532.287)">
            <path class="computer firstin" opacity="0" d="M10,0H695a10,10,0,0,1,10,10V378H0V10A10,10,0,0,1,10,0Z" transform="translate(955 -496.046)" fill="var(--HeroBorders, #233241)" />
            <rect class="fadein firstin" opacity="0" width="679" height="361" transform="translate(967 -479.046)" fill="var(--Background, #3F5671)" />
            <g transform="translate(452 70.804)">
                <path class="grow-left thirdin" style="clip-path: polygon(0 0,0px 0, 0px 100%, 0 100%);" d="M940.183,633.77V661.8h-8.525v34.377h-36.3v37.566h96.855v34.281H963.492v37.349h-40.8v38.565h89.089v36.488H982.413V917.1H943.337v36.983h30.778v37.478H351.461V633.77Z" transform="translate(175.989 -1176.285)" fill="var(--Background50, #3F5671)" />
                <path class="grow-diagonal-bottom firstin" style="clip-path: polygon(0 82%, 0 100%, 14% 100%, 0% 100%);" d="M880.446,117.342l461.246,256.6H1203.865v29.05H1394.2l72.249,40.207H877.957Z" transform="translate(-349 -628.85)" fill="var(--Highlight, #fff)" />
                <path class="lines grow-diagonal thirdin" style="clip-path: polygon(89% 0, 100% 0%, 100% 11%, 100% 0);" fill="var(--Background, #2E4157)" d="M0,366.264V.15l575.81.906H594.7v34.55h-8.836V72.347H551.6v28.8h96.419v44.686H619.646V182.57H580.46v28.785H668.4v44.686H640.586v36.741H600.552v28.8h30.8v44.686Zm563.419-7.956H622.5V329.523H563.42ZM8.461,150.787h.02V168.67l-.01,17.863h.01V358.309H555.649V329.523h-231.7V284.837h40.913v-28.8H219.15V248.1H389.883V219.3H76.594v-7.946l159.991-.169V182.57H62.624v-7.956H275.287V145.829H35.049v-8.195l338.672.129V108.9l-261.159.189v-7.946l162.716-.159V72.317l-105.739.03V64.4h272.74V35.716H8.461v9.827h.02v87.381h-.02ZM532.9,321.578h59.08v-28.8H532.9Zm-66.948,0h59.08v-28.8h-59.08Zm-66.958,0h59.08v-28.8H399Zm-66.948,0h59.08v-28.8h-59.08Zm240.238-36.741h59.07v-28.8h-59.07Zm-66.948,0h59.07v-28.8h-59.07Zm-66.948,0h59.07v-28.8h-59.07Zm-66.948,0h59.07v-28.8H371.44ZM599.851,248.1h59.08V219.3h-59.08Zm-66.948,0h59.08V219.3H532.9Zm-66.958,0h59.08V219.3h-59.08ZM399,248.1h59.08V219.3H399Zm113.233-36.741H571.3V182.57H512.23Zm-66.958,0h59.08V182.57H445.27Zm-66.948,0H437.4V182.57H378.32Zm-66.948,0h59.08V182.57h-59.08Zm-66.948,0H303.5V182.57H244.42Zm306.2-36.741H609.7V145.829h-59.07Zm-66.948,0h59.07V145.829h-59.07Zm-66.948,0H475.8V145.829H416.73Zm-66.948,0h59.06V145.829h-59.06Zm-66.958,0H341.9V145.829H282.82ZM581.15,137.877h59.08V109.088H581.15Zm-66.948,0h59.07V109.088H514.2Zm-66.949,0h59.07V109.088h-59.07Zm-66.948,0h59.07V109.088H380.3Zm103.38-36.741h59.07V72.347h-59.07Zm-66.948,0H475.8V72.347H416.73Zm-66.948,0h59.06V72.347h-59.06Zm-66.958,0H341.9V72.347H282.82ZM517.145,64.4h59.08V35.6h-59.08Zm-66.948,0h59.08V35.6H450.2ZM585.9,28.607V7.847L8.481,8.524V27.671h-.02v.169H18.3v-.01Z" transform="translate(523 -547.414)" />
            </g>
            <g transform="translate(-1733 -2324.046)">
                <circle class="fadein fourthin" opacity="0" cx="6.5" cy="6.5" r="6.5" transform="translate(2767 1859)" fill="var(--Background, #2E4157)" />
                <circle class="fadein thirdin" opacity="0" cx="6.5" cy="6.5" r="6.5" transform="translate(2745 1859)" fill="var(--HeroBorders, #233241)" />
                <circle class="fadein secondin" opacity="0" cx="6.5" cy="6.5" r="6.5" transform="translate(2723 1859)" fill="var(--Primary, #8ab5ea)" />
            </g>
            <g transform="translate(-1737 -2331.855)">
                    <rect class="fadein fourthin" opacity="0" width="144" height="92" rx="2" transform="translate(2761 2108.81)" fill="var(--Background, #2E4157)">
                    </rect>
                <path class="fadein secondin" opacity="0" d="M1183.244,1342.575h-122a2,2,0,0,1-2-2v-55a2,2,0,0,1,2-2h122a2,2,0,0,1,2,2v55A2,2,0,0,1,1183.244,1342.575Zm-71.751-44.092a3.008,3.008,0,0,0-3,3v23.7a3.008,3.008,0,0,0,3,3,2.96,2.96,0,0,0,1.475-.394l20.915-11.852a3,3,0,0,0,0-5.22l-20.915-11.852A2.961,2.961,0,0,0,1111.492,1298.483Z" transform="translate(1709.756 835.235)" fill="var(--Background50, #3F5671)" />
                <circle lass="fadein secondin" opacity="0" cx="6.5" cy="6.5" r="6.5" transform="translate(2769 2182.81)" fill="var(--Text, #f0f0f0)" />
                <rect width="109" height="4" class="grow-left secondin" style="clip-path: polygon(0 0,0px 0, 0px 100%, 0 100%);" transform="translate(2786 2190.81)" fill="var(--Primary, #8ab5ea)" />
                <rect width="95" height="5" class="grow fourthin" style="clip-path: polygon(0 0,0px 0, 0px 100%, 0 100%);" transform="translate(2786 2182.81)" fill="var(--Primary, #8ab5ea)" />
                <rect  width="158" height="3" class="grow secondin" style="clip-path: polygon(0 0,0px 0, 0px 100%, 0 100%);" transform="translate(2768 2054.81)" fill="var(--Primary, #8ab5ea)" />
                <rect  class="grow thirdin" style="clip-path: polygon(0 0,0px 0, 0px 100%, 0 100%);" width="124" height="4" transform="translate(2768 2019.81)" fill="var(--Primary, #8ab5ea)" />
                <rect class="grow-down fourthin" style="clip-path: polygon(0 0,0px 0, 0px 100%, 0 100%);" width="29" height="29" rx="2" transform="translate(2727 2009.81)" fill="var(--Background50, #3F5671)" />
                <rect class="grow-left secondin" style="clip-path: polygon(0 0,0px 0, 0px 100%, 0 100%);" width="29" height="28" rx="2" transform="translate(2727 2053.81)" fill="var(--Primary, #8ab5ea)" />
                <g class="fadein secondin" opacity="0" transform="translate(-2 3.81)">
                    <rect width="78.216" height="93.895" rx="2" transform="translate(2729 1890)" fill="var(--Background, #2E4157)" />
                </g>
                <g class="grow-left secondin" style="clip-path: polygon(0 0,0px 0, 0px 100%, 0 100%);" transform="translate(2732.244 1897.562)">
                    <g transform="translate(0 0)">
                        <g transform="translate(0)">
                            <g transform="translate(28.109 0)">
                                <circle class="fadein firstin" opacity="0" cx="4.568" cy="4.568" r="4.568" transform="translate(0 64.537)" fill="var(--Background50, #3F5671)" />
                                <rect width="23.413" height="1.928" rx="0.964" transform="translate(11.252 65.611)" fill="var(--Background50, #3F5671)" />
                                <rect width="26.278" height="1.928" rx="0.964" transform="translate(11.181 69.027)" fill="var(--Background50, #3F5671)" />
                                <rect width="17.959" height="1.928" rx="0.964" transform="translate(11.233 72.426)" fill="var(--Background50, #3F5671)" />
                                <circle cx="2.776" cy="2.776" r="2.776" transform="translate(32.732 0)" fill="var(--Background50, #3F5671)" />
                            </g>
                            <rect width="59" height="2" rx="1" transform="translate(0 36.013)" fill="var(--Background50, #3F5671)" />
                            <rect width="45" height="2" rx="1" transform="translate(0 40.013)" fill="var(--Background50, #3F5671)" />
                            <rect width="22" height="3" rx="1.5" transform="translate(0 44.013)" fill="var(--Background50, #3F5671)" />
                            <rect width="64" height="3" rx="1.5" transform="translate(0 48.013)" fill="var(--Background50, #3F5671)" />
                            <rect width="57" height="3" rx="1.5" transform="translate(0 52.013)" fill="var(--Background50, #3F5671)" />
                            <rect width="53" height="2" rx="1" transform="translate(0 57.013)" fill="var(--Background50, #3F5671)" />
                            <rect width="24" height="3" rx="1.5" transform="translate(0 60.013)" fill="var(--Background50, #3F5671)" />
                            <rect width="21" height="2" rx="1" transform="translate(38 2.013)" fill="var(--Background50, #3F5671)" />
                            <path d="M-508.745-185.58h-56a5.005,5.005,0,0,1-5-5v-16a5.005,5.005,0,0,1,5-5h56a5.005,5.005,0,0,1,5,5v16A5.005,5.005,0,0,1-508.745-185.58Zm-32.062-16.738a1.109,1.109,0,0,0-1.119,1.1v6.576a1.108,1.108,0,0,0,1.119,1.1h8.95a1.108,1.108,0,0,0,1.119-1.1v-6.576a1.109,1.109,0,0,0-1.119-1.1h-1.773l-1.024-1.1h-3.356l-1.023,1.1Zm4.475,7.124a2.772,2.772,0,0,1-2.8-2.741,2.772,2.772,0,0,1,2.8-2.74,2.772,2.772,0,0,1,2.8,2.74A2.772,2.772,0,0,1-536.333-195.194Zm0-4.494a1.774,1.774,0,0,0-1.79,1.753,1.774,1.774,0,0,0,1.79,1.754,1.774,1.774,0,0,0,1.79-1.754A1.774,1.774,0,0,0-536.333-199.687Z" transform="translate(570.745 219.593)" fill="var(--Background50, #3F5671)" />
                        </g>
                        <rect width="20" transform="translate(22 32.013)" fill="var(--Background50, #3F5671)" />
                    </g>
                </g>
            </g>
        </g>
        <g class="person fourthin" opacity="1" transform="matrix(1.02, 0.036, -0.050, 0.999, -414.036, -103.666)">
            <path d="M2526.979,1640.308l-3.917,10.225-18.333-6.03,3.739-7.92,18.512,2.169Z" transform="translate(-1975.976 -1086.667) rotate(-1)" fill="var(--HeroWhite, #f0f0f0)" />
            <path d="M873.983,761.7l-1.148,15.312-23.348-7.656,9.567-11.483Z" transform="translate(-380.108 -252.459)" fill="var(--HeroWhite, #f0f0f0)" />
            <path d="M969.877,512.155s10.335,12.249-2.68,31-28.708,37.129-28.708,37.129L909.4,635.408s-14.928,53.971-18.373,55.5-5.359-4.593-3.445,1.913.765,6.125-.766,6.509-5.741-.383-4.21,2.3,2.68,2.68-.383,2.68-4.21-1.913-4.21.765-2.68,8.8-2.68,8.8-18.756-5.359-19.521-7.655,4.976-3.445,3.828-5.741-1.531-2.3-1.531-5.741,2.3-4.21,2.3-4.21,1.913-.765,1.148-2.3-3.828-.765,0-2.68,19.523-60.479,19.523-60.479,0-29.094,4.976-38.662,1.148-77.7,13.018-78.468S969.877,512.155,969.877,512.155Z" transform="translate(-381.456 -198.509)" fill="var(--HeroLegs, #233241)" />
            <path d="M986.4,541.157l-2.3,59.329s11.483,57.416,7.655,75.023-1.148,15.311-3.445,18.373-4.21,1.531-2.3,4.21,3.058,3.445,0,6.509-4.593,10.335-4.593,10.335L961.9,713.024s4.976-8.8,3.058-10.718-6.89,1.148-3.058-3.058,6.125-2.3,3.828-4.21-5.741-1.148-2.68-4.21,6.509-3.058,3.445-4.21-6.509,0-4.976-2.3,3.445-4.976,3.445-4.976l-4.593-34.832s-5.359-11.483-3.828-16.459-6.509-45.933-6.509-45.933Z" transform="translate(-401.804 -205.694)" fill="var(--HeroLegs, #233241)" />
            <path class="shoe" fill="var(--HeroShoe, #233241)" d="M973.1,762.795s3.828-3.828,4.976-1.531,9.567,22.966,4.593,24.5-12.249,3.058-16.076,1.914-11.866-6.509-21.435-6.509-17.607-4.21-17.607-5.741-1.531-10.718,5.741-10.718,20.669-8.421,20.669-8.421,3.058-6.125,4.593-5.741.383,12.631.383,12.631S967.736,771.6,973.1,762.795Z" transform="translate(-396.923 -250.874)"  />
            <path class="shoe" fill="var(--HeroShoe, #233241)" d="M861.334,768.076s3.445-8.421,6.89-6.509,1.148,25.644,1.148,25.644-3.058,4.976-11.866,3.828-32.153-3.828-37.512-2.68S800.091,783,803.919,774.2c0,0,1.913-4.976,11.1-4.593s26.029-10.718,26.029-10.718,2.68-7.655,3.445-6.89,1.531,14.163,1.531,14.163S855.976,772.669,861.334,768.076Z" transform="translate(-370.138 -251.179)"/>
            <g class="shoe-detail" transform="translate(431, 88)">
                <path d="M-1591.173-1240.359c-8.927-1.463-32.605-4.981-38.128-4.027-4.894.845-16.841-4.572-16.481-11.836,4.535,2.937,19.387,7.414,67.41,8.676-.281,2.285-.506,3.791-.506,3.791s-2.544,3.672-9.069,3.672A19.907,19.907,0,0,1-1591.173-1240.359Z" transform="translate(1647.26 1694.558)" fill="var(--Highlight, #fff)"/>
                <path d="M-1604.071-1242.482c-3.847-1.281-11.778-6.929-21.539-7.274s-17.748-4.84-17.672-6.369a29.667,29.667,0,0,1,.179-4.649l.166.047s11.56,5.429,17.284,5.481,26.009,3.778,30.344,6.271c2.5,1.435,5.872,3.454,8.286,4.908a1.776,1.776,0,0,1-.556.253,52.971,52.971,0,0,1-12.314,1.866A13.648,13.648,0,0,1-1604.071-1242.482Z" transform="translate(1743.259 1695.59)" fill="var(--Highlight, #fff)"/>
            </g>
            <circle cx="22.201" cy="22.201" r="22.201" transform="translate(519.139 119.581)" fill="var(--Skin, #f8caca)" />
            <path d="M956.225,296.132s11.866,23.732,16.076,26.029c1.768.965-3.013,4.023-9.392,7.37-8.242,4.326-19.316,9.09-19.316,9.09s-5.359-23.349-11.866-28.325S956.225,296.132,956.225,296.132Z" transform="translate(-397.661 -152.82)" fill="var(--Skin, #f8caca)" />
            <path d="M916,543.071l-1.531,14.546s-16.459-5.741-11.1-16.459Z" transform="translate(-391.504 -205.694)" fill="var(--Skin, #f8caca)" />
            <path d="M2637.23,1901.585c-.508-.3-1.637-4.773-1.637-4.773l28.624-10.792s3.619,3.02,3.449,4.079S2637.738,1901.885,2637.23,1901.585Z" transform="translate(-2124.2 -1671.169) rotate(-1)" fill="var(--HeroWhite, #f0f0f0)" />
            <path d="M910.073,477.014c11.483,12.245,72.341,1.91,72.341,1.91l-.762-8.8,7.656-8.033-2.3-37.514s6.885-17.606,8.033-44.4a24.152,24.152,0,0,0-.3-4.923c-3.946-24-26.522-43.823-27.6-43.46-.54.178-22.8,7.538-28.8,10.692-6.892,3.621-14.111,7.45-14.111,7.45-9.188,3.451-7.655,58.57-10.72,63.545s0,22.193,0,22.193l-3.443,16.458S898.587,464.769,910.073,477.014Z" transform="translate(-392.08 -161.455)" fill="var(--Primary, #8ab5ea)" />
            <path d="M949.676,360.5s10.718,32.153,8.421,53.971-27.177,84.21-27.177,84.21l-8.417,4.593V513.99l-5.923-16.043,16.288-34.057S912.544,346.336,949.676,360.5Z" transform="translate(-394.586 -166.454)" opacity="0.1" style="isolation:isolate" />
            <path d="M945.034,353.909s10.718,32.153,8.421,53.971-27.177,84.21-27.177,84.21l-8.421,4.6V507.4l-17.607-4.976,3.828-12.631s-6.125-7.655-1.914-9.952,3.445-14.928,3.445-14.928S907.9,339.746,945.034,353.909Z" transform="translate(-391.062 -165.046)" fill="var(--Primary, #8ab5ea)" />
            <path d="M899.614,423.464c1-3.454.711-8.127-2.652-9.433-1.752-.681-3.707-.144-5.578.047a14.936,14.936,0,0,1-10.288-2.819c-3.479-2.575-5.627-6.51-7.668-10.318l-3.086-5.759a24.971,24.971,0,0,1-1.751-3.753c-1.717-5.084.147-10.97,3.964-14.756a21.55,21.55,0,0,1,14.686-5.733,39.782,39.782,0,0,1,15.692,3.347,69.421,69.421,0,0,1,23.4,15.651c4.341,4.422,8.293,10.182,7.386,16.3-.706,4.762-4.192,8.575-7.517,12.069l-12.06,12.675c-2.136,2.245-4.418,4.581-7.4,5.444s-6.824-.4-7.637-3.389C899.1,433.037,898.615,426.918,899.614,423.464Z" transform="matrix(0.934, -0.358, 0.358, 0.934, -429.466, 76.963)" fill="var(--HairDark, #93876f)" />
            <path d="M584.392,320.066c1.219,3.513-.126-11.306-.126-11.306L590,298.652s-7.551,4.348-9,7.163S583.174,316.553,584.392,320.066Z" transform="translate(0.035 -3.095)" fill="var(--Primary50,#7ca3d2)" />
            <path d="M2643.443,1858.016c-5.2,2.507-19.5-12.053-13.154-20.46s-15.067,13.2,5.077,20.46S2648.646,1855.509,2643.443,1858.016Z" transform="translate(-1357.054 -2481.919) rotate(19)" fill="var(--Hair,#837863)" />
        </g>
        <g transform="translate(-789.467 532.287)">
            <path class="computer firstin" d="M5,51.316a5,5,0,0,1-5-5V12.351a5,5,0,0,1,5-5H46.575A7.4,7.4,0,0,1,53.7,1.974H73.112a7.4,7.4,0,0,1,7.121,5.378h7.606A7.4,7.4,0,0,1,94.96,1.974h19.415A7.4,7.4,0,0,1,121.5,7.351h7.6a7.4,7.4,0,0,1,7.121-5.378h19.416a7.4,7.4,0,0,1,7.121,5.378h7.606a7.4,7.4,0,0,1,7.121-5.378H196.9a7.4,7.4,0,0,1,7.121,5.378h7.606a7.4,7.4,0,0,1,7.121-5.378H364.973a7.4,7.4,0,0,1,7.121,5.378H379.7a7.4,7.4,0,0,1,7.121-5.378h19.415a7.4,7.4,0,0,1,7.121,5.378h7.606a7.405,7.405,0,0,1,7.121-5.378H447.5a7.4,7.4,0,0,1,7.121,5.378h7.606a7.4,7.4,0,0,1,7.121-5.378h19.415a7.4,7.4,0,0,1,7.121,5.378h7.606a7.4,7.4,0,0,1,7.121-5.378h19.415a7.4,7.4,0,0,1,7.121,5.377h7.326A7.4,7.4,0,0,1,551.875,0H571.29a7.4,7.4,0,0,1,7.4,7.351h7.045A7.4,7.4,0,0,1,593.138,0h19.415a7.4,7.4,0,0,1,7.4,7.351H734.72a5,5,0,0,1,5,5V46.317a5,5,0,0,1-5,5Z" transform="translate(938 -126.362)" fill="var(--HeroBorders, #233241)" />
        </g>
    </g>
</svg>