<svg xmlns="http://www.w3.org/2000/svg" width="886.783" height="438.129" viewBox="0 0 886.783 438.129">
  <g id="hero-static" transform="translate(-482 -174)">
    <g id="Group_9" data-name="Group 9" transform="translate(-308.936 687.174)">
      <path id="Path_24" data-name="Path 24" d="M10,0H695a10,10,0,0,1,10,10V378H0V10A10,10,0,0,1,10,0Z" transform="translate(955 -496.046)" fill="#233241"/>
      <rect id="Rectangle_1" data-name="Rectangle 1" width="679" height="361" transform="translate(967 -479.046)" fill="#3f5671"/>
      <g id="Group_1" data-name="Group 1" transform="translate(452 70.804)">
        <path id="Path_25" data-name="Path 25" d="M940.183,633.77V661.8h-8.525v34.377h-36.3v37.566h96.855v34.281H963.492v37.349h-40.8v38.565h89.089v36.488H982.413V917.1H943.337v36.983h30.778v37.478H351.461V633.77Z" transform="translate(175.989 -1176.285)" fill="#3f5671"/>
        <path id="Path_26" data-name="Path 26" d="M880.446,117.342l461.246,256.6H1203.865v29.05H1394.2l72.249,40.207H877.957Z" transform="translate(-349 -628.85)" fill="#fff"/>
        <path id="Path_27" data-name="Path 27" d="M0,366.264V.15l575.81.906H594.7v34.55h-8.836V72.347H551.6v28.8h96.419v44.686H619.646V182.57H580.46v28.785H668.4v44.686H640.586v36.741H600.552v28.8h30.8v44.686Zm563.419-7.956H622.5V329.523H563.42ZM8.461,150.787h.02V168.67l-.01,17.863h.01V358.309H555.649V329.523h-231.7V284.837h40.913v-28.8H219.15V248.1H389.883V219.3H76.594v-7.946l159.991-.169V182.57H62.624v-7.956H275.287V145.829H35.049v-8.195l338.672.129V108.9l-261.159.189v-7.946l162.716-.159V72.317l-105.739.03V64.4h272.74V35.716H8.461v9.827h.02v87.381h-.02ZM532.9,321.578h59.08v-28.8H532.9Zm-66.948,0h59.08v-28.8h-59.08Zm-66.958,0h59.08v-28.8H399Zm-66.948,0h59.08v-28.8h-59.08Zm240.238-36.741h59.07v-28.8h-59.07Zm-66.948,0h59.07v-28.8h-59.07Zm-66.948,0h59.07v-28.8h-59.07Zm-66.948,0h59.07v-28.8H371.44ZM599.851,248.1h59.08V219.3h-59.08Zm-66.948,0h59.08V219.3H532.9Zm-66.958,0h59.08V219.3h-59.08ZM399,248.1h59.08V219.3H399Zm113.233-36.741H571.3V182.57H512.23Zm-66.958,0h59.08V182.57H445.27Zm-66.948,0H437.4V182.57H378.32Zm-66.948,0h59.08V182.57h-59.08Zm-66.948,0H303.5V182.57H244.42Zm306.2-36.741H609.7V145.829H550.63Zm-66.948,0h59.07V145.829h-59.07Zm-66.948,0H475.8V145.829H416.73Zm-66.948,0h59.06V145.829h-59.06Zm-66.958,0H341.9V145.829H282.82ZM581.15,137.877h59.08V109.088H581.15Zm-66.948,0h59.07V109.088H514.2Zm-66.949,0h59.07V109.088h-59.07Zm-66.948,0h59.07V109.088H380.3Zm103.38-36.741h59.07V72.347h-59.07Zm-66.948,0H475.8V72.347H416.73Zm-66.948,0h59.06V72.347h-59.06Zm-66.958,0H341.9V72.347H282.82ZM517.145,64.4h59.08V35.6h-59.08Zm-66.948,0h59.08V35.6H450.2ZM585.9,28.607V7.847L8.481,8.524V27.671h-.02v.169H18.3v-.01Z" transform="translate(523 -547.414)" fill="#2e4157"/>
      </g>
      <g id="Group_2" data-name="Group 2" transform="translate(-1733 -2324.046)">
        <circle id="Ellipse_1" data-name="Ellipse 1" cx="6.5" cy="6.5" r="6.5" transform="translate(2767 1859)" fill="#2e4157" opacity="0"/>
        <circle id="Ellipse_2" data-name="Ellipse 2" cx="6.5" cy="6.5" r="6.5" transform="translate(2745 1859)" fill="#233241" opacity="0"/>
        <circle id="Ellipse_3" data-name="Ellipse 3" cx="6.5" cy="6.5" r="6.5" transform="translate(2723 1859)" fill="#8ab5ea" opacity="0"/>
      </g>
      <g id="Group_8" data-name="Group 8" transform="translate(-1737 -2331.855)">
        <rect id="Rectangle_2" data-name="Rectangle 2" width="144" height="92" rx="2" transform="translate(2761 2108.81)" fill="#2e4157" opacity="0.999"/>
        <path id="Path_28" data-name="Path 28" d="M1183.244,1342.575h-122a2,2,0,0,1-2-2v-55a2,2,0,0,1,2-2h122a2,2,0,0,1,2,2v55A2,2,0,0,1,1183.244,1342.575Zm-71.751-44.092a3.008,3.008,0,0,0-3,3v23.7a3.008,3.008,0,0,0,3,3,2.96,2.96,0,0,0,1.475-.394l20.915-11.852a3,3,0,0,0,0-5.22l-20.915-11.852a2.96,2.96,0,0,0-1.476-.382Z" transform="translate(1709.756 835.235)" fill="#3f5671"/>
        <circle id="Ellipse_4" data-name="Ellipse 4" cx="6.5" cy="6.5" r="6.5" transform="translate(2769 2182.81)" fill="#f0f0f0" opacity="0"/>
        <rect id="Rectangle_3" data-name="Rectangle 3" width="109" height="4" transform="translate(2786 2190.81)" fill="#8ab5ea"/>
        <rect id="Rectangle_4" data-name="Rectangle 4" width="95" height="5" transform="translate(2786 2182.81)" fill="#8ab5ea"/>
        <rect id="Rectangle_5" data-name="Rectangle 5" width="158" height="3" transform="translate(2768 2054.81)" fill="#8ab5ea"/>
        <rect id="Rectangle_6" data-name="Rectangle 6" width="124" height="4" transform="translate(2768 2019.81)" fill="#8ab5ea"/>
        <rect id="Rectangle_7" data-name="Rectangle 7" width="29" height="29" rx="2" transform="translate(2727 2009.81)" fill="#3f5671"/>
        <rect id="Rectangle_8" data-name="Rectangle 8" width="29" height="28" rx="2" transform="translate(2727 2053.81)" fill="#8ab5ea"/>
        <g id="Group_3" data-name="Group 3" transform="translate(-2 3.81)">
          <rect id="Rectangle_9" data-name="Rectangle 9" width="78.216" height="93.895" rx="2" transform="translate(2729 1890)" fill="#2e4157"/>
        </g>
        <g id="Group_7" data-name="Group 7" transform="translate(2732.244 1897.562)">
          <g id="Group_6" data-name="Group 6">
            <g id="Group_5" data-name="Group 5">
              <g id="Group_4" data-name="Group 4" transform="translate(28.109)">
                <circle id="Ellipse_5" data-name="Ellipse 5" cx="4.568" cy="4.568" r="4.568" transform="translate(0 64.537)" fill="#3f5671" opacity="0"/>
                <rect id="Rectangle_10" data-name="Rectangle 10" width="23.413" height="1.928" rx="0.964" transform="translate(11.252 65.611)" fill="#3f5671"/>
                <rect id="Rectangle_11" data-name="Rectangle 11" width="26.278" height="1.928" rx="0.964" transform="translate(11.181 69.027)" fill="#3f5671"/>
                <rect id="Rectangle_12" data-name="Rectangle 12" width="17.959" height="1.928" rx="0.964" transform="translate(11.233 72.426)" fill="#3f5671"/>
                <circle id="Ellipse_6" data-name="Ellipse 6" cx="2.776" cy="2.776" r="2.776" transform="translate(32.732 0)" fill="#3f5671"/>
              </g>
              <rect id="Rectangle_13" data-name="Rectangle 13" width="59" height="2" rx="1" transform="translate(0 36.013)" fill="#3f5671"/>
              <rect id="Rectangle_14" data-name="Rectangle 14" width="45" height="2" rx="1" transform="translate(0 40.013)" fill="#3f5671"/>
              <rect id="Rectangle_15" data-name="Rectangle 15" width="22" height="3" rx="1.5" transform="translate(0 44.013)" fill="#3f5671"/>
              <rect id="Rectangle_16" data-name="Rectangle 16" width="64" height="3" rx="1.5" transform="translate(0 48.013)" fill="#3f5671"/>
              <rect id="Rectangle_17" data-name="Rectangle 17" width="57" height="3" rx="1.5" transform="translate(0 52.013)" fill="#3f5671"/>
              <rect id="Rectangle_18" data-name="Rectangle 18" width="53" height="2" rx="1" transform="translate(0 57.013)" fill="#3f5671"/>
              <rect id="Rectangle_19" data-name="Rectangle 19" width="24" height="3" rx="1.5" transform="translate(0 60.013)" fill="#3f5671"/>
              <rect id="Rectangle_20" data-name="Rectangle 20" width="21" height="2" rx="1" transform="translate(38 2.013)" fill="#3f5671"/>
              <path id="Path_29" data-name="Path 29" d="M-508.745-185.58h-56a5,5,0,0,1-5-5v-16a5,5,0,0,1,5-5h56a5.005,5.005,0,0,1,5,5v16a5,5,0,0,1-5,5Zm-32.062-16.738a1.109,1.109,0,0,0-.787.318,1.109,1.109,0,0,0-.331.782v6.576a1.108,1.108,0,0,0,.331.782,1.108,1.108,0,0,0,.788.318h8.95a1.108,1.108,0,0,0,.788-.318,1.108,1.108,0,0,0,.331-.782v-6.576a1.109,1.109,0,0,0-.331-.782,1.109,1.109,0,0,0-.788-.318h-1.773l-1.024-1.1h-3.356l-1.023,1.1Zm4.475,7.124a2.772,2.772,0,0,1-2.8-2.741,2.772,2.772,0,0,1,2.8-2.74,2.772,2.772,0,0,1,2.8,2.74,2.772,2.772,0,0,1-2.8,2.741Zm0-4.494a1.774,1.774,0,0,0-1.79,1.753,1.774,1.774,0,0,0,1.79,1.754,1.774,1.774,0,0,0,1.79-1.754,1.774,1.774,0,0,0-1.791-1.752Z" transform="translate(570.745 219.593)" fill="#3f5671"/>
            </g>
            <rect id="Rectangle_21" data-name="Rectangle 21" width="20" transform="translate(22 32.013)" fill="#3f5671"/>
          </g>
        </g>
      </g>
    </g>
    <g id="Group_10" data-name="Group 10" transform="translate(480.531 154.887)">
      <path id="Path_30" data-name="Path 30" d="M151.331,425.977,147,436.124l-18.519-6.367,4.072-7.847,18.826,2.511Z" fill="#f0f0f0"/>
      <path id="Path_31" data-name="Path 31" d="M64.254,422.845,62.318,438.1l-23.432-8.489,10.332-11.127Z" fill="#f0f0f0"/>
      <path id="Path_32" data-name="Path 32" d="M170.471,230.85s9.929,12.609-4.284,30.872-31.139,36.058-31.139,36.058L102.622,351.8S84.7,405.182,81.106,406.585,75.87,401.8,77.5,408.372s.474,6.146-1.107,6.475-5.837-.589-4.409,2.146,2.6,2.774-.525,2.664-4.2-2.063-4.332.613-3.174,8.695-3.174,8.695-18.863-6.029-19.529-8.35,5.248-3.262,4.192-5.6-1.447-2.353-1.275-5.79S49.9,405.1,49.9,405.1s1.989-.7,1.286-2.256-3.866-.9.134-2.677,22.937-59.716,22.937-59.716,1.455-29.065,7.009-38.444,5.056-77.581,17.2-77.921S170.471,230.85,170.471,230.85Z" fill="#233241"/>
      <path id="Path_33" data-name="Path 33" d="M165.479,252.507l-5.312,59.187s8.842,57.772,4.057,75.224-1.937,15.254-4.433,18.231-4.371,1.378-2.557,4.123,2.947,3.552-.325,6.5-5.2,10.159-5.2,10.159L131.9,423.32s5.516-8.612,3.655-10.6-7.085.9-2.966-3.165,6.362-2.077,4.115-4.068-5.8-1.354-2.523-4.3,6.792-2.821,3.724-4.082-6.639-.234-4.961-2.477,3.763-4.847,3.763-4.847l-2.943-34.963s-4.892-11.664-3.082-16.58-4.343-46.121-4.343-46.121Z" fill="#233241"/>
      <path id="Path_34" data-name="Path 34" d="M148.068,428.486s4.1-3.686,5.152-1.35,8.61,23.287,3.46,24.641-12.647,2.614-16.493,1.333-11.778-6.93-21.538-7.274S100.9,441,100.977,439.466s-1.026-10.762,6.392-10.5,21.5-7.669,21.5-7.669,3.185-1.664,4.731-1.225,0,8.288,0,8.288S142.157,437.089,148.068,428.486Z" fill="#233241"/>
      <path id="Path_35" data-name="Path 35" d="M61.139,430.4s3.935-8.289,7.353-6.254-.111,25.66-.111,25.66-3.368,4.861-12.295,3.4-32.6-4.982-38.128-4.028S-2.075,443.1,2.27,434.448c0,0,2.2-4.9,11.552-4.189s27.085-9.77,27.085-9.77,2.345-.792,3.087,0,1.625,7.445,1.625,7.445S55.444,434.793,61.139,430.4Z" fill="#233241"/>
      <ellipse id="Ellipse_7" data-name="Ellipse 7" cx="22.672" cy="22.191" rx="22.672" ry="22.191" transform="translate(109.507 34.484) rotate(2.806)" fill="#f8caca"/>
      <path id="Path_36" data-name="Path 36" d="M148.534,59.611s10.917,24.135,15.1,26.582c1.755,1.028-3.274,3.911-9.948,7.024-8.623,4.025-20.157,8.386-20.157,8.386s-4.3-23.519-10.687-28.724S148.534,59.611,148.534,59.611Z" fill="#f8caca"/>
      <path id="Path_37" data-name="Path 37" d="M104.081,252.255l-2.289,14.476s-16.5-6.328-10.5-16.842Z" fill="#f8caca"/>
      <path id="Path_38" data-name="Path 38" d="M133.492,99.91c-.509-.309-1.517-4.8-1.517-4.8l29.565-10.255s3.6,3.086,3.389,4.141S134,100.22,133.492,99.91Z" fill="#f0f0f0"/>
      <path id="Path_39" data-name="Path 39" d="M98.539,230.225c11.1,12.646,73.692,4.512,73.692,4.512l-.337-8.819,8.211-7.749-.47-37.559s7.9-17.341,10.414-44.066a23.629,23.629,0,0,0-.06-4.929c-2.825-24.118-24.861-44.734-25.979-44.41-.56.158-23.633,6.71-29.911,9.645-7.211,3.369-14.766,6.935-14.766,6.935-9.544,3.117-10.737,58.236-14.112,63.1s-1.11,22.171-1.11,22.171l-4.335,16.318S87.435,217.579,98.539,230.225Z" fill="#8ab5ea"/>
      <path id="Path_40" data-name="Path 40" d="M142.453,110.169s9.325,32.507,5.891,54.22-31.931,83.147-31.931,83.147l-8.815,4.285-.536,10.705-5.239-16.24,18.317-33.437S105.287,94.683,142.453,110.169Z" opacity="0.1" style="isolation: isolate"/>
      <path id="Path_41" data-name="Path 41" d="M141.572,104.951s9.325,32.507,5.891,54.22-31.931,83.147-31.931,83.147l-8.819,4.292-.536,10.7-17.71-5.6L93,239.225s-5.865-7.868-1.455-10.011,4.26-14.789,4.26-14.789S104.4,89.465,141.572,104.951Z" fill="#8ab5ea"/>
      <path id="Path_42" data-name="Path 42" d="M152.064,66.846c-.129-3.591-1.9-7.918-5.578-8.064-1.917-.077-3.644,1.065-5.4,1.852A15.6,15.6,0,0,1,130.2,61.3c-4.2-1.309-7.535-4.335-10.728-7.276l-4.829-4.448a24.724,24.724,0,0,1-2.895-2.983c-3.286-4.253-3.351-10.425-.852-15.243a22.307,22.307,0,0,1,12.428-10.182,41.641,41.641,0,0,1,16.3-1.918,71.421,71.421,0,0,1,27.7,7.223c5.622,2.776,11.292,6.945,12.36,13.026.831,4.733-1.338,9.47-3.453,13.852l-7.669,15.9c-1.358,2.816-2.829,5.765-5.449,7.548s-6.751,1.833-8.492-.731C154.614,76.068,152.195,70.437,152.064,66.846Z" fill="#93876f"/>
      <path id="Path_43" data-name="Path 43" d="M166.231,234.027c1.068,3.553.437-11.3.437-11.3l6.354-9.891s-7.919,4.072-9.538,6.832S165.164,230.474,166.231,234.027Z" fill="#7ca3d2"/>
      <path id="Path_44" data-name="Path 44" d="M127.4,51.045c-5.881.47-13.917-18.25-4.71-23.812s-19.293,6.9-2.948,20.91S133.282,50.576,127.4,51.045Z" fill="#837863"/>
      <path id="Intersection_1" data-name="Intersection 1" d="M-1591.173-1240.359c-8.927-1.463-32.605-4.981-38.128-4.027-4.894.845-16.841-4.572-16.481-11.836,4.535,2.937,19.387,7.414,67.41,8.676-.281,2.285-.506,3.791-.506,3.791s-2.544,3.672-9.069,3.672A19.907,19.907,0,0,1-1591.173-1240.359Z" transform="translate(1647.26 1694.558)" fill="#fff"/>
      <path id="Intersection_2" data-name="Intersection 2" d="M-1604.071-1242.482c-3.847-1.281-11.778-6.929-21.539-7.274s-17.748-4.84-17.672-6.369a29.667,29.667,0,0,1,.179-4.649l.166.047s11.56,5.429,17.284,5.481,26.009,3.778,30.344,6.271c2.5,1.435,5.872,3.454,8.286,4.908a1.776,1.776,0,0,1-.556.253,52.971,52.971,0,0,1-12.314,1.866A13.648,13.648,0,0,1-1604.071-1242.482Z" transform="translate(1744.259 1695.59)" fill="#fff"/>
      <path id="Path_51" data-name="Path 51" d="M1674.307,1716.126a30.636,30.636,0,0,1,15.359-2.646c2.769.319,8.285,1.955,11.063,2.646a32.174,32.174,0,0,0,8.9.811,34.5,34.5,0,0,1-14.134,1.18c-2.467-.284-3.443-1.522-7.722-1.99A121.893,121.893,0,0,0,1674.307,1716.126Z" transform="translate(-1650.531 -1279.887)" fill="#fff"/>
      <path id="Path_52" data-name="Path 52" d="M1674.307,1716.126a30.636,30.636,0,0,1,15.359-2.646c2.769.319,8.285,1.955,11.063,2.646a32.174,32.174,0,0,0,8.9.811,34.5,34.5,0,0,1-14.134,1.18c-2.467-.284-3.443-1.522-7.722-1.99A121.893,121.893,0,0,0,1674.307,1716.126Z" transform="translate(-1332.811 -1473.296) rotate(7)" fill="#fff"/>
    </g>
    <g id="Group_11" data-name="Group 11" transform="translate(-308.936 687.174)">
      <path id="Path_45" data-name="Path 45" d="M5,51.316a5,5,0,0,1-5-5V12.351a5,5,0,0,1,5-5H46.575A7.4,7.4,0,0,1,53.7,1.974H73.112a7.4,7.4,0,0,1,7.121,5.378h7.606A7.4,7.4,0,0,1,94.96,1.974h19.415A7.4,7.4,0,0,1,121.5,7.351h7.6a7.4,7.4,0,0,1,7.121-5.378h19.416a7.4,7.4,0,0,1,7.121,5.378h7.606a7.4,7.4,0,0,1,7.121-5.378H196.9a7.4,7.4,0,0,1,7.121,5.378h7.606a7.4,7.4,0,0,1,7.121-5.378H364.973a7.4,7.4,0,0,1,7.121,5.378H379.7a7.4,7.4,0,0,1,7.121-5.378h19.415a7.4,7.4,0,0,1,7.121,5.378h7.606a7.405,7.405,0,0,1,7.121-5.378H447.5a7.4,7.4,0,0,1,7.121,5.378h7.606a7.4,7.4,0,0,1,7.121-5.378h19.415a7.4,7.4,0,0,1,7.121,5.378h7.606a7.4,7.4,0,0,1,7.121-5.378h19.415a7.4,7.4,0,0,1,7.121,5.377h7.326a7.4,7.4,0,0,1,7.4-7.35H571.29a7.4,7.4,0,0,1,7.4,7.351h7.045A7.4,7.4,0,0,1,593.138,0h19.415a7.4,7.4,0,0,1,7.4,7.351H734.72a5,5,0,0,1,5,5V46.317a5,5,0,0,1-5,5Z" transform="translate(938 -126.362)" fill="#233241"/>
    </g>
  </g>
</svg>
