<svg xmlns="http://www.w3.org/2000/svg" width="888.476" height="452.26" viewBox="0 0 888.476 452.26">
    <g transform="translate(0.223 -4.982)">
        <g transform="translate(-789.467 532.287)">
            <path class="computer firstin" opacity="0" d="M10,0H695a10,10,0,0,1,10,10V378H0V10A10,10,0,0,1,10,0Z" transform="translate(955 -496.046)" fill="var(--HeroBorders, #233241)" />
            <rect class="fadein firstin" opacity="0" width="679" height="361" transform="translate(967 -479.046)" fill="var(--Background, #3F5671)" />
            <g transform="translate(452 70.804)">
                <path class="grow-left thirdin" style="clip-path: polygon(0 0,0px 0, 0px 100%, 0 100%);" d="M940.183,633.77V661.8h-8.525v34.377h-36.3v37.566h96.855v34.281H963.492v37.349h-40.8v38.565h89.089v36.488H982.413V917.1H943.337v36.983h30.778v37.478H351.461V633.77Z" transform="translate(175.989 -1176.285)" fill="var(--Background50, #3F5671)" />
                <path class="grow-diagonal-bottom firstin" style="clip-path: polygon(0 82%, 0 100%, 14% 100%, 0% 100%);" d="M880.446,117.342l461.246,256.6H1203.865v29.05H1394.2l72.249,40.207H877.957Z" transform="translate(-349 -628.85)" fill="var(--Highlight, #fff)" />
                <path class="lines grow-diagonal thirdin" style="clip-path: polygon(89% 0, 100% 0%, 100% 11%, 100% 0);" fill="var(--Background, #2E4157)" d="M0,366.264V.15l575.81.906H594.7v34.55h-8.836V72.347H551.6v28.8h96.419v44.686H619.646V182.57H580.46v28.785H668.4v44.686H640.586v36.741H600.552v28.8h30.8v44.686Zm563.419-7.956H622.5V329.523H563.42ZM8.461,150.787h.02V168.67l-.01,17.863h.01V358.309H555.649V329.523h-231.7V284.837h40.913v-28.8H219.15V248.1H389.883V219.3H76.594v-7.946l159.991-.169V182.57H62.624v-7.956H275.287V145.829H35.049v-8.195l338.672.129V108.9l-261.159.189v-7.946l162.716-.159V72.317l-105.739.03V64.4h272.74V35.716H8.461v9.827h.02v87.381h-.02ZM532.9,321.578h59.08v-28.8H532.9Zm-66.948,0h59.08v-28.8h-59.08Zm-66.958,0h59.08v-28.8H399Zm-66.948,0h59.08v-28.8h-59.08Zm240.238-36.741h59.07v-28.8h-59.07Zm-66.948,0h59.07v-28.8h-59.07Zm-66.948,0h59.07v-28.8h-59.07Zm-66.948,0h59.07v-28.8H371.44ZM599.851,248.1h59.08V219.3h-59.08Zm-66.948,0h59.08V219.3H532.9Zm-66.958,0h59.08V219.3h-59.08ZM399,248.1h59.08V219.3H399Zm113.233-36.741H571.3V182.57H512.23Zm-66.958,0h59.08V182.57H445.27Zm-66.948,0H437.4V182.57H378.32Zm-66.948,0h59.08V182.57h-59.08Zm-66.948,0H303.5V182.57H244.42Zm306.2-36.741H609.7V145.829h-59.07Zm-66.948,0h59.07V145.829h-59.07Zm-66.948,0H475.8V145.829H416.73Zm-66.948,0h59.06V145.829h-59.06Zm-66.958,0H341.9V145.829H282.82ZM581.15,137.877h59.08V109.088H581.15Zm-66.948,0h59.07V109.088H514.2Zm-66.949,0h59.07V109.088h-59.07Zm-66.948,0h59.07V109.088H380.3Zm103.38-36.741h59.07V72.347h-59.07Zm-66.948,0H475.8V72.347H416.73Zm-66.948,0h59.06V72.347h-59.06Zm-66.958,0H341.9V72.347H282.82ZM517.145,64.4h59.08V35.6h-59.08Zm-66.948,0h59.08V35.6H450.2ZM585.9,28.607V7.847L8.481,8.524V27.671h-.02v.169H18.3v-.01Z" transform="translate(523 -547.414)" />
            </g>
            <g transform="translate(-1733 -2324.046)">
                <circle class="fadein fourthin" opacity="0" cx="6.5" cy="6.5" r="6.5" transform="translate(2767 1859)" fill="var(--Background, #2E4157)" />
                <circle class="fadein thirdin" opacity="0" cx="6.5" cy="6.5" r="6.5" transform="translate(2745 1859)" fill="var(--HeroBorders, #233241)" />
                <circle class="fadein secondin" opacity="0" cx="6.5" cy="6.5" r="6.5" transform="translate(2723 1859)" fill="var(--Primary, #8ab5ea)" />
            </g>
            <g transform="translate(-1737 -2331.855)">
                    <rect class="fadein fourthin" opacity="0" width="144" height="92" rx="2" transform="translate(2761 2108.81)" fill="var(--Background, #2E4157)">
                    </rect>
                <path class="fadein secondin" opacity="0" d="M1183.244,1342.575h-122a2,2,0,0,1-2-2v-55a2,2,0,0,1,2-2h122a2,2,0,0,1,2,2v55A2,2,0,0,1,1183.244,1342.575Zm-71.751-44.092a3.008,3.008,0,0,0-3,3v23.7a3.008,3.008,0,0,0,3,3,2.96,2.96,0,0,0,1.475-.394l20.915-11.852a3,3,0,0,0,0-5.22l-20.915-11.852A2.961,2.961,0,0,0,1111.492,1298.483Z" transform="translate(1709.756 835.235)" fill="var(--Background50, #3F5671)" />
                <circle lass="fadein secondin" opacity="0" cx="6.5" cy="6.5" r="6.5" transform="translate(2769 2182.81)" fill="var(--Text, #f0f0f0)" />
                <rect width="109" height="4" class="grow-left secondin" style="clip-path: polygon(0 0,0px 0, 0px 100%, 0 100%);" transform="translate(2786 2190.81)" fill="var(--Primary, #8ab5ea)" />
                <rect width="95" height="5" class="grow fourthin" style="clip-path: polygon(0 0,0px 0, 0px 100%, 0 100%);" transform="translate(2786 2182.81)" fill="var(--Primary, #8ab5ea)" />
                <rect  width="158" height="3" class="grow secondin" style="clip-path: polygon(0 0,0px 0, 0px 100%, 0 100%);" transform="translate(2768 2054.81)" fill="var(--Primary, #8ab5ea)" />
                <rect  class="grow thirdin" style="clip-path: polygon(0 0,0px 0, 0px 100%, 0 100%);" width="124" height="4" transform="translate(2768 2019.81)" fill="var(--Primary, #8ab5ea)" />
                <rect class="grow-down fourthin" style="clip-path: polygon(0 0,0px 0, 0px 100%, 0 100%);" width="29" height="29" rx="2" transform="translate(2727 2009.81)" fill="var(--Background50, #3F5671)" />
                <rect class="grow-left secondin" style="clip-path: polygon(0 0,0px 0, 0px 100%, 0 100%);" width="29" height="28" rx="2" transform="translate(2727 2053.81)" fill="var(--Primary, #8ab5ea)" />
                <g class="fadein secondin" opacity="0" transform="translate(-2 3.81)">
                    <rect width="78.216" height="93.895" rx="2" transform="translate(2729 1890)" fill="var(--Background, #2E4157)" />
                </g>
                <g class="grow-left secondin" style="clip-path: polygon(0 0,0px 0, 0px 100%, 0 100%);" transform="translate(2732.244 1897.562)">
                    <g transform="translate(0 0)">
                        <g transform="translate(0)">
                            <g transform="translate(28.109 0)">
                                <circle class="fadein firstin" opacity="0" cx="4.568" cy="4.568" r="4.568" transform="translate(0 64.537)" fill="var(--Background50, #3F5671)" />
                                <rect width="23.413" height="1.928" rx="0.964" transform="translate(11.252 65.611)" fill="var(--Background50, #3F5671)" />
                                <rect width="26.278" height="1.928" rx="0.964" transform="translate(11.181 69.027)" fill="var(--Background50, #3F5671)" />
                                <rect width="17.959" height="1.928" rx="0.964" transform="translate(11.233 72.426)" fill="var(--Background50, #3F5671)" />
                                <circle cx="2.776" cy="2.776" r="2.776" transform="translate(32.732 0)" fill="var(--Background50, #3F5671)" />
                            </g>
                            <rect width="59" height="2" rx="1" transform="translate(0 36.013)" fill="var(--Background50, #3F5671)" />
                            <rect width="45" height="2" rx="1" transform="translate(0 40.013)" fill="var(--Background50, #3F5671)" />
                            <rect width="22" height="3" rx="1.5" transform="translate(0 44.013)" fill="var(--Background50, #3F5671)" />
                            <rect width="64" height="3" rx="1.5" transform="translate(0 48.013)" fill="var(--Background50, #3F5671)" />
                            <rect width="57" height="3" rx="1.5" transform="translate(0 52.013)" fill="var(--Background50, #3F5671)" />
                            <rect width="53" height="2" rx="1" transform="translate(0 57.013)" fill="var(--Background50, #3F5671)" />
                            <rect width="24" height="3" rx="1.5" transform="translate(0 60.013)" fill="var(--Background50, #3F5671)" />
                            <rect width="21" height="2" rx="1" transform="translate(38 2.013)" fill="var(--Background50, #3F5671)" />
                            <path d="M-508.745-185.58h-56a5.005,5.005,0,0,1-5-5v-16a5.005,5.005,0,0,1,5-5h56a5.005,5.005,0,0,1,5,5v16A5.005,5.005,0,0,1-508.745-185.58Zm-32.062-16.738a1.109,1.109,0,0,0-1.119,1.1v6.576a1.108,1.108,0,0,0,1.119,1.1h8.95a1.108,1.108,0,0,0,1.119-1.1v-6.576a1.109,1.109,0,0,0-1.119-1.1h-1.773l-1.024-1.1h-3.356l-1.023,1.1Zm4.475,7.124a2.772,2.772,0,0,1-2.8-2.741,2.772,2.772,0,0,1,2.8-2.74,2.772,2.772,0,0,1,2.8,2.74A2.772,2.772,0,0,1-536.333-195.194Zm0-4.494a1.774,1.774,0,0,0-1.79,1.753,1.774,1.774,0,0,0,1.79,1.754,1.774,1.774,0,0,0,1.79-1.754A1.774,1.774,0,0,0-536.333-199.687Z" transform="translate(570.745 219.593)" fill="var(--Background50, #3F5671)" />
                        </g>
                        <rect width="20" transform="translate(22 32.013)" fill="var(--Background50, #3F5671)" />
                    </g>
                </g>
            </g>
        </g>
        <g id="person" class="person fourthin" opacity="0" transform="matrix(1, -0.015, -.025, 1, -252.484, -168.328)">
            <g id="shoeup" transform="matrix(-0.208, 0.978, -0.978, -0.208, 366.164, 590.165)">
              <path id="Path_89" data-name="Path 89" d="M28.495,5.61,26.32,25.236,0,14.315,11.606,0Z" transform="matrix(-0.358, -0.934, 0.934, -0.358, 10.212, 45.569)" fill="#f0f0f0"/>
              <path fill="var(--HeroShoe, #233241)" id="Path_90" data-name="Path 90" d="M63,11.767s4.154-8.751,7.763-6.6-.117,27.09-.117,27.09-3.075,4.439-11.174,3.81c-.515-.04-1.146-.115-1.806-.223-2.667-.437-6.582-1.048-11.021-1.686-11.018-1.583-25.052-3.288-29.233-2.566C11.576,32.6-3.742,25.18.845,16.044c0,0,2.323-5.176,12.2-4.422s28.6-10.315,28.6-10.315S44.426-.626,45.21.21s1.4,8.956,1.4,8.956S56.984,16.407,63,11.767Z" transform="matrix(-0.358, -0.934, 0.934, -0.358, 29.35, 80.535)"/>
              <path id="Path_91" data-name="Path 91" d="M58,18.806c-9.536-1.882-34.848-6.493-40.846-5.7C11.842,13.815-.737,7.648.034,0,4.763,3.27,20.52,8.556,72.168,11.713c-.423,2.4-.745,3.979-.745,3.979s-2.933,3.776-9.96,3.528A21.8,21.8,0,0,1,58,18.806Z" transform="matrix(-0.358, -0.934, 0.934, -0.358, 47.821, 74.266)" fill="#fff"/>
            </g>
            <g id="shoeup-2" data-name="shoeup" transform="translate(391.572 473.065) rotate(11)">
              <path id="Path_89-2" data-name="Path 89" d="M29.775,5.135,27.5,23.1,0,13.1,12.127,0Z" transform="matrix(-0.358, -0.934, 0.934, -0.358, 10.67, 47.597)" fill="#f0f0f0"/>
              <path fill="var(--HeroShoe, #233241)" id="Path_90-2" data-name="Path 90" d="M63,11.767s4.154-8.751,7.763-6.6-.117,27.09-.117,27.09-3.075,4.439-11.174,3.81c-.515-.04-1.146-.115-1.806-.223-2.667-.437-6.582-1.048-11.021-1.686-11.018-1.583-25.052-3.288-29.233-2.566C11.576,32.6-3.742,25.18.845,16.044c0,0,2.323-5.176,12.2-4.422s28.6-10.315,28.6-10.315S44.426-.626,45.21.21s1.4,8.956,1.4,8.956S56.984,16.407,63,11.767Z" transform="matrix(-0.358, -0.934, 0.934, -0.358, 26.743, 80.535)"/>
              <path id="Path_91-2" data-name="Path 91" d="M58,18.806c-9.536-1.882-34.848-6.493-40.846-5.7C11.842,13.815-.737,7.648.034,0,4.763,3.27,20.52,8.556,72.168,11.713c-.423,2.4-.745,3.979-.745,3.979s-2.933,3.776-9.96,3.528A21.8,21.8,0,0,1,58,18.806Z" transform="matrix(-0.358, -0.934, 0.934, -0.358, 45.214, 74.266)" fill="#fff"/>
            </g>
            <g id="hair" transform="translate(355.55 193.136)">
              <g id="face" transform="translate(0 0)">
                <ellipse id="Ellipse_15" data-name="Ellipse 15" cx="26.932" cy="26.932" rx="26.932" ry="26.932" transform="translate(10.278 0) rotate(11)" fill="#f8caca"/>
                <path id="Path_97" data-name="Path 97" d="M0,9.04S4.433,41.182,3.325,43.191s26.6-22.1,26.6-22.1S19.948,7.031,22.165,0Z" transform="translate(28.848 35.161) rotate(11)" fill="#f8caca"/>
              </g>
            </g>
            <path id="hand-right" d="M350.357,629.662l-6.095,8.724s1.892,4.566-1.23,7.274.5,3.848,0,11.013,3.783-.6,4.627-1.181-2.351-9.915,0-12.615S350.357,629.662,350.357,629.662Z" transform="translate(-8.79 -245.079)" fill="#f8caca"/>
            <path id="collar" d="M491.649,267.126c-.629-1.842,3.4,4.556,4.078,4.915s-35.136,19.019-35.136,19.019A10.835,10.835,0,0,0,459.3,287.3c-.973-1.477,1.293-3.291,1.293-3.291S492.278,268.968,491.649,267.126Z" transform="translate(-82.537 -13.92)" fill="#fff"/>
            <path id="legdown" fill="var(--HeroBorders, #233241)" d="M321.99,994.978s.689,6.518,1.59,11.158-2.638,29.935-3.165,33.581-2.108,3.1-1.892,17.534,29.191,0,29.191,0l9.775-31.584s3.76-34.955,2.689-36.539S321.99,994.978,321.99,994.978Z" transform="translate(4.387 -467.829)"/>
            <path id="leg-detail" fill="var(--HeroBordersShadow, #233241)" d="M325.113,989.47c-.319.8.981,2.082.981,2.082s37.319-6.492,37.9-6.278-.216-2.338-.216-2.338S325.432,988.673,325.113,989.47Z" transform="translate(0.411 -462.942)"/>
            <path id="legup" fill="var(--HeroBorders, #233241)" d="M324.629,748.618a.512.512,0,0,1-.012.676c-1.138,1.437-10.878,13.432-12.66,13.758-1.914.351-10.947,9.145-10.947,9.145s-1.375,6.408-2.229,6.793-2.329,10.947-1.735,11.3-1.446,7.473-1.446,7.473l5.41,2,10.116-1.109,4.969-.892h3.151s9.375,28.243.939,31.637-24.378,2-27.315,1.028-39.817,6.858-42.182,6.789-39.109,6.954-43.168-14.939,27.014-39.747,34.443-54.264,6.626-14.894,11.438-19.364,11.354-20.159,11.354-20.159L323.729,743.6l.924,3.65Z" transform="translate(71.874 -309.826)"/>
            <path id="leg-up-shadow" fill="var(--HeroBordersShadow, #233241)" d="M355.482,868.428c6.263.472-43.168,10.394-44.988,8.878s41.932-32.972,50.894-35.447-41.587,29.925-43.181,33.2S349.218,867.956,355.482,868.428Z" transform="translate(9.275 -378.624)"/>
            <path fill="var(--Primary, #8ab5ea)" id="shirt" d="M526.1,281.258c1.213-.488,17.969,14.634,19,18.272s6.772,26.211,5.194,29.7-6.5,6.955-5.194,8.387-.244,12.8-3.125,15.462,3.125,5.389,3.125,5.389h-3.125v6.5h-2.379v6.606l-1.826,2.559V384.91h-3.137v4.656l-5.033,7.995S513.538,452.2,517.8,453.947s-12.684,3.993-12.684,3.993l-30.61-3.993-11.423-4.682-13.174-5.231a2.911,2.911,0,0,1-.682-.22c-.12.021-.125-.195-1.013-5.764-1.717-10.772,4.811-30.348,4.811-30.348l6.867-22.793s10.9-65.293,11.618-66.139c.549-.643,12.127-15.575,17.7-22.771,1.694-2.186,1.012-1.417,1.012-1.417s.252.889,2.342.775a38.387,38.387,0,0,0,6.018-1.233S524.883,281.746,526.1,281.258Z" transform="translate(-113.447 -22.932)" />
            <path fill="var(--Primary50, #8ab5ea)" id="shirt-detail" d="M529.441,519.686c27.358,8.283-16.324-9.849-16.628-8.034S502.083,511.4,529.441,519.686Z" transform="translate(-113.227 -175.202)" />
            <path fill="var(--Primary50, #8ab5ea)" id="shirt-detail-2" data-name="shirt-detail" d="M512.422,484.591c2.739,2.108,27.73-.072,27.73-.072s-3.268-.744-7.991-2.085-9.38,1.649-13.018,0-4.489-.868-6.677-.344S509.683,482.483,512.422,484.591Z" transform="translate(-111.093 -155.072)" />
            <path fill="var(--Primary50, #8ab5ea)" id="Path_93" data-name="Path 93" d="M572.856,45.76c.221-2.116-3.962,21.742-3.962,21.742s3.488,16.915,3.962,18.165-9.282-21.8-9.282-21.8S572.634,47.876,572.856,45.76Z" transform="translate(-171.903 236.557)"/>
            <path fill="var(--Primary50, #8ab5ea)" id="Path_101" data-name="Path 101" d="M399.137,346.894c.774-.487-2.484,6.429-2.484,6.429s.142,4.55,1.02,4.565-3.656-4.611-3.656-4.611S398.363,347.382,399.137,346.894Z"/>
            <path id="arm" d="M377.744,648.032c-13.306,3.046,18.952,7.779,18.952,7.779s54.251-65.842,50.926-67.079S426.872,578.4,426.872,578.4,391.05,644.987,377.744,648.032Z" transform="translate(-29.568 -219.027)" fill="#f8caca"/>
            <g id="hair-2" data-name="hair" transform="matrix(0.998, 0.07, -0.07, 0.998, 358.211, 181.926)">
              <path id="Path_98" data-name="Path 98" d="M40.719,45.283c-.123-3.407-1.8-7.512-5.292-7.65-1.819-.073-2.331,1.03-4,1.776-3.261,1.447-4.472.9-7.86-.137-3.981-1.241-7.608-4.507-10.638-7.3L8.627,28.42c-.995-.866-5.32-1.333-6.152-2.35C-.642,22.036-.7,16.181,1.667,11.61A21.162,21.162,0,0,1,13.457,1.95,39.5,39.5,0,0,1,28.917.131c9.168.5,15.025-1.528,23.19,2.495C57.44,5.259,65.9,13.571,66.917,19.34c.789,4.49-.734,9.371-2.74,13.529L55.733,46.75c-1.288,2.671-2.051,6.283-4.536,7.974s-6.4,1.739-8.056-.694C43.137,54.032,40.842,48.69,40.719,45.283Z" transform="matrix(0.998, -0.07, 0.07, 0.998, 0, 4.68)" fill="#93876f"/>
            </g>
            <path id="Path_102" data-name="Path 102" d="M922.894-315.224c-.917,1.3-5.215,4.488-6.734,6.366a19.107,19.107,0,0,0-3.125,7.031s2.878,1.759,3.125,4.077,3.03,10.352,3.03,10.352.074-2.31,0-5.956c-.042-2.01-1.2-8.361-.854-10.773C919.183-309.994,925.513-318.932,922.894-315.224Z" transform="translate(-520.691 506.432) rotate(1)" fill="#837863"/>
          </g>
        <g transform="translate(-789.467 532.287)">
            <path class="computer firstin" d="M5,51.316a5,5,0,0,1-5-5V12.351a5,5,0,0,1,5-5H46.575A7.4,7.4,0,0,1,53.7,1.974H73.112a7.4,7.4,0,0,1,7.121,5.378h7.606A7.4,7.4,0,0,1,94.96,1.974h19.415A7.4,7.4,0,0,1,121.5,7.351h7.6a7.4,7.4,0,0,1,7.121-5.378h19.416a7.4,7.4,0,0,1,7.121,5.378h7.606a7.4,7.4,0,0,1,7.121-5.378H196.9a7.4,7.4,0,0,1,7.121,5.378h7.606a7.4,7.4,0,0,1,7.121-5.378H364.973a7.4,7.4,0,0,1,7.121,5.378H379.7a7.4,7.4,0,0,1,7.121-5.378h19.415a7.4,7.4,0,0,1,7.121,5.378h7.606a7.405,7.405,0,0,1,7.121-5.378H447.5a7.4,7.4,0,0,1,7.121,5.378h7.606a7.4,7.4,0,0,1,7.121-5.378h19.415a7.4,7.4,0,0,1,7.121,5.378h7.606a7.4,7.4,0,0,1,7.121-5.378h19.415a7.4,7.4,0,0,1,7.121,5.377h7.326A7.4,7.4,0,0,1,551.875,0H571.29a7.4,7.4,0,0,1,7.4,7.351h7.045A7.4,7.4,0,0,1,593.138,0h19.415a7.4,7.4,0,0,1,7.4,7.351H734.72a5,5,0,0,1,5,5V46.317a5,5,0,0,1-5,5Z" transform="translate(938 -126.362)" fill="var(--HeroBorders, #233241)" />
        </g>
    </g>
</svg>