<svg xmlns="http://www.w3.org/2000/svg" width="1884" height="1824"><path d="M1792 1824h-112a2 2 0 01-2-2v-53a2 2 0 012-2h112a2 2 0 012 2v53a2 2 0 01-2 2zm-129 0h-112a2 2 0 01-2-2v-53a2 2 0 012-2h112a2 2 0 012 2v53a2 2 0 01-2 2zm-129 0h-113a2 2 0 01-2-2v-53a2 2 0 012-2h113a2 2 0 012 2v53a2 2 0 01-2 2zm-128 0h-114a2 2 0 01-2-2v-53a2 2 0 012-2h114a2 2 0 012 2v53a2 2 0 01-2 2zm-130 0h-112a2 2 0 01-2-2v-53a2 2 0 012-2h112a2 2 0 012 2v53a2 2 0 01-2 2zm-129 0h-112a2 2 0 01-2-2v-53a2 2 0 012-2h112a2 2 0 012 2v53a2 2 0 01-2 2zm-129 0H905a2 2 0 01-2-2v-53a2 2 0 012-2h113a2 2 0 012 2v53a2 2 0 01-2 2zm-130 0H776a2 2 0 01-2-2v-53a2 2 0 012-2h112a2 2 0 012 2v53a2 2 0 01-2 2zm-128 0H648a2 2 0 01-2-2v-53a2 2 0 012-2h112a2 2 0 012 2v53a2 2 0 01-2 2zm-129 0H518a2 2 0 01-2-2v-53a2 2 0 012-2h113a2 2 0 012 2v53a2 2 0 01-2 2zm-130 0H389a2 2 0 01-2-2v-53a2 2 0 012-2h112a2 2 0 012 2v53a2 2 0 01-2 2zm-128 0H261a2 2 0 01-2-2v-53a2 2 0 012-2h112a2 2 0 012 2v53a2 2 0 01-2 2zm-129 0H131a2 2 0 01-2-2v-53a2 2 0 012-2h113a2 2 0 012 2v53a2 2 0 01-2 2zm-130 0H2a2 2 0 01-2-2v-53a2 2 0 012-2h112a2 2 0 012 2v53a2 2 0 01-2 2zm1743-70h-113a2 2 0 01-2-2v-54a2 2 0 012-2h113a2 2 0 012 2v54a2 2 0 01-2 2zm-130 0h-112a2 2 0 01-2-2v-54a2 2 0 012-2h112a2 2 0 012 2v54a2 2 0 01-2 2zm-128 0h-113a2 2 0 01-2-2v-54a2 2 0 012-2h113a2 2 0 012 2v54a2 2 0 01-2 2zm-129 0h-113a2 2 0 01-2-2v-54a2 2 0 012-2h113a2 2 0 012 2v54a2 2 0 01-2 2zm-130 0h-112a2 2 0 01-2-2v-54a2 2 0 012-2h112a2 2 0 012 2v54a2 2 0 01-2 2zm-129 0h-112a2 2 0 01-2-2v-54a2 2 0 012-2h112a2 2 0 012 2v54a2 2 0 01-2 2zm-128 0H969a2 2 0 01-2-2v-54a2 2 0 012-2h114a2 2 0 012 2v54a2 2 0 01-2 2zm-130 0H841a2 2 0 01-2-2v-54a2 2 0 012-2h112a2 2 0 012 2v54a2 2 0 01-2 2zm-129 0H712a2 2 0 01-2-2v-54a2 2 0 012-2h112a2 2 0 012 2v54a2 2 0 01-2 2zm-129 0H582a2 2 0 01-2-2v-54a2 2 0 012-2h113a2 2 0 012 2v54a2 2 0 01-2 2zm-129 0H454a2 2 0 01-2-2v-54a2 2 0 012-2h112a2 2 0 012 2v54a2 2 0 01-2 2zm-129 0H325a2 2 0 01-2-2v-54a2 2 0 012-2h112a2 2 0 012 2v54a2 2 0 01-2 2zm-129 0H195a2 2 0 01-2-2v-54a2 2 0 012-2h113a2 2 0 012 2v54a2 2 0 01-2 2zm-128 0H66a2 2 0 01-2-2v-54a2 2 0 012-2h114a2 2 0 012 2v54a2 2 0 01-2 2zm1612-71h-112a2 2 0 01-2-2v-53a2 2 0 012-2h112a2 2 0 012 2v53a2 2 0 01-2 2zm-129 0h-112a2 2 0 01-2-2v-53a2 2 0 012-2h112a2 2 0 012 2v53a2 2 0 01-2 2zm-129 0h-113a2 2 0 01-2-2v-53a2 2 0 012-2h113a2 2 0 012 2v53a2 2 0 01-2 2zm-128 0h-114a2 2 0 01-2-2v-53a2 2 0 012-2h114a2 2 0 012 2v53a2 2 0 01-2 2zm-130 0h-112a2 2 0 01-2-2v-53a2 2 0 012-2h112a2 2 0 012 2v53a2 2 0 01-2 2zm-129 0h-112a2 2 0 01-2-2v-53a2 2 0 012-2h112a2 2 0 012 2v53a2 2 0 01-2 2zm-129 0H905a2 2 0 01-2-2v-53a2 2 0 012-2h113a2 2 0 012 2v53a2 2 0 01-2 2zm-130 0H776a2 2 0 01-2-2v-53a2 2 0 012-2h112a2 2 0 012 2v53a2 2 0 01-2 2zm-128 0H648a2 2 0 01-2-2v-53a2 2 0 012-2h112a2 2 0 012 2v53a2 2 0 01-2 2zm-129 0H518a2 2 0 01-2-2v-53a2 2 0 012-2h113a2 2 0 012 2v53a2 2 0 01-2 2zm-130 0H389a2 2 0 01-2-2v-53a2 2 0 012-2h112a2 2 0 012 2v53a2 2 0 01-2 2zm-128 0H261a2 2 0 01-2-2v-53a2 2 0 012-2h112a2 2 0 012 2v53a2 2 0 01-2 2zm-129 0H131a2 2 0 01-2-2v-53a2 2 0 012-2h113a2 2 0 012 2v53a2 2 0 01-2 2zm-130 0H2a2 2 0 01-2-2v-53a2 2 0 012-2h112a2 2 0 012 2v53a2 2 0 01-2 2zm1743-70h-113a2 2 0 01-2-2v-54a2 2 0 012-2h113a2 2 0 012 2v54a2 2 0 01-2 2zm-130 0h-112a2 2 0 01-2-2v-54a2 2 0 012-2h112a2 2 0 012 2v54a2 2 0 01-2 2zm-128 0h-113a2 2 0 01-2-2v-54a2 2 0 012-2h113a2 2 0 012 2v54a2 2 0 01-2 2zm-129 0h-113a2 2 0 01-2-2v-54a2 2 0 012-2h113a2 2 0 012 2v54a2 2 0 01-2 2zm-130 0h-112a2 2 0 01-2-2v-54a2 2 0 012-2h112a2 2 0 012 2v54a2 2 0 01-2 2zm-129 0h-112a2 2 0 01-2-2v-54a2 2 0 012-2h112a2 2 0 012 2v54a2 2 0 01-2 2zm-128 0H969a2 2 0 01-2-2v-54a2 2 0 012-2h114a2 2 0 012 2v54a2 2 0 01-2 2zm-130 0H841a2 2 0 01-2-2v-54a2 2 0 012-2h112a2 2 0 012 2v54a2 2 0 01-2 2zm-129 0H712a2 2 0 01-2-2v-54a2 2 0 012-2h112a2 2 0 012 2v54a2 2 0 01-2 2zm-129 0H582a2 2 0 01-2-2v-54a2 2 0 012-2h113a2 2 0 012 2v54a2 2 0 01-2 2zm-129 0H454a2 2 0 01-2-2v-54a2 2 0 012-2h112a2 2 0 012 2v54a2 2 0 01-2 2zm-129 0H325a2 2 0 01-2-2v-54a2 2 0 012-2h112a2 2 0 012 2v54a2 2 0 01-2 2zm-129 0H195a2 2 0 01-2-2v-54a2 2 0 012-2h113a2 2 0 012 2v54a2 2 0 01-2 2zm-128 0H66a2 2 0 01-2-2v-54a2 2 0 012-2h114a2 2 0 012 2v54a2 2 0 01-2 2zm1637-70h-112a2 2 0 01-2-2v-53a2 2 0 012-2h112a2 2 0 012 2v53a2 2 0 01-2 2zm-129 0h-112a2 2 0 01-2-2v-53a2 2 0 012-2h112a2 2 0 012 2v53a2 2 0 01-2 2zm-129 0h-113a2 2 0 01-2-2v-53a2 2 0 012-2h113a2 2 0 012 2v53a2 2 0 01-2 2zm-128 0h-114a2 2 0 01-2-2v-53a2 2 0 012-2h114a2 2 0 012 2v53a2 2 0 01-2 2zm-130 0h-112a2 2 0 01-2-2v-53a2 2 0 012-2h112a2 2 0 012 2v53a2 2 0 01-2 2zm-129 0h-112a2 2 0 01-2-2v-53a2 2 0 012-2h112a2 2 0 012 2v53a2 2 0 01-2 2zm-129 0H930a2 2 0 01-2-2v-53a2 2 0 012-2h113a2 2 0 012 2v53a2 2 0 01-2 2zm-130 0H801a2 2 0 01-2-2v-53a2 2 0 012-2h112a2 2 0 012 2v53a2 2 0 01-2 2zm-128 0H673a2 2 0 01-2-2v-53a2 2 0 012-2h112a2 2 0 012 2v53a2 2 0 01-2 2zm-129 0H543a2 2 0 01-2-2v-53a2 2 0 012-2h113a2 2 0 012 2v53a2 2 0 01-2 2zm-130 0H414a2 2 0 01-2-2v-53a2 2 0 012-2h112a2 2 0 012 2v53a2 2 0 01-2 2zm-128 0H286a2 2 0 01-2-2v-53a2 2 0 012-2h112a2 2 0 012 2v53a2 2 0 01-2 2zm-129 0H156a2 2 0 01-2-2v-53a2 2 0 012-2h113a2 2 0 012 2v53a2 2 0 01-2 2zm-130 0H27a2 2 0 01-2-2v-53a2 2 0 012-2h112a2 2 0 012 2v53a2 2 0 01-2 2zm1743-70h-113a2 2 0 01-2-2v-54a2 2 0 012-2h113a2 2 0 012 2v54a2 2 0 01-2 2zm-130 0h-112a2 2 0 01-2-2v-54a2 2 0 012-2h112a2 2 0 012 2v54a2 2 0 01-2 2zm-128 0h-113a2 2 0 01-2-2v-54a2 2 0 012-2h113a2 2 0 012 2v54a2 2 0 01-2 2zm-129 0h-113a2 2 0 01-2-2v-54a2 2 0 012-2h113a2 2 0 012 2v54a2 2 0 01-2 2zm-130 0h-112a2 2 0 01-2-2v-54a2 2 0 012-2h112a2 2 0 012 2v54a2 2 0 01-2 2zm-129 0h-112a2 2 0 01-2-2v-54a2 2 0 012-2h112a2 2 0 012 2v54a2 2 0 01-2 2zm-128 0H994a2 2 0 01-2-2v-54a2 2 0 012-2h114a2 2 0 012 2v54a2 2 0 01-2 2zm-130 0H866a2 2 0 01-2-2v-54a2 2 0 012-2h112a2 2 0 012 2v54a2 2 0 01-2 2zm-129 0H737a2 2 0 01-2-2v-54a2 2 0 012-2h112a2 2 0 012 2v54a2 2 0 01-2 2zm-129 0H607a2 2 0 01-2-2v-54a2 2 0 012-2h113a2 2 0 012 2v54a2 2 0 01-2 2zm-129 0H479a2 2 0 01-2-2v-54a2 2 0 012-2h112a2 2 0 012 2v54a2 2 0 01-2 2zm-129 0H350a2 2 0 01-2-2v-54a2 2 0 012-2h112a2 2 0 012 2v54a2 2 0 01-2 2zm-129 0H220a2 2 0 01-2-2v-54a2 2 0 012-2h113a2 2 0 012 2v54a2 2 0 01-2 2zm-128 0H91a2 2 0 01-2-2v-54a2 2 0 012-2h114a2 2 0 012 2v54a2 2 0 01-2 2zm1612-71h-112a2 2 0 01-2-2v-53a2 2 0 012-2h112a2 2 0 012 2v53a2 2 0 01-2 2zm-129 0h-112a2 2 0 01-2-2v-53a2 2 0 012-2h112a2 2 0 012 2v53a2 2 0 01-2 2zm-129 0h-113a2 2 0 01-2-2v-53a2 2 0 012-2h113a2 2 0 012 2v53a2 2 0 01-2 2zm-128 0h-114a2 2 0 01-2-2v-53a2 2 0 012-2h114a2 2 0 012 2v53a2 2 0 01-2 2zm-130 0h-112a2 2 0 01-2-2v-53a2 2 0 012-2h112a2 2 0 012 2v53a2 2 0 01-2 2zm-129 0h-112a2 2 0 01-2-2v-53a2 2 0 012-2h112a2 2 0 012 2v53a2 2 0 01-2 2zm-129 0H930a2 2 0 01-2-2v-53a2 2 0 012-2h113a2 2 0 012 2v53a2 2 0 01-2 2zm-130 0H801a2 2 0 01-2-2v-53a2 2 0 012-2h112a2 2 0 012 2v53a2 2 0 01-2 2zm-128 0H673a2 2 0 01-2-2v-53a2 2 0 012-2h112a2 2 0 012 2v53a2 2 0 01-2 2zm-129 0H543a2 2 0 01-2-2v-53a2 2 0 012-2h113a2 2 0 012 2v53a2 2 0 01-2 2zm-130 0H414a2 2 0 01-2-2v-53a2 2 0 012-2h112a2 2 0 012 2v53a2 2 0 01-2 2zm-128 0H286a2 2 0 01-2-2v-53a2 2 0 012-2h112a2 2 0 012 2v53a2 2 0 01-2 2zm-129 0H156a2 2 0 01-2-2v-53a2 2 0 012-2h113a2 2 0 012 2v53a2 2 0 01-2 2zm-130 0H27a2 2 0 01-2-2v-53a2 2 0 012-2h112a2 2 0 012 2v53a2 2 0 01-2 2zm1743-70h-113a2 2 0 01-2-2v-54a2 2 0 012-2h113a2 2 0 012 2v54a2 2 0 01-2 2zm-130 0h-112a2 2 0 01-2-2v-54a2 2 0 012-2h112a2 2 0 012 2v54a2 2 0 01-2 2zm-128 0h-113a2 2 0 01-2-2v-54a2 2 0 012-2h113a2 2 0 012 2v54a2 2 0 01-2 2zm-129 0h-113a2 2 0 01-2-2v-54a2 2 0 012-2h113a2 2 0 012 2v54a2 2 0 01-2 2zm-130 0h-112a2 2 0 01-2-2v-54a2 2 0 012-2h112a2 2 0 012 2v54a2 2 0 01-2 2zm-129 0h-112a2 2 0 01-2-2v-54a2 2 0 012-2h112a2 2 0 012 2v54a2 2 0 01-2 2zm-128 0H994a2 2 0 01-2-2v-54a2 2 0 012-2h114a2 2 0 012 2v54a2 2 0 01-2 2zm-130 0H866a2 2 0 01-2-2v-54a2 2 0 012-2h112a2 2 0 012 2v54a2 2 0 01-2 2zm-129 0H737a2 2 0 01-2-2v-54a2 2 0 012-2h112a2 2 0 012 2v54a2 2 0 01-2 2zm-129 0H607a2 2 0 01-2-2v-54a2 2 0 012-2h113a2 2 0 012 2v54a2 2 0 01-2 2zm-129 0H479a2 2 0 01-2-2v-54a2 2 0 012-2h112a2 2 0 012 2v54a2 2 0 01-2 2zm-129 0H350a2 2 0 01-2-2v-54a2 2 0 012-2h112a2 2 0 012 2v54a2 2 0 01-2 2zm-129 0H220a2 2 0 01-2-2v-54a2 2 0 012-2h113a2 2 0 012 2v54a2 2 0 01-2 2zm-128 0H91a2 2 0 01-2-2v-54a2 2 0 012-2h114a2 2 0 012 2v54a2 2 0 01-2 2zm1612-71h-112a2 2 0 01-2-2v-53a2 2 0 012-2h112a2 2 0 012 2v53a2 2 0 01-2 2zm-129 0h-112a2 2 0 01-2-2v-53a2 2 0 012-2h112a2 2 0 012 2v53a2 2 0 01-2 2zm-129 0h-113a2 2 0 01-2-2v-53a2 2 0 012-2h113a2 2 0 012 2v53a2 2 0 01-2 2zm-128 0h-114a2 2 0 01-2-2v-53a2 2 0 012-2h114a2 2 0 012 2v53a2 2 0 01-2 2zm-130 0h-112a2 2 0 01-2-2v-53a2 2 0 012-2h112a2 2 0 012 2v53a2 2 0 01-2 2zm-129 0h-112a2 2 0 01-2-2v-53a2 2 0 012-2h112a2 2 0 012 2v53a2 2 0 01-2 2zm-129 0H930a2 2 0 01-2-2v-53a2 2 0 012-2h113a2 2 0 012 2v53a2 2 0 01-2 2zm-130 0H801a2 2 0 01-2-2v-53a2 2 0 012-2h112a2 2 0 012 2v53a2 2 0 01-2 2zm-128 0H673a2 2 0 01-2-2v-53a2 2 0 012-2h112a2 2 0 012 2v53a2 2 0 01-2 2zm-129 0H543a2 2 0 01-2-2v-53a2 2 0 012-2h113a2 2 0 012 2v53a2 2 0 01-2 2zm-130 0H414a2 2 0 01-2-2v-53a2 2 0 012-2h112a2 2 0 012 2v53a2 2 0 01-2 2zm-128 0H286a2 2 0 01-2-2v-53a2 2 0 012-2h112a2 2 0 012 2v53a2 2 0 01-2 2zm-129 0H156a2 2 0 01-2-2v-53a2 2 0 012-2h113a2 2 0 012 2v53a2 2 0 01-2 2zm-130 0H27a2 2 0 01-2-2v-53a2 2 0 012-2h112a2 2 0 012 2v53a2 2 0 01-2 2zm1743-70h-113a2 2 0 01-2-2v-54a2 2 0 012-2h113a2 2 0 012 2v54a2 2 0 01-2 2zm-130 0h-112a2 2 0 01-2-2v-54a2 2 0 012-2h112a2 2 0 012 2v54a2 2 0 01-2 2zm-128 0h-113a2 2 0 01-2-2v-54a2 2 0 012-2h113a2 2 0 012 2v54a2 2 0 01-2 2zm-129 0h-113a2 2 0 01-2-2v-54a2 2 0 012-2h113a2 2 0 012 2v54a2 2 0 01-2 2zm-130 0h-112a2 2 0 01-2-2v-54a2 2 0 012-2h112a2 2 0 012 2v54a2 2 0 01-2 2zm-129 0h-112a2 2 0 01-2-2v-54a2 2 0 012-2h112a2 2 0 012 2v54a2 2 0 01-2 2zm-128 0H994a2 2 0 01-2-2v-54a2 2 0 012-2h114a2 2 0 012 2v54a2 2 0 01-2 2zm-130 0H866a2 2 0 01-2-2v-54a2 2 0 012-2h112a2 2 0 012 2v54a2 2 0 01-2 2zm-129 0H737a2 2 0 01-2-2v-54a2 2 0 012-2h112a2 2 0 012 2v54a2 2 0 01-2 2zm-129 0H607a2 2 0 01-2-2v-54a2 2 0 012-2h113a2 2 0 012 2v54a2 2 0 01-2 2zm-129 0H479a2 2 0 01-2-2v-54a2 2 0 012-2h112a2 2 0 012 2v54a2 2 0 01-2 2zm-129 0H350a2 2 0 01-2-2v-54a2 2 0 012-2h112a2 2 0 012 2v54a2 2 0 01-2 2zm-129 0H220a2 2 0 01-2-2v-54a2 2 0 012-2h113a2 2 0 012 2v54a2 2 0 01-2 2zm-128 0H91a2 2 0 01-2-2v-54a2 2 0 012-2h114a2 2 0 012 2v54a2 2 0 01-2 2zm1612-71h-112a2 2 0 01-2-2v-53a2 2 0 012-2h112a2 2 0 012 2v53a2 2 0 01-2 2zm-129 0h-112a2 2 0 01-2-2v-53a2 2 0 012-2h112a2 2 0 012 2v53a2 2 0 01-2 2zm-129 0h-113a2 2 0 01-2-2v-53a2 2 0 012-2h113a2 2 0 012 2v53a2 2 0 01-2 2zm-128 0h-114a2 2 0 01-2-2v-53a2 2 0 012-2h114a2 2 0 012 2v53a2 2 0 01-2 2zm-130 0h-112a2 2 0 01-2-2v-53a2 2 0 012-2h112a2 2 0 012 2v53a2 2 0 01-2 2zm-129 0h-112a2 2 0 01-2-2v-53a2 2 0 012-2h112a2 2 0 012 2v53a2 2 0 01-2 2zm-129 0H930a2 2 0 01-2-2v-53a2 2 0 012-2h113a2 2 0 012 2v53a2 2 0 01-2 2zm-130 0H801a2 2 0 01-2-2v-53a2 2 0 012-2h112a2 2 0 012 2v53a2 2 0 01-2 2zm-128 0H673a2 2 0 01-2-2v-53a2 2 0 012-2h112a2 2 0 012 2v53a2 2 0 01-2 2zm-129 0H543a2 2 0 01-2-2v-53a2 2 0 012-2h113a2 2 0 012 2v53a2 2 0 01-2 2zm-130 0H414a2 2 0 01-2-2v-53a2 2 0 012-2h112a2 2 0 012 2v53a2 2 0 01-2 2zm-128 0H286a2 2 0 01-2-2v-53a2 2 0 012-2h112a2 2 0 012 2v53a2 2 0 01-2 2zm-129 0H156a2 2 0 01-2-2v-53a2 2 0 012-2h113a2 2 0 012 2v53a2 2 0 01-2 2zm-130 0H27a2 2 0 01-2-2v-53a2 2 0 012-2h112a2 2 0 012 2v53a2 2 0 01-2 2zm1743-70h-113a2 2 0 01-2-2v-54a2 2 0 012-2h113a2 2 0 012 2v54a2 2 0 01-2 2zm-130 0h-112a2 2 0 01-2-2v-54a2 2 0 012-2h112a2 2 0 012 2v54a2 2 0 01-2 2zm-128 0h-113a2 2 0 01-2-2v-54a2 2 0 012-2h113a2 2 0 012 2v54a2 2 0 01-2 2zm-129 0h-113a2 2 0 01-2-2v-54a2 2 0 012-2h113a2 2 0 012 2v54a2 2 0 01-2 2zm-130 0h-112a2 2 0 01-2-2v-54a2 2 0 012-2h112a2 2 0 012 2v54a2 2 0 01-2 2zm-129 0h-112a2 2 0 01-2-2v-54a2 2 0 012-2h112a2 2 0 012 2v54a2 2 0 01-2 2zm-128 0H994a2 2 0 01-2-2v-54a2 2 0 012-2h114a2 2 0 012 2v54a2 2 0 01-2 2zm-130 0H866a2 2 0 01-2-2v-54a2 2 0 012-2h112a2 2 0 012 2v54a2 2 0 01-2 2zm-129 0H737a2 2 0 01-2-2v-54a2 2 0 012-2h112a2 2 0 012 2v54a2 2 0 01-2 2zm-129 0H607a2 2 0 01-2-2v-54a2 2 0 012-2h113a2 2 0 012 2v54a2 2 0 01-2 2zm-129 0H479a2 2 0 01-2-2v-54a2 2 0 012-2h112a2 2 0 012 2v54a2 2 0 01-2 2zm-129 0H350a2 2 0 01-2-2v-54a2 2 0 012-2h112a2 2 0 012 2v54a2 2 0 01-2 2zm-129 0H220a2 2 0 01-2-2v-54a2 2 0 012-2h113a2 2 0 012 2v54a2 2 0 01-2 2zm-128 0H91a2 2 0 01-2-2v-54a2 2 0 012-2h114a2 2 0 012 2v54a2 2 0 01-2 2zm1612-71h-112a2 2 0 01-2-2v-55a2 2 0 012-2h112a2 2 0 012 2v55a2 2 0 01-2 2zm-129 0h-112a2 2 0 01-2-2v-55a2 2 0 012-2h112a2 2 0 012 2v55a2 2 0 01-2 2zm-129 0h-113a2 2 0 01-2-2v-55a2 2 0 012-2h113a2 2 0 012 2v55a2 2 0 01-2 2zm-128 0h-114a2 2 0 01-2-2v-55a2 2 0 012-2h114a2 2 0 012 2v55a2 2 0 01-2 2zm-130 0h-112a2 2 0 01-2-2v-55a2 2 0 012-2h112a2 2 0 012 2v55a2 2 0 01-2 2zm-129 0h-112a2 2 0 01-2-2v-55a2 2 0 012-2h112a2 2 0 012 2v55a2 2 0 01-2 2zm-129 0H930a2 2 0 01-2-2v-55a2 2 0 012-2h113a2 2 0 012 2v55a2 2 0 01-2 2zm-130 0H801a2 2 0 01-2-2v-55a2 2 0 012-2h112a2 2 0 012 2v55a2 2 0 01-2 2zm-128 0H673a2 2 0 01-2-2v-55a2 2 0 012-2h112a2 2 0 012 2v55a2 2 0 01-2 2zm-129 0H543a2 2 0 01-2-2v-55a2 2 0 012-2h113a2 2 0 012 2v55a2 2 0 01-2 2zm-130 0H414a2 2 0 01-2-2v-55a2 2 0 012-2h112a2 2 0 012 2v55a2 2 0 01-2 2zm-128 0H286a2 2 0 01-2-2v-55a2 2 0 012-2h112a2 2 0 012 2v55a2 2 0 01-2 2zm-129 0H156a2 2 0 01-2-2v-55a2 2 0 012-2h113a2 2 0 012 2v55a2 2 0 01-2 2zm-130 0H27a2 2 0 01-2-2v-55a2 2 0 012-2h112a2 2 0 012 2v55a2 2 0 01-2 2zm516-71h-48a2 2 0 01-2-2v-54a2 2 0 012-2h48v58zm1227 0h-31v-58h31a2 2 0 012 2v54a2 2 0 01-2 2zm-387 0h-113a2 2 0 01-2-2v-54a2 2 0 012-2h113a2 2 0 011 .268v57.464a2 2 0 01-1 .268zm-130 0h-112a2 2 0 01-2-2v-54a2 2 0 012-2h112a2 2 0 012 2v54a2 2 0 01-2 2zm-129 0h-112a2 2 0 01-2-2v-54a2 2 0 012-2h112a2 2 0 012 2v54a2 2 0 01-2 2zm-128 0h-98v-58h98a2 2 0 012 2v54a2 2 0 01-2 2zm-517 0H479a2 2 0 01-2-2v-54a2 2 0 012-2h112a2 2 0 012 2v54a2 2 0 01-2 2zm-129 0H350a2 2 0 01-2-2v-54a2 2 0 012-2h112a2 2 0 012 2v54a2 2 0 01-2 2zm-129 0H220a2 2 0 01-2-2v-54a2 2 0 012-2h113a2 2 0 012 2v54a2 2 0 01-2 2zm-128 0H91a2 2 0 01-2-2v-54a2 2 0 012-2h114a2 2 0 012 2v54a2 2 0 01-2 2zm1291-70h-50a2 2 0 01-2-2v-55a2 2 0 012-2h50v59zm-841 0H543a2 2 0 01-2-2v-55a2 2 0 012-2h112v59zm776 0h-114a2 2 0 01-2-2v-55a2 2 0 012-2h114a2 2 0 012 2v55a2 2 0 01-2 2zm-130 0h-112a2 2 0 01-2-2v-55a2 2 0 012-2h112a2 2 0 012 2v55a2 2 0 01-2 2zm-129 0h-112a2 2 0 01-2-2v-55a2 2 0 012-2h112a2 2 0 012 2v55a2 2 0 01-2 2zm-129 0h-33v-59h33a2 2 0 012 2v55a2 2 0 01-2 2zm-517 0H414a2 2 0 01-2-2v-55a2 2 0 012-2h112a2 2 0 012 2v55a2 2 0 01-2 2zm-128 0H286a2 2 0 01-2-2v-55a2 2 0 012-2h112a2 2 0 012 2v55a2 2 0 01-2 2zm-129 0H156a2 2 0 01-2-2v-55a2 2 0 012-2h113a2 2 0 012 2v55a2 2 0 01-2 2zm-130 0H27a2 2 0 01-2-2v-55a2 2 0 012-2h112a2 2 0 012 2v55a2 2 0 01-2 2zm516-72h-48a2 2 0 01-2-2v-54a2 2 0 012-2h48v58zm1227 0h-31v-58h31a2 2 0 012 2v54a2 2 0 01-2 2zm-387 0h-113a2 2 0 01-2-2v-54a2 2 0 012-2h113a2 2 0 011 .268v57.464a2 2 0 01-1 .268zm-130 0h-112a2 2 0 01-2-2v-54a2 2 0 012-2h112a2 2 0 012 2v54a2 2 0 01-2 2zm-129 0h-112a2 2 0 01-2-2v-54a2 2 0 012-2h112a2 2 0 012 2v54a2 2 0 01-2 2zm-128 0h-98v-58h98a2 2 0 012 2v54a2 2 0 01-2 2zm-517 0H479a2 2 0 01-2-2v-54a2 2 0 012-2h112a2 2 0 012 2v54a2 2 0 01-2 2zm-129 0H350a2 2 0 01-2-2v-54a2 2 0 012-2h112a2 2 0 012 2v54a2 2 0 01-2 2zm-129 0H220a2 2 0 01-2-2v-54a2 2 0 012-2h113a2 2 0 012 2v54a2 2 0 01-2 2zm-128 0H91a2 2 0 01-2-2v-54a2 2 0 012-2h114a2 2 0 012 2v54a2 2 0 01-2 2zm1291-71h-50a2 2 0 01-2-2v-53a2 2 0 012-2h50v57zm-841 0H543a2 2 0 01-2-2v-53a2 2 0 012-2h112v57zm776 0h-114a2 2 0 01-2-2v-53a2 2 0 012-2h114a2 2 0 012 2v53a2 2 0 01-2 2zm-130 0h-112a2 2 0 01-2-2v-53a2 2 0 012-2h112a2 2 0 012 2v53a2 2 0 01-2 2zm-129 0h-112a2 2 0 01-2-2v-53a2 2 0 012-2h112a2 2 0 012 2v53a2 2 0 01-2 2zm-129 0h-33v-57h33a2 2 0 012 2v53a2 2 0 01-2 2zm-517 0H414a2 2 0 01-2-2v-53a2 2 0 012-2h112a2 2 0 012 2v53a2 2 0 01-2 2zm-128 0H286a2 2 0 01-2-2v-53a2 2 0 012-2h112a2 2 0 012 2v53a2 2 0 01-2 2zm-129 0H156a2 2 0 01-2-2v-53a2 2 0 012-2h113a2 2 0 012 2v53a2 2 0 01-2 2zm-130 0H27a2 2 0 01-2-2v-53a2 2 0 012-2h112a2 2 0 012 2v53a2 2 0 01-2 2zm516-70h-48a2 2 0 01-2-2v-55a1.991 1.991 0 011.941-2H655v59zm1227 0h-31v-59h31a2 2 0 012 2v55a2 2 0 01-2 2zm-387 0h-113a2 2 0 01-2-2v-55a2 2 0 012-2h113a2 2 0 011 .268v58.465a2 2 0 01-1 .267zm-130 0h-112a2 2 0 01-2-2v-55a2 2 0 012-2h112a2 2 0 012 2v55a2 2 0 01-2 2zm-129 0h-112a2 2 0 01-2-2v-55a2 2 0 012-2h112a2 2 0 012 2v55a2 2 0 01-2 2zm-128 0h-98v-59h98a2 2 0 012 2v55a2 2 0 01-2 2zm-517 0H479a2 2 0 01-2-2v-55a1.99 1.99 0 011.94-2h112.12a1.99 1.99 0 011.94 2v55a2 2 0 01-2 2zm-129 0H350a2 2 0 01-2-2v-55a1.99 1.99 0 011.94-2h112.12a1.99 1.99 0 011.94 2v55a2 2 0 01-2 2zm-129 0H220a2 2 0 01-2-2v-55a2 2 0 012-2h113.06a1.99 1.99 0 011.94 2v55a2 2 0 01-2 2zm-128 0H91a2 2 0 01-2-2v-55a2 2 0 012-2h114a2 2 0 012 2v55a2 2 0 01-2 2zm1291-71h-50a2 2 0 01-2-2v-55a2 2 0 012-2h50v59zm-841 0h-34v-59h34v59zm-390 0H156a2 2 0 01-2-2v-55a2 2 0 012-2h109v59zm1166 0h-32v-59h32a2 2 0 012 2v55a2 2 0 01-2 2zm-388 0h-33v-59h33a2 2 0 011 .268v58.465a2 2 0 01-1 .267zm-904 0H27a2 2 0 01-2-2v-55a2 2 0 012-2h112a2 2 0 012 2v55a2 2 0 01-2 2zm905-70h-34v-1h-17.732a2 2 0 01-.268-1v-55a2 2 0 012-2h50v59zm-779 0h-45a2 2 0 01-2-2v-55a2 2 0 012-2h45v59zm1617 0h-113a2 2 0 01-2-2v-55a2 2 0 012-2h113a2 2 0 012 2v55a2 2 0 01-2 2zm-130 0h-112a2 2 0 01-2-2v-55a2 2 0 012-2h112a2 2 0 012 2v55a2 2 0 01-2 2zm-128 0h-113a2 2 0 01-2-2v-55a2 2 0 012-2h113a2 2 0 012 2v55a2 2 0 01-2 2zm-129 0h-96v-59h96a2 2 0 012 2v55a2 2 0 01-2 2zm-840 0h-34v-59h99a2 2 0 012 2v55a2 2 0 01-.268 1H655v1zm-450 0H91a2 2 0 01-2-2v-55a2 2 0 012-2h114a2 2 0 012 2v55a2 2 0 01-2 2zm774.732-1H864.268a2 2 0 01-.268-1v-55a2 2 0 012-2h112a2 2 0 012 2v55a1.994 1.994 0 01-.268 1zm-129 0H735.268a2 2 0 01-.268-1v-55a2 2 0 012-2h112a2 2 0 012 2v55a2 2 0 01-.268 1zM265 412H156a2 2 0 01-2-2v-54a2 2 0 012-2h109v58zm1552 0h-112a2 2 0 01-2-2v-54a2 2 0 012-2h112a2 2 0 012 2v54a2 2 0 01-2 2zm-129 0h-112a2 2 0 01-2-2v-54a2 2 0 012-2h112a2 2 0 012 2v54a2 2 0 01-2 2zm-129 0h-113a2 2 0 01-2-2v-54a2 2 0 012-2h113a2 2 0 012 2v54a2 2 0 01-2 2zm-128 0h-32v-58h32a2 2 0 012 2v54a2 2 0 01-2 2zm-388 0H930a2 2 0 01-2-2v-54a2 2 0 012-2h113a2 2 0 011 .268v57.465a2 2 0 01-1 .267zm-130 0H801a2 2 0 01-2-2v-54a2 2 0 012-2h112a2 2 0 012 2v54a2 2 0 01-2 2zm-128 0H673a2 2 0 01-2-2v-54a2 2 0 012-2h112a2 2 0 012 2v54a2 2 0 01-2 2zm-129 0h-35v-58h35a2 2 0 012 2v54a2 2 0 01-2 2zm-517 0H27a2 2 0 01-2-2v-54a2 2 0 012-2h112a2 2 0 012 2v54a2 2 0 01-2 2zm905-71h-50a2 2 0 01-2-2v-53a2 2 0 012-2h50v57zm-779 0h-45a2 2 0 01-2-2v-53a2 2 0 012-2h45v57zm1617 0h-113a2 2 0 01-2-2v-53a2 2 0 012-2h113a2 2 0 012 2v53a2 2 0 01-2 2zm-130 0h-112a2 2 0 01-2-2v-53a2 2 0 012-2h112a2 2 0 012 2v53a2 2 0 01-2 2zm-128 0h-113a2 2 0 01-2-2v-53a2 2 0 012-2h113a2 2 0 012 2v53a2 2 0 01-2 2zm-129 0h-96v-57h96a2 2 0 012 2v53a2 2 0 01-2 2zm-517 0H866a2 2 0 01-2-2v-53a2 2 0 012-2h112a2 2 0 012 2v53a2 2 0 01-2 2zm-129 0H737a2 2 0 01-2-2v-53a2 2 0 012-2h112a2 2 0 012 2v53a2 2 0 01-2 2zm-129 0h-99v-57h99a2 2 0 012 2v53a2 2 0 01-2 2zm-515 0H91a2 2 0 01-2-2v-53a2 2 0 012-2h114a2 2 0 012 2v53a2 2 0 01-2 2zm60-70H156a2 2 0 01-2-2v-54a2 2 0 012-2h109v58zm1552 0h-112a2 2 0 01-2-2v-54a2 2 0 012-2h112a2 2 0 012 2v54a2 2 0 01-2 2zm-129 0h-112a2 2 0 01-2-2v-54a2 2 0 012-2h112a2 2 0 012 2v54a2 2 0 01-2 2zm-129 0h-113a2 2 0 01-2-2v-54a2 2 0 012-2h113a2 2 0 012 2v54a2 2 0 01-2 2zm-128 0h-32v-58h32a2 2 0 012 2v54a2 2 0 01-2 2zm-388 0H930a2 2 0 01-2-2v-54a2 2 0 012-2h113a2 2 0 011 .268v57.465a2 2 0 01-1 .267zm-130 0H801a2 2 0 01-2-2v-54a2 2 0 012-2h112a2 2 0 012 2v54a2 2 0 01-2 2zm-128 0H673a2 2 0 01-2-2v-54a2 2 0 012-2h112a2 2 0 012 2v54a2 2 0 01-2 2zm-129 0h-35v-58h35a2 2 0 012 2v54a2 2 0 01-2 2zm-517 0H27a2 2 0 01-2-2v-54a2 2 0 012-2h112a2 2 0 012 2v54a2 2 0 01-2 2zm905-71h-50a2 2 0 01-2-2v-55a2 2 0 012-2h50v59zm-779 0h-45a2 2 0 01-2-2v-55a2 2 0 012-2h45v59zm1617 0h-113a2 2 0 01-2-2v-55a2 2 0 012-2h113a2 2 0 012 2v55a2 2 0 01-2 2zm-130 0h-112a2 2 0 01-2-2v-55a2 2 0 012-2h112a2 2 0 012 2v55a2 2 0 01-2 2zm-128 0h-113a2 2 0 01-2-2v-55a2 2 0 012-2h113a2 2 0 012 2v55a2 2 0 01-2 2zm-129 0h-96v-59h96a2 2 0 012 2v55a2 2 0 01-2 2zm-517 0H866a2 2 0 01-2-2v-55a2 2 0 012-2h112a2 2 0 012 2v55a2 2 0 01-2 2zm-129 0H737a2 2 0 01-2-2v-55a2 2 0 012-2h112a2 2 0 012 2v55a2 2 0 01-2 2zm-129 0h-99v-59h99a2 2 0 012 2v55a2 2 0 01-2 2zm-515 0H91a2 2 0 01-2-2v-55a2 2 0 012-2h114a2 2 0 012 2v55a2 2 0 01-2 2zm1612-71h-112a2 2 0 01-2-2V73a2 2 0 012-2h112a2 2 0 012 2v54a2 2 0 01-2 2zm-129 0h-112a2 2 0 01-2-2V73a2 2 0 012-2h112a2 2 0 012 2v54a2 2 0 01-2 2zm-129 0h-113a2 2 0 01-2-2V73a2 2 0 012-2h113a2 2 0 012 2v54a2 2 0 01-2 2zm-128 0h-114a2 2 0 01-2-2V73a2 2 0 012-2h114a2 2 0 012 2v54a2 2 0 01-2 2zm-130 0h-112a2 2 0 01-2-2V73a2 2 0 012-2h112a2 2 0 012 2v54a2 2 0 01-2 2zm-129 0h-112a2 2 0 01-2-2V73a2 2 0 012-2h112a2 2 0 012 2v54a2 2 0 01-2 2zm-129 0H930a2 2 0 01-2-2V73a2 2 0 012-2h113a2 2 0 012 2v54a2 2 0 01-2 2zm-130 0H801a2 2 0 01-2-2V73a2 2 0 012-2h112a2 2 0 012 2v54a2 2 0 01-2 2zm-128 0H673a2 2 0 01-2-2V73a2 2 0 012-2h112a2 2 0 012 2v54a2 2 0 01-2 2zm-129 0H543a2 2 0 01-2-2V73a2 2 0 012-2h113a2 2 0 012 2v54a2 2 0 01-2 2zm-130 0H414a2 2 0 01-2-2V73a2 2 0 012-2h112a2 2 0 012 2v54a2 2 0 01-2 2zm-128 0H286a2 2 0 01-2-2V73a2 2 0 012-2h112a2 2 0 012 2v54a2 2 0 01-2 2zm-129 0H156a2 2 0 01-2-2V73a2 2 0 012-2h113a2 2 0 012 2v54a2 2 0 01-2 2zm-130 0H27a2 2 0 01-2-2V73a2 2 0 012-2h112a2 2 0 012 2v54a2 2 0 01-2 2zm1743-70h-113a2 2 0 01-2-2V2a2 2 0 012-2h113a2 2 0 012 2v55a2 2 0 01-2 2zm-130 0h-112a2 2 0 01-2-2V2a2 2 0 012-2h112a2 2 0 012 2v55a2 2 0 01-2 2zm-128 0h-113a2 2 0 01-2-2V2a2 2 0 012-2h113a2 2 0 012 2v55a2 2 0 01-2 2zm-129 0h-113a2 2 0 01-2-2V2a2 2 0 012-2h113a2 2 0 012 2v55a2 2 0 01-2 2zm-130 0h-112a2 2 0 01-2-2V2a2 2 0 012-2h112a2 2 0 012 2v55a2 2 0 01-2 2zm-129 0h-112a2 2 0 01-2-2V2a2 2 0 012-2h112a2 2 0 012 2v55a2 2 0 01-2 2zm-128 0H994a2 2 0 01-2-2V2a2 2 0 012-2h114a2 2 0 012 2v55a2 2 0 01-2 2zm-130 0H866a2 2 0 01-2-2V2a2 2 0 012-2h112a2 2 0 012 2v55a2 2 0 01-2 2zm-129 0H737a2 2 0 01-2-2V2a2 2 0 012-2h112a2 2 0 012 2v55a2 2 0 01-2 2zm-129 0H607a2 2 0 01-2-2V2a2 2 0 012-2h113a2 2 0 012 2v55a2 2 0 01-2 2zm-129 0H479a2 2 0 01-2-2V2a2 2 0 012-2h112a2 2 0 012 2v55a2 2 0 01-2 2zm-129 0H350a2 2 0 01-2-2V2a2 2 0 012-2h112a2 2 0 012 2v55a2 2 0 01-2 2zm-129 0H220a2 2 0 01-2-2V2a2 2 0 012-2h113a2 2 0 012 2v55a2 2 0 01-2 2zm-128 0H91a2 2 0 01-2-2V2a2 2 0 012-2h114a2 2 0 012 2v55a2 2 0 01-2 2zM1831 904.001h-316a8.009 8.009 0 01-8-8v-392a8.009 8.009 0 018-8h316a8.009 8.009 0 018 8v392a8.009 8.009 0 01-8 8zm-303-50a8.009 8.009 0 00-8 8v18a8.009 8.009 0 008 8h289a8.009 8.009 0 008-8v-18a8.009 8.009 0 00-8-8zm175.4-20.2a4.41 4.41 0 000 8.82h73.335a4.41 4.41 0 100-8.82zm-34.9-36.09a20.832 20.832 0 108.134 1.642 20.766 20.766 0 00-8.134-1.639zm34.661 20.541a4.41 4.41 0 000 8.821h111.39a4.41 4.41 0 000-8.821zm.326-15.628a4.41 4.41 0 000 8.82h98.285a4.41 4.41 0 100-8.82zm-74.987-21.623a3.5 3.5 0 000 7h88a3.5 3.5 0 000-7zm-51.317-124.242a12.824 12.824 0 00-12.825 12.825v96.187a12.826 12.826 0 0012.825 12.825h190.769a12.824 12.824 0 0012.825-12.825v-96.187a12.823 12.823 0 00-12.825-12.825zM1537 640.001a4 4 0 100 8h234a4 4 0 100-8zm-.5-14a3.5 3.5 0 100 7h255a3.5 3.5 0 000-7zm2.5-41a6 6 0 100 12h82a6 6 0 000-12zm0-17a6 6 0 100 12h197a6 6 0 100-12zm-1-17a5 5 0 100 10h245a5 5 0 000-10zm272.039-46.866a12.7 12.7 0 108.98 3.72 12.617 12.617 0 00-8.98-3.72zm-109.539 6.866a6.5 6.5 0 000 13h82a6.5 6.5 0 000-13zm-47.913 229.46a4.009 4.009 0 01-4-4.006v-36.554a4.01 4.01 0 014-4.006 3.947 3.947 0 011.833.453l35.38 18.276a4 4 0 010 7.107l-35.379 18.279a3.962 3.962 0 01-1.835.452zM992 909H676a8.009 8.009 0 01-8-8V509a8.009 8.009 0 018-8h316a8.009 8.009 0 018 8v392a8.009 8.009 0 01-8 8zm-302-50a8.009 8.009 0 00-8 8v19a8.009 8.009 0 008 8h289a8.009 8.009 0 008-8v-19a8.009 8.009 0 00-8-8zm175.426-20.021a4.415 4.415 0 00-4.41 4.41 4.415 4.415 0 004.41 4.411h73.335a4.416 4.416 0 004.411-4.411 4.415 4.415 0 00-4.411-4.41zm-34.9-36.089a20.768 20.768 0 00-8.134 1.642 20.828 20.828 0 00-6.642 4.478 20.828 20.828 0 00-4.478 6.642 20.768 20.768 0 00-1.642 8.134 20.768 20.768 0 001.642 8.134 20.829 20.829 0 004.478 6.642 20.828 20.828 0 006.642 4.479 20.766 20.766 0 008.134 1.642 20.765 20.765 0 008.134-1.642 20.829 20.829 0 006.642-4.479 20.828 20.828 0 004.479-6.642 20.765 20.765 0 001.642-8.134 20.766 20.766 0 00-1.642-8.134 20.827 20.827 0 00-4.479-6.642 20.829 20.829 0 00-6.642-4.478 20.767 20.767 0 00-8.132-1.642zm34.661 20.541a4.415 4.415 0 00-4.41 4.41 4.415 4.415 0 004.41 4.41h111.389a4.415 4.415 0 004.41-4.41 4.415 4.415 0 00-4.41-4.41zm.326-15.629a4.415 4.415 0 00-4.41 4.411 4.415 4.415 0 004.41 4.41H963.8a4.415 4.415 0 004.41-4.41 4.415 4.415 0 00-4.41-4.411zM790 784a3 3 0 00-3 3 3 3 0 003 3h89a3 3 0 003-3 3 3 0 00-3-3zm-50.79-129.936a12.737 12.737 0 00-9.068 3.757 12.738 12.738 0 00-3.757 9.068v96.187a12.737 12.737 0 003.757 9.068 12.737 12.737 0 009.068 3.757h190.77a12.738 12.738 0 009.068-3.757 12.736 12.736 0 003.757-9.068V666.89a12.738 12.738 0 00-3.757-9.068 12.738 12.738 0 00-9.068-3.757zM699 631a4 4 0 00-4 4 4 4 0 004 4h254a4 4 0 004-4 4 4 0 00-4-4zm1.5-22a5.506 5.506 0 00-5.5 5.5 5.507 5.507 0 005.5 5.5h281a5.507 5.507 0 005.5-5.5 5.506 5.506 0 00-5.5-5.5zm0-53a5.507 5.507 0 00-5.5 5.5 5.506 5.506 0 005.5 5.5h244a5.506 5.506 0 005.5-5.5 5.507 5.507 0 00-5.5-5.5zm271.567-46.69a12.617 12.617 0 00-8.98 3.72 12.617 12.617 0 00-3.72 8.98 12.617 12.617 0 003.72 8.98 12.617 12.617 0 008.98 3.72 12.616 12.616 0 008.98-3.72 12.617 12.617 0 003.719-8.98 12.617 12.617 0 00-3.719-8.98 12.616 12.616 0 00-8.981-3.72zM862.5 516a6.507 6.507 0 00-6.5 6.5 6.507 6.507 0 006.5 6.5h83a6.507 6.507 0 006.5-6.5 6.507 6.507 0 00-6.5-6.5zm-33.992 246.087a42.225 42.225 0 01-16.4-3.321 44.406 44.406 0 01-13.7-9.034 44.318 44.318 0 01-9.527-13.358 42.087 42.087 0 01-3.893-16.292A43.389 43.389 0 01787.463 704a43.244 43.244 0 017.814-13.54 43.486 43.486 0 0127.073-14.941 2.739 2.739 0 01.382-.027 2.785 2.785 0 012.008.869 2.956 2.956 0 01.845 2.07v43.032l28.264 28.266a2.956 2.956 0 01.856 2.344 2.751 2.751 0 01-1.14 2.023 43.144 43.144 0 01-24.529 7.984h-.027c-.171.006-.335.007-.502.007zM868.41 751a3 3 0 01-2.108-.872l-28.658-28.658h43.031a2.975 2.975 0 012.245 1.028 2.742 2.742 0 01.668 2.209 43.124 43.124 0 01-4.53 14.05 43.608 43.608 0 01-8.732 11.495 2.776 2.776 0 01-1.916.748zm6.459-38.235h-40.58v-40.577a2.94 2.94 0 012.857-2.944c.068 0 .132 0 .19.006a43.273 43.273 0 0115.252 3.907 43.573 43.573 0 0112.546 8.764 43.561 43.561 0 018.763 12.545 43.273 43.273 0 013.908 15.252 2.767 2.767 0 01-.759 2.1 2.99 2.99 0 01-2.177.944zM1380 555.001h-316a8.009 8.009 0 01-8-8v-399a8.009 8.009 0 018-8h316a8.009 8.009 0 018 8v399a8.009 8.009 0 01-8 8zm-302-49a8.01 8.01 0 00-8 8v18a8.009 8.009 0 008 8h286a8.008 8.008 0 008-8v-18a8.009 8.009 0 00-8-8zm177.055-23.793a4.432 4.432 0 00-4.426 4.427 4.431 4.431 0 004.426 4.425h73.6a4.431 4.431 0 004.426-4.425 4.432 4.432 0 00-4.426-4.427zm-35.025-36.222a20.842 20.842 0 00-8.164 1.648 20.9 20.9 0 00-6.667 4.495 20.9 20.9 0 00-4.495 6.667 20.843 20.843 0 00-1.648 8.164 20.843 20.843 0 001.648 8.164 20.9 20.9 0 004.495 6.666 20.9 20.9 0 006.667 4.494 20.845 20.845 0 008.164 1.648 20.842 20.842 0 008.164-1.648 20.9 20.9 0 006.666-4.494 20.9 20.9 0 004.495-6.666 20.843 20.843 0 001.648-8.164 20.843 20.843 0 00-1.648-8.164 20.906 20.906 0 00-4.495-6.667 20.9 20.9 0 00-6.666-4.495 20.84 20.84 0 00-8.164-1.648zm34.788 20.615a4.433 4.433 0 00-4.427 4.428 4.431 4.431 0 004.427 4.425h111.8a4.431 4.431 0 004.426-4.425 4.432 4.432 0 00-4.426-4.428zm.326-15.686a4.431 4.431 0 00-4.426 4.426 4.432 4.432 0 004.426 4.427h98.644a4.432 4.432 0 004.426-4.427 4.431 4.431 0 00-4.426-4.426zm-179.142-25.917a6.007 6.007 0 00-6 6 6.007 6.007 0 006 6h97a6.007 6.007 0 006-6 6.007 6.007 0 00-6-6zm-2-14a4 4 0 00-4 4 4 4 0 004 4h237a4 4 0 004-4 4 4 0 00-4-4zm.5-20a4.505 4.505 0 00-4.5 4.5 4.505 4.505 0 004.5 4.5h254a4.505 4.505 0 004.5-4.5 4.505 4.505 0 00-4.5-4.5zm1.5-21a6.007 6.007 0 00-6 6 6.007 6.007 0 006 6h280a6.006 6.006 0 006-6 6.007 6.007 0 00-6-6zm.5-20a6.507 6.507 0 00-6.5 6.5 6.507 6.507 0 006.5 6.5h84a6.508 6.508 0 006.5-6.5 6.508 6.508 0 00-6.5-6.5zm-2-17a4.505 4.505 0 00-4.5 4.5 4.505 4.505 0 004.5 4.5h201a4.505 4.505 0 004.5-4.5 4.505 4.505 0 00-4.5-4.5zm1-19a5.507 5.507 0 00-5.5 5.5 5.506 5.506 0 005.5 5.5h259a5.506 5.506 0 005.5-5.5 5.507 5.507 0 00-5.5-5.5zm57.5-131a8.009 8.009 0 00-8 8v102a8.009 8.009 0 008 8h200a8.009 8.009 0 008-8v-102a8.009 8.009 0 00-8-8zm229.084-33.32a12.662 12.662 0 00-9.013 3.734 12.663 12.663 0 00-3.729 9.015 12.664 12.664 0 003.733 9.013 12.662 12.662 0 009.013 3.733 12.662 12.662 0 009.013-3.733 12.664 12.664 0 003.733-9.013 12.663 12.663 0 00-3.733-9.012 12.662 12.662 0 00-9.018-3.734zM1249.001 159a5.006 5.006 0 00-5 5 5.006 5.006 0 005 5h86a5.006 5.006 0 005-5 5.006 5.006 0 00-5-5zm63.276 127.251h-6.047v-5.781h4.32a2.941 2.941 0 002.073-.722 5.292 5.292 0 001.253-1.879 10.034 10.034 0 00.648-2.654 26.678 26.678 0 00.173-3.034v-17.63a16.094 16.094 0 01.907-5.733 15.11 15.11 0 012.117-3.9 9.69 9.69 0 012.462-2.311 7.816 7.816 0 012.03-.964v-.289a6.3 6.3 0 01-2.03-.771 8.416 8.416 0 01-2.462-2.167 14.1 14.1 0 01-2.117-3.9 17.466 17.466 0 01-.907-6.069v-17.532a25.83 25.83 0 00-.173-2.938 10.763 10.763 0 00-.648-2.7 5.2 5.2 0 00-1.253-1.927 2.937 2.937 0 00-2.073-.723h-4.32v-5.78h6.047a7.35 7.35 0 013.283.818 9.422 9.422 0 012.98 2.41 13.05 13.05 0 012.2 3.948 15.869 15.869 0 01.864 5.443v17.438a17.254 17.254 0 00.6 4.721 12.2 12.2 0 001.6 3.565 7.4 7.4 0 002.289 2.216 5.2 5.2 0 002.678.771v6.55h-.006a4.973 4.973 0 00-2.672.818 7.774 7.774 0 00-2.289 2.312 12.913 12.913 0 00-1.6 3.613 16.877 16.877 0 00-.6 4.623v17.534a15.862 15.862 0 01-.864 5.443 13.073 13.073 0 01-2.2 3.95 9.41 9.41 0 01-2.98 2.408 7.329 7.329 0 01-3.283.823zm-157.175 0h-6.047a7.329 7.329 0 01-3.283-.82 9.41 9.41 0 01-2.98-2.408 13.068 13.068 0 01-2.2-3.95 15.862 15.862 0 01-.864-5.443v-17.437a17.259 17.259 0 00-.6-4.72 12.162 12.162 0 00-1.6-3.564 7.43 7.43 0 00-2.29-2.217 5.2 5.2 0 00-2.678-.771v-6.551h.006a4.95 4.95 0 002.672-.818 7.766 7.766 0 002.29-2.312 12.93 12.93 0 001.6-3.613 16.873 16.873 0 00.6-4.624v-17.534a15.869 15.869 0 01.864-5.443 13.033 13.033 0 012.2-3.948 9.442 9.442 0 012.98-2.41 7.35 7.35 0 013.283-.818h6.047v5.78h-4.319a2.939 2.939 0 00-2.074.723 5.247 5.247 0 00-1.253 1.878 10.034 10.034 0 00-.648 2.65 26.655 26.655 0 00-.173 3.034v17.63a16.085 16.085 0 01-.907 5.732 15.1 15.1 0 01-2.116 3.9 9.732 9.732 0 01-2.462 2.312 7.926 7.926 0 01-2.03.964v.289a6.234 6.234 0 012.03.77 8.449 8.449 0 012.462 2.168 14.071 14.071 0 012.116 3.9 17.476 17.476 0 01.907 6.07v17.535a25.84 25.84 0 00.173 2.937 10.741 10.741 0 00.648 2.7 5.205 5.205 0 001.253 1.928 2.942 2.942 0 002.074.722h4.319v5.78zm12.84-19.524h-7.855a6.591 6.591 0 01-.135-1.868 6.584 6.584 0 01.135-1.867h7.857a6.584 6.584 0 01.135 1.867 6.591 6.591 0 01-.135 1.868zm90.807-9.718h-97.127a1.778 1.778 0 01-1.669-1.866 1.778 1.778 0 011.669-1.867h97.128a1.778 1.778 0 011.669 1.867 1.777 1.777 0 01-1.669 1.866zm44.659-14.323h-140.491a3.258 3.258 0 01-3.254-3.254 3.258 3.258 0 013.254-3.255h140.492a3.258 3.258 0 013.254 3.255 3.258 3.258 0 01-3.254 3.254zm-105.553-17.207h-35.234a2.563 2.563 0 01-2.561-2.56 2.563 2.563 0 012.561-2.561h35.234a2.563 2.563 0 012.561 2.561 2.563 2.563 0 01-2.561 2.56zM600.999 554h-314a8.009 8.009 0 01-8-8V150a8.009 8.009 0 018-8h314a8.009 8.009 0 018 8v396a8.009 8.009 0 01-8 8zm-300-50a8.009 8.009 0 00-8 8v19a8.009 8.009 0 008 8h285a8.009 8.009 0 008-8v-19a8.009 8.009 0 00-8-8zm174.523-22.357a4.431 4.431 0 00-4.426 4.426 4.431 4.431 0 004.426 4.426h73.6a4.431 4.431 0 004.426-4.426 4.431 4.431 0 00-4.426-4.426zm-35.025-36.217a20.843 20.843 0 00-8.164 1.648 20.905 20.905 0 00-6.667 4.495 20.9 20.9 0 00-4.495 6.667 20.843 20.843 0 00-1.648 8.164 20.843 20.843 0 001.648 8.164 20.9 20.9 0 004.495 6.667 20.905 20.905 0 006.667 4.495 20.842 20.842 0 008.164 1.648 20.84 20.84 0 008.16-1.648 20.9 20.9 0 006.666-4.495 20.906 20.906 0 004.495-6.667 20.843 20.843 0 001.648-8.164 20.843 20.843 0 00-1.648-8.164 20.906 20.906 0 00-4.495-6.667 20.9 20.9 0 00-6.666-4.495 20.84 20.84 0 00-8.16-1.648zm34.788 20.616a4.432 4.432 0 00-4.427 4.426 4.432 4.432 0 004.427 4.426h111.794a4.432 4.432 0 004.427-4.426 4.432 4.432 0 00-4.427-4.426zm.326-15.685a4.431 4.431 0 00-4.426 4.426 4.431 4.431 0 004.426 4.426h98.646a4.431 4.431 0 004.426-4.426 4.431 4.431 0 00-4.426-4.426zM298.499 424a5.506 5.506 0 00-5.5 5.5 5.507 5.507 0 005.5 5.5h98a5.507 5.507 0 005.5-5.5 5.506 5.506 0 00-5.5-5.5zm-1.5-13a4 4 0 00-4 4 4 4 0 004 4h235a4 4 0 004-4 4 4 0 00-4-4zm.5-19a4.505 4.505 0 00-4.5 4.5 4.505 4.505 0 004.5 4.5h253a4.505 4.505 0 004.5-4.5 4.505 4.505 0 00-4.5-4.5zm94.5-26a3 3 0 00-3 3 3 3 0 003 3h90a3 3 0 003-3 3 3 0 00-3-3zm-63-119a8.009 8.009 0 00-8 8v96a8.009 8.009 0 008 8h233a8.009 8.009 0 008-8v-96a8.009 8.009 0 00-8-8zm-31.5-29a4.505 4.505 0 00-4.5 4.5 4.505 4.505 0 004.5 4.5h200a4.505 4.505 0 004.5-4.5 4.505 4.505 0 00-4.5-4.5zm1.5-16a6.007 6.007 0 00-6 6 6.007 6.007 0 006 6h251a6.007 6.007 0 006-6 6.007 6.007 0 00-6-6zm283.552-50.421a12.662 12.662 0 00-9.013 3.733 12.663 12.663 0 00-3.732 9.014 12.664 12.664 0 003.733 9.013 12.662 12.662 0 009.013 3.733 12.661 12.661 0 009.012-3.733 12.665 12.665 0 003.733-9.013 12.663 12.663 0 00-3.732-9.012 12.661 12.661 0 00-9.013-3.734zm-113.053 8.42a5.506 5.506 0 00-5.5 5.5 5.506 5.506 0 005.5 5.5h85a5.506 5.506 0 005.5-5.5 5.506 5.506 0 00-5.5-5.5zm-5.483 164.667h-37.771a4.727 4.727 0 01-4.721-4.721v-28.328a4.727 4.727 0 014.721-4.721h7.483l4.32-4.721h14.164l4.32 4.721h7.484a4.726 4.726 0 014.72 4.721v28.328a4.726 4.726 0 01-4.72 4.721zm-18.886-30.689a11.817 11.817 0 00-11.8 11.8 11.817 11.817 0 0011.8 11.8 11.817 11.817 0 0011.8-11.8 11.817 11.817 0 00-11.8-11.8zm0 19.357a7.563 7.563 0 01-7.555-7.554 7.563 7.563 0 017.555-7.555 7.563 7.563 0 017.554 7.555 7.562 7.562 0 01-7.554 7.555z" opacity="1" fill="#2b2a2a"/></svg>