<svg xmlns="http://www.w3.org/2000/svg" width="1884" height="1824" viewBox="0 0 1884 1824"><g transform="translate(-426 -61)"><path d="M2720,1824H2608a2,2,0,0,1-2-2v-53a2,2,0,0,1,2-2h112a2,2,0,0,1,2,2v53A2,2,0,0,1,2720,1824Zm-129,0H2479a2,2,0,0,1-2-2v-53a2,2,0,0,1,2-2h112a2,2,0,0,1,2,2v53A2,2,0,0,1,2591,1824Zm-129,0H2349a2,2,0,0,1-2-2v-53a2,2,0,0,1,2-2h113a2,2,0,0,1,2,2v53A2,2,0,0,1,2462,1824Zm-128,0H2220a2,2,0,0,1-2-2v-53a2,2,0,0,1,2-2h114a2,2,0,0,1,2,2v53A2,2,0,0,1,2334,1824Zm-130,0H2092a2,2,0,0,1-2-2v-53a2,2,0,0,1,2-2h112a2,2,0,0,1,2,2v53A2,2,0,0,1,2204,1824Zm-129,0H1963a2,2,0,0,1-2-2v-53a2,2,0,0,1,2-2h112a2,2,0,0,1,2,2v53A2,2,0,0,1,2075,1824Zm-129,0H1833a2,2,0,0,1-2-2v-53a2,2,0,0,1,2-2h113a2,2,0,0,1,2,2v53A2,2,0,0,1,1946,1824Zm-130,0H1704a2,2,0,0,1-2-2v-53a2,2,0,0,1,2-2h112a2,2,0,0,1,2,2v53A2,2,0,0,1,1816,1824Zm-128,0H1576a2,2,0,0,1-2-2v-53a2,2,0,0,1,2-2h112a2,2,0,0,1,2,2v53A2,2,0,0,1,1688,1824Zm-129,0H1446a2,2,0,0,1-2-2v-53a2,2,0,0,1,2-2h113a2,2,0,0,1,2,2v53A2,2,0,0,1,1559,1824Zm-130,0H1317a2,2,0,0,1-2-2v-53a2,2,0,0,1,2-2h112a2,2,0,0,1,2,2v53A2,2,0,0,1,1429,1824Zm-128,0H1189a2,2,0,0,1-2-2v-53a2,2,0,0,1,2-2h112a2,2,0,0,1,2,2v53A2,2,0,0,1,1301,1824Zm-129,0H1059a2,2,0,0,1-2-2v-53a2,2,0,0,1,2-2h113a2,2,0,0,1,2,2v53A2,2,0,0,1,1172,1824Zm-130,0H930a2,2,0,0,1-2-2v-53a2,2,0,0,1,2-2h112a2,2,0,0,1,2,2v53A2,2,0,0,1,1042,1824Zm1743-70H2672a2,2,0,0,1-2-2v-54a2,2,0,0,1,2-2h113a2,2,0,0,1,2,2v54A2,2,0,0,1,2785,1754Zm-130,0H2543a2,2,0,0,1-2-2v-54a2,2,0,0,1,2-2h112a2,2,0,0,1,2,2v54A2,2,0,0,1,2655,1754Zm-128,0H2414a2,2,0,0,1-2-2v-54a2,2,0,0,1,2-2h113a2,2,0,0,1,2,2v54A2,2,0,0,1,2527,1754Zm-129,0H2285a2,2,0,0,1-2-2v-54a2,2,0,0,1,2-2h113a2,2,0,0,1,2,2v54A2,2,0,0,1,2398,1754Zm-130,0H2156a2,2,0,0,1-2-2v-54a2,2,0,0,1,2-2h112a2,2,0,0,1,2,2v54A2,2,0,0,1,2268,1754Zm-129,0H2027a2,2,0,0,1-2-2v-54a2,2,0,0,1,2-2h112a2,2,0,0,1,2,2v54A2,2,0,0,1,2139,1754Zm-128,0H1897a2,2,0,0,1-2-2v-54a2,2,0,0,1,2-2h114a2,2,0,0,1,2,2v54A2,2,0,0,1,2011,1754Zm-130,0H1769a2,2,0,0,1-2-2v-54a2,2,0,0,1,2-2h112a2,2,0,0,1,2,2v54A2,2,0,0,1,1881,1754Zm-129,0H1640a2,2,0,0,1-2-2v-54a2,2,0,0,1,2-2h112a2,2,0,0,1,2,2v54A2,2,0,0,1,1752,1754Zm-129,0H1510a2,2,0,0,1-2-2v-54a2,2,0,0,1,2-2h113a2,2,0,0,1,2,2v54A2,2,0,0,1,1623,1754Zm-129,0H1382a2,2,0,0,1-2-2v-54a2,2,0,0,1,2-2h112a2,2,0,0,1,2,2v54A2,2,0,0,1,1494,1754Zm-129,0H1253a2,2,0,0,1-2-2v-54a2,2,0,0,1,2-2h112a2,2,0,0,1,2,2v54A2,2,0,0,1,1365,1754Zm-129,0H1123a2,2,0,0,1-2-2v-54a2,2,0,0,1,2-2h113a2,2,0,0,1,2,2v54A2,2,0,0,1,1236,1754Zm-128,0H994a2,2,0,0,1-2-2v-54a2,2,0,0,1,2-2h114a2,2,0,0,1,2,2v54A2,2,0,0,1,1108,1754Zm1612-71H2608a2,2,0,0,1-2-2v-53a2,2,0,0,1,2-2h112a2,2,0,0,1,2,2v53A2,2,0,0,1,2720,1683Zm-129,0H2479a2,2,0,0,1-2-2v-53a2,2,0,0,1,2-2h112a2,2,0,0,1,2,2v53A2,2,0,0,1,2591,1683Zm-129,0H2349a2,2,0,0,1-2-2v-53a2,2,0,0,1,2-2h113a2,2,0,0,1,2,2v53A2,2,0,0,1,2462,1683Zm-128,0H2220a2,2,0,0,1-2-2v-53a2,2,0,0,1,2-2h114a2,2,0,0,1,2,2v53A2,2,0,0,1,2334,1683Zm-130,0H2092a2,2,0,0,1-2-2v-53a2,2,0,0,1,2-2h112a2,2,0,0,1,2,2v53A2,2,0,0,1,2204,1683Zm-129,0H1963a2,2,0,0,1-2-2v-53a2,2,0,0,1,2-2h112a2,2,0,0,1,2,2v53A2,2,0,0,1,2075,1683Zm-129,0H1833a2,2,0,0,1-2-2v-53a2,2,0,0,1,2-2h113a2,2,0,0,1,2,2v53A2,2,0,0,1,1946,1683Zm-130,0H1704a2,2,0,0,1-2-2v-53a2,2,0,0,1,2-2h112a2,2,0,0,1,2,2v53A2,2,0,0,1,1816,1683Zm-128,0H1576a2,2,0,0,1-2-2v-53a2,2,0,0,1,2-2h112a2,2,0,0,1,2,2v53A2,2,0,0,1,1688,1683Zm-129,0H1446a2,2,0,0,1-2-2v-53a2,2,0,0,1,2-2h113a2,2,0,0,1,2,2v53A2,2,0,0,1,1559,1683Zm-130,0H1317a2,2,0,0,1-2-2v-53a2,2,0,0,1,2-2h112a2,2,0,0,1,2,2v53A2,2,0,0,1,1429,1683Zm-128,0H1189a2,2,0,0,1-2-2v-53a2,2,0,0,1,2-2h112a2,2,0,0,1,2,2v53A2,2,0,0,1,1301,1683Zm-129,0H1059a2,2,0,0,1-2-2v-53a2,2,0,0,1,2-2h113a2,2,0,0,1,2,2v53A2,2,0,0,1,1172,1683Zm-130,0H930a2,2,0,0,1-2-2v-53a2,2,0,0,1,2-2h112a2,2,0,0,1,2,2v53A2,2,0,0,1,1042,1683Zm1743-70H2672a2,2,0,0,1-2-2v-54a2,2,0,0,1,2-2h113a2,2,0,0,1,2,2v54A2,2,0,0,1,2785,1613Zm-130,0H2543a2,2,0,0,1-2-2v-54a2,2,0,0,1,2-2h112a2,2,0,0,1,2,2v54A2,2,0,0,1,2655,1613Zm-128,0H2414a2,2,0,0,1-2-2v-54a2,2,0,0,1,2-2h113a2,2,0,0,1,2,2v54A2,2,0,0,1,2527,1613Zm-129,0H2285a2,2,0,0,1-2-2v-54a2,2,0,0,1,2-2h113a2,2,0,0,1,2,2v54A2,2,0,0,1,2398,1613Zm-130,0H2156a2,2,0,0,1-2-2v-54a2,2,0,0,1,2-2h112a2,2,0,0,1,2,2v54A2,2,0,0,1,2268,1613Zm-129,0H2027a2,2,0,0,1-2-2v-54a2,2,0,0,1,2-2h112a2,2,0,0,1,2,2v54A2,2,0,0,1,2139,1613Zm-128,0H1897a2,2,0,0,1-2-2v-54a2,2,0,0,1,2-2h114a2,2,0,0,1,2,2v54A2,2,0,0,1,2011,1613Zm-130,0H1769a2,2,0,0,1-2-2v-54a2,2,0,0,1,2-2h112a2,2,0,0,1,2,2v54A2,2,0,0,1,1881,1613Zm-129,0H1640a2,2,0,0,1-2-2v-54a2,2,0,0,1,2-2h112a2,2,0,0,1,2,2v54A2,2,0,0,1,1752,1613Zm-129,0H1510a2,2,0,0,1-2-2v-54a2,2,0,0,1,2-2h113a2,2,0,0,1,2,2v54A2,2,0,0,1,1623,1613Zm-129,0H1382a2,2,0,0,1-2-2v-54a2,2,0,0,1,2-2h112a2,2,0,0,1,2,2v54A2,2,0,0,1,1494,1613Zm-129,0H1253a2,2,0,0,1-2-2v-54a2,2,0,0,1,2-2h112a2,2,0,0,1,2,2v54A2,2,0,0,1,1365,1613Zm-129,0H1123a2,2,0,0,1-2-2v-54a2,2,0,0,1,2-2h113a2,2,0,0,1,2,2v54A2,2,0,0,1,1236,1613Zm-128,0H994a2,2,0,0,1-2-2v-54a2,2,0,0,1,2-2h114a2,2,0,0,1,2,2v54A2,2,0,0,1,1108,1613Zm1637-70H2633a2,2,0,0,1-2-2v-53a2,2,0,0,1,2-2h112a2,2,0,0,1,2,2v53A2,2,0,0,1,2745,1543Zm-129,0H2504a2,2,0,0,1-2-2v-53a2,2,0,0,1,2-2h112a2,2,0,0,1,2,2v53A2,2,0,0,1,2616,1543Zm-129,0H2374a2,2,0,0,1-2-2v-53a2,2,0,0,1,2-2h113a2,2,0,0,1,2,2v53A2,2,0,0,1,2487,1543Zm-128,0H2245a2,2,0,0,1-2-2v-53a2,2,0,0,1,2-2h114a2,2,0,0,1,2,2v53A2,2,0,0,1,2359,1543Zm-130,0H2117a2,2,0,0,1-2-2v-53a2,2,0,0,1,2-2h112a2,2,0,0,1,2,2v53A2,2,0,0,1,2229,1543Zm-129,0H1988a2,2,0,0,1-2-2v-53a2,2,0,0,1,2-2h112a2,2,0,0,1,2,2v53A2,2,0,0,1,2100,1543Zm-129,0H1858a2,2,0,0,1-2-2v-53a2,2,0,0,1,2-2h113a2,2,0,0,1,2,2v53A2,2,0,0,1,1971,1543Zm-130,0H1729a2,2,0,0,1-2-2v-53a2,2,0,0,1,2-2h112a2,2,0,0,1,2,2v53A2,2,0,0,1,1841,1543Zm-128,0H1601a2,2,0,0,1-2-2v-53a2,2,0,0,1,2-2h112a2,2,0,0,1,2,2v53A2,2,0,0,1,1713,1543Zm-129,0H1471a2,2,0,0,1-2-2v-53a2,2,0,0,1,2-2h113a2,2,0,0,1,2,2v53A2,2,0,0,1,1584,1543Zm-130,0H1342a2,2,0,0,1-2-2v-53a2,2,0,0,1,2-2h112a2,2,0,0,1,2,2v53A2,2,0,0,1,1454,1543Zm-128,0H1214a2,2,0,0,1-2-2v-53a2,2,0,0,1,2-2h112a2,2,0,0,1,2,2v53A2,2,0,0,1,1326,1543Zm-129,0H1084a2,2,0,0,1-2-2v-53a2,2,0,0,1,2-2h113a2,2,0,0,1,2,2v53A2,2,0,0,1,1197,1543Zm-130,0H955a2,2,0,0,1-2-2v-53a2,2,0,0,1,2-2h112a2,2,0,0,1,2,2v53A2,2,0,0,1,1067,1543Zm1743-70H2697a2,2,0,0,1-2-2v-54a2,2,0,0,1,2-2h113a2,2,0,0,1,2,2v54A2,2,0,0,1,2810,1473Zm-130,0H2568a2,2,0,0,1-2-2v-54a2,2,0,0,1,2-2h112a2,2,0,0,1,2,2v54A2,2,0,0,1,2680,1473Zm-128,0H2439a2,2,0,0,1-2-2v-54a2,2,0,0,1,2-2h113a2,2,0,0,1,2,2v54A2,2,0,0,1,2552,1473Zm-129,0H2310a2,2,0,0,1-2-2v-54a2,2,0,0,1,2-2h113a2,2,0,0,1,2,2v54A2,2,0,0,1,2423,1473Zm-130,0H2181a2,2,0,0,1-2-2v-54a2,2,0,0,1,2-2h112a2,2,0,0,1,2,2v54A2,2,0,0,1,2293,1473Zm-129,0H2052a2,2,0,0,1-2-2v-54a2,2,0,0,1,2-2h112a2,2,0,0,1,2,2v54A2,2,0,0,1,2164,1473Zm-128,0H1922a2,2,0,0,1-2-2v-54a2,2,0,0,1,2-2h114a2,2,0,0,1,2,2v54A2,2,0,0,1,2036,1473Zm-130,0H1794a2,2,0,0,1-2-2v-54a2,2,0,0,1,2-2h112a2,2,0,0,1,2,2v54A2,2,0,0,1,1906,1473Zm-129,0H1665a2,2,0,0,1-2-2v-54a2,2,0,0,1,2-2h112a2,2,0,0,1,2,2v54A2,2,0,0,1,1777,1473Zm-129,0H1535a2,2,0,0,1-2-2v-54a2,2,0,0,1,2-2h113a2,2,0,0,1,2,2v54A2,2,0,0,1,1648,1473Zm-129,0H1407a2,2,0,0,1-2-2v-54a2,2,0,0,1,2-2h112a2,2,0,0,1,2,2v54A2,2,0,0,1,1519,1473Zm-129,0H1278a2,2,0,0,1-2-2v-54a2,2,0,0,1,2-2h112a2,2,0,0,1,2,2v54A2,2,0,0,1,1390,1473Zm-129,0H1148a2,2,0,0,1-2-2v-54a2,2,0,0,1,2-2h113a2,2,0,0,1,2,2v54A2,2,0,0,1,1261,1473Zm-128,0H1019a2,2,0,0,1-2-2v-54a2,2,0,0,1,2-2h114a2,2,0,0,1,2,2v54A2,2,0,0,1,1133,1473Zm1612-71H2633a2,2,0,0,1-2-2v-53a2,2,0,0,1,2-2h112a2,2,0,0,1,2,2v53A2,2,0,0,1,2745,1402Zm-129,0H2504a2,2,0,0,1-2-2v-53a2,2,0,0,1,2-2h112a2,2,0,0,1,2,2v53A2,2,0,0,1,2616,1402Zm-129,0H2374a2,2,0,0,1-2-2v-53a2,2,0,0,1,2-2h113a2,2,0,0,1,2,2v53A2,2,0,0,1,2487,1402Zm-128,0H2245a2,2,0,0,1-2-2v-53a2,2,0,0,1,2-2h114a2,2,0,0,1,2,2v53A2,2,0,0,1,2359,1402Zm-130,0H2117a2,2,0,0,1-2-2v-53a2,2,0,0,1,2-2h112a2,2,0,0,1,2,2v53A2,2,0,0,1,2229,1402Zm-129,0H1988a2,2,0,0,1-2-2v-53a2,2,0,0,1,2-2h112a2,2,0,0,1,2,2v53A2,2,0,0,1,2100,1402Zm-129,0H1858a2,2,0,0,1-2-2v-53a2,2,0,0,1,2-2h113a2,2,0,0,1,2,2v53A2,2,0,0,1,1971,1402Zm-130,0H1729a2,2,0,0,1-2-2v-53a2,2,0,0,1,2-2h112a2,2,0,0,1,2,2v53A2,2,0,0,1,1841,1402Zm-128,0H1601a2,2,0,0,1-2-2v-53a2,2,0,0,1,2-2h112a2,2,0,0,1,2,2v53A2,2,0,0,1,1713,1402Zm-129,0H1471a2,2,0,0,1-2-2v-53a2,2,0,0,1,2-2h113a2,2,0,0,1,2,2v53A2,2,0,0,1,1584,1402Zm-130,0H1342a2,2,0,0,1-2-2v-53a2,2,0,0,1,2-2h112a2,2,0,0,1,2,2v53A2,2,0,0,1,1454,1402Zm-128,0H1214a2,2,0,0,1-2-2v-53a2,2,0,0,1,2-2h112a2,2,0,0,1,2,2v53A2,2,0,0,1,1326,1402Zm-129,0H1084a2,2,0,0,1-2-2v-53a2,2,0,0,1,2-2h113a2,2,0,0,1,2,2v53A2,2,0,0,1,1197,1402Zm-130,0H955a2,2,0,0,1-2-2v-53a2,2,0,0,1,2-2h112a2,2,0,0,1,2,2v53A2,2,0,0,1,1067,1402Zm1743-70H2697a2,2,0,0,1-2-2v-54a2,2,0,0,1,2-2h113a2,2,0,0,1,2,2v54A2,2,0,0,1,2810,1332Zm-130,0H2568a2,2,0,0,1-2-2v-54a2,2,0,0,1,2-2h112a2,2,0,0,1,2,2v54A2,2,0,0,1,2680,1332Zm-128,0H2439a2,2,0,0,1-2-2v-54a2,2,0,0,1,2-2h113a2,2,0,0,1,2,2v54A2,2,0,0,1,2552,1332Zm-129,0H2310a2,2,0,0,1-2-2v-54a2,2,0,0,1,2-2h113a2,2,0,0,1,2,2v54A2,2,0,0,1,2423,1332Zm-130,0H2181a2,2,0,0,1-2-2v-54a2,2,0,0,1,2-2h112a2,2,0,0,1,2,2v54A2,2,0,0,1,2293,1332Zm-129,0H2052a2,2,0,0,1-2-2v-54a2,2,0,0,1,2-2h112a2,2,0,0,1,2,2v54A2,2,0,0,1,2164,1332Zm-128,0H1922a2,2,0,0,1-2-2v-54a2,2,0,0,1,2-2h114a2,2,0,0,1,2,2v54A2,2,0,0,1,2036,1332Zm-130,0H1794a2,2,0,0,1-2-2v-54a2,2,0,0,1,2-2h112a2,2,0,0,1,2,2v54A2,2,0,0,1,1906,1332Zm-129,0H1665a2,2,0,0,1-2-2v-54a2,2,0,0,1,2-2h112a2,2,0,0,1,2,2v54A2,2,0,0,1,1777,1332Zm-129,0H1535a2,2,0,0,1-2-2v-54a2,2,0,0,1,2-2h113a2,2,0,0,1,2,2v54A2,2,0,0,1,1648,1332Zm-129,0H1407a2,2,0,0,1-2-2v-54a2,2,0,0,1,2-2h112a2,2,0,0,1,2,2v54A2,2,0,0,1,1519,1332Zm-129,0H1278a2,2,0,0,1-2-2v-54a2,2,0,0,1,2-2h112a2,2,0,0,1,2,2v54A2,2,0,0,1,1390,1332Zm-129,0H1148a2,2,0,0,1-2-2v-54a2,2,0,0,1,2-2h113a2,2,0,0,1,2,2v54A2,2,0,0,1,1261,1332Zm-128,0H1019a2,2,0,0,1-2-2v-54a2,2,0,0,1,2-2h114a2,2,0,0,1,2,2v54A2,2,0,0,1,1133,1332Zm1612-71H2633a2,2,0,0,1-2-2v-53a2,2,0,0,1,2-2h112a2,2,0,0,1,2,2v53A2,2,0,0,1,2745,1261Zm-129,0H2504a2,2,0,0,1-2-2v-53a2,2,0,0,1,2-2h112a2,2,0,0,1,2,2v53A2,2,0,0,1,2616,1261Zm-129,0H2374a2,2,0,0,1-2-2v-53a2,2,0,0,1,2-2h113a2,2,0,0,1,2,2v53A2,2,0,0,1,2487,1261Zm-128,0H2245a2,2,0,0,1-2-2v-53a2,2,0,0,1,2-2h114a2,2,0,0,1,2,2v53A2,2,0,0,1,2359,1261Zm-130,0H2117a2,2,0,0,1-2-2v-53a2,2,0,0,1,2-2h112a2,2,0,0,1,2,2v53A2,2,0,0,1,2229,1261Zm-129,0H1988a2,2,0,0,1-2-2v-53a2,2,0,0,1,2-2h112a2,2,0,0,1,2,2v53A2,2,0,0,1,2100,1261Zm-129,0H1858a2,2,0,0,1-2-2v-53a2,2,0,0,1,2-2h113a2,2,0,0,1,2,2v53A2,2,0,0,1,1971,1261Zm-130,0H1729a2,2,0,0,1-2-2v-53a2,2,0,0,1,2-2h112a2,2,0,0,1,2,2v53A2,2,0,0,1,1841,1261Zm-128,0H1601a2,2,0,0,1-2-2v-53a2,2,0,0,1,2-2h112a2,2,0,0,1,2,2v53A2,2,0,0,1,1713,1261Zm-129,0H1471a2,2,0,0,1-2-2v-53a2,2,0,0,1,2-2h113a2,2,0,0,1,2,2v53A2,2,0,0,1,1584,1261Zm-130,0H1342a2,2,0,0,1-2-2v-53a2,2,0,0,1,2-2h112a2,2,0,0,1,2,2v53A2,2,0,0,1,1454,1261Zm-128,0H1214a2,2,0,0,1-2-2v-53a2,2,0,0,1,2-2h112a2,2,0,0,1,2,2v53A2,2,0,0,1,1326,1261Zm-129,0H1084a2,2,0,0,1-2-2v-53a2,2,0,0,1,2-2h113a2,2,0,0,1,2,2v53A2,2,0,0,1,1197,1261Zm-130,0H955a2,2,0,0,1-2-2v-53a2,2,0,0,1,2-2h112a2,2,0,0,1,2,2v53A2,2,0,0,1,1067,1261Zm1743-70H2697a2,2,0,0,1-2-2v-54a2,2,0,0,1,2-2h113a2,2,0,0,1,2,2v54A2,2,0,0,1,2810,1191Zm-130,0H2568a2,2,0,0,1-2-2v-54a2,2,0,0,1,2-2h112a2,2,0,0,1,2,2v54A2,2,0,0,1,2680,1191Zm-128,0H2439a2,2,0,0,1-2-2v-54a2,2,0,0,1,2-2h113a2,2,0,0,1,2,2v54A2,2,0,0,1,2552,1191Zm-129,0H2310a2,2,0,0,1-2-2v-54a2,2,0,0,1,2-2h113a2,2,0,0,1,2,2v54A2,2,0,0,1,2423,1191Zm-130,0H2181a2,2,0,0,1-2-2v-54a2,2,0,0,1,2-2h112a2,2,0,0,1,2,2v54A2,2,0,0,1,2293,1191Zm-129,0H2052a2,2,0,0,1-2-2v-54a2,2,0,0,1,2-2h112a2,2,0,0,1,2,2v54A2,2,0,0,1,2164,1191Zm-128,0H1922a2,2,0,0,1-2-2v-54a2,2,0,0,1,2-2h114a2,2,0,0,1,2,2v54A2,2,0,0,1,2036,1191Zm-130,0H1794a2,2,0,0,1-2-2v-54a2,2,0,0,1,2-2h112a2,2,0,0,1,2,2v54A2,2,0,0,1,1906,1191Zm-129,0H1665a2,2,0,0,1-2-2v-54a2,2,0,0,1,2-2h112a2,2,0,0,1,2,2v54A2,2,0,0,1,1777,1191Zm-129,0H1535a2,2,0,0,1-2-2v-54a2,2,0,0,1,2-2h113a2,2,0,0,1,2,2v54A2,2,0,0,1,1648,1191Zm-129,0H1407a2,2,0,0,1-2-2v-54a2,2,0,0,1,2-2h112a2,2,0,0,1,2,2v54A2,2,0,0,1,1519,1191Zm-129,0H1278a2,2,0,0,1-2-2v-54a2,2,0,0,1,2-2h112a2,2,0,0,1,2,2v54A2,2,0,0,1,1390,1191Zm-129,0H1148a2,2,0,0,1-2-2v-54a2,2,0,0,1,2-2h113a2,2,0,0,1,2,2v54A2,2,0,0,1,1261,1191Zm-128,0H1019a2,2,0,0,1-2-2v-54a2,2,0,0,1,2-2h114a2,2,0,0,1,2,2v54A2,2,0,0,1,1133,1191Zm1612-71H2633a2,2,0,0,1-2-2v-53a2,2,0,0,1,2-2h112a2,2,0,0,1,2,2v53A2,2,0,0,1,2745,1120Zm-129,0H2504a2,2,0,0,1-2-2v-53a2,2,0,0,1,2-2h112a2,2,0,0,1,2,2v53A2,2,0,0,1,2616,1120Zm-129,0H2374a2,2,0,0,1-2-2v-53a2,2,0,0,1,2-2h113a2,2,0,0,1,2,2v53A2,2,0,0,1,2487,1120Zm-128,0H2245a2,2,0,0,1-2-2v-53a2,2,0,0,1,2-2h114a2,2,0,0,1,2,2v53A2,2,0,0,1,2359,1120Zm-130,0H2117a2,2,0,0,1-2-2v-53a2,2,0,0,1,2-2h112a2,2,0,0,1,2,2v53A2,2,0,0,1,2229,1120Zm-129,0H1988a2,2,0,0,1-2-2v-53a2,2,0,0,1,2-2h112a2,2,0,0,1,2,2v53A2,2,0,0,1,2100,1120Zm-129,0H1858a2,2,0,0,1-2-2v-53a2,2,0,0,1,2-2h113a2,2,0,0,1,2,2v53A2,2,0,0,1,1971,1120Zm-130,0H1729a2,2,0,0,1-2-2v-53a2,2,0,0,1,2-2h112a2,2,0,0,1,2,2v53A2,2,0,0,1,1841,1120Zm-128,0H1601a2,2,0,0,1-2-2v-53a2,2,0,0,1,2-2h112a2,2,0,0,1,2,2v53A2,2,0,0,1,1713,1120Zm-129,0H1471a2,2,0,0,1-2-2v-53a2,2,0,0,1,2-2h113a2,2,0,0,1,2,2v53A2,2,0,0,1,1584,1120Zm-130,0H1342a2,2,0,0,1-2-2v-53a2,2,0,0,1,2-2h112a2,2,0,0,1,2,2v53A2,2,0,0,1,1454,1120Zm-128,0H1214a2,2,0,0,1-2-2v-53a2,2,0,0,1,2-2h112a2,2,0,0,1,2,2v53A2,2,0,0,1,1326,1120Zm-129,0H1084a2,2,0,0,1-2-2v-53a2,2,0,0,1,2-2h113a2,2,0,0,1,2,2v53A2,2,0,0,1,1197,1120Zm-130,0H955a2,2,0,0,1-2-2v-53a2,2,0,0,1,2-2h112a2,2,0,0,1,2,2v53A2,2,0,0,1,1067,1120Zm1743-70H2697a2,2,0,0,1-2-2V994a2,2,0,0,1,2-2h113a2,2,0,0,1,2,2v54A2,2,0,0,1,2810,1050Zm-130,0H2568a2,2,0,0,1-2-2V994a2,2,0,0,1,2-2h112a2,2,0,0,1,2,2v54A2,2,0,0,1,2680,1050Zm-128,0H2439a2,2,0,0,1-2-2V994a2,2,0,0,1,2-2h113a2,2,0,0,1,2,2v54A2,2,0,0,1,2552,1050Zm-129,0H2310a2,2,0,0,1-2-2V994a2,2,0,0,1,2-2h113a2,2,0,0,1,2,2v54A2,2,0,0,1,2423,1050Zm-130,0H2181a2,2,0,0,1-2-2V994a2,2,0,0,1,2-2h112a2,2,0,0,1,2,2v54A2,2,0,0,1,2293,1050Zm-129,0H2052a2,2,0,0,1-2-2V994a2,2,0,0,1,2-2h112a2,2,0,0,1,2,2v54A2,2,0,0,1,2164,1050Zm-128,0H1922a2,2,0,0,1-2-2V994a2,2,0,0,1,2-2h114a2,2,0,0,1,2,2v54A2,2,0,0,1,2036,1050Zm-130,0H1794a2,2,0,0,1-2-2V994a2,2,0,0,1,2-2h112a2,2,0,0,1,2,2v54A2,2,0,0,1,1906,1050Zm-129,0H1665a2,2,0,0,1-2-2V994a2,2,0,0,1,2-2h112a2,2,0,0,1,2,2v54A2,2,0,0,1,1777,1050Zm-129,0H1535a2,2,0,0,1-2-2V994a2,2,0,0,1,2-2h113a2,2,0,0,1,2,2v54A2,2,0,0,1,1648,1050Zm-129,0H1407a2,2,0,0,1-2-2V994a2,2,0,0,1,2-2h112a2,2,0,0,1,2,2v54A2,2,0,0,1,1519,1050Zm-129,0H1278a2,2,0,0,1-2-2V994a2,2,0,0,1,2-2h112a2,2,0,0,1,2,2v54A2,2,0,0,1,1390,1050Zm-129,0H1148a2,2,0,0,1-2-2V994a2,2,0,0,1,2-2h113a2,2,0,0,1,2,2v54A2,2,0,0,1,1261,1050Zm-128,0H1019a2,2,0,0,1-2-2V994a2,2,0,0,1,2-2h114a2,2,0,0,1,2,2v54A2,2,0,0,1,1133,1050Zm1612-71H2633a2,2,0,0,1-2-2V922a2,2,0,0,1,2-2h112a2,2,0,0,1,2,2v55A2,2,0,0,1,2745,979Zm-129,0H2504a2,2,0,0,1-2-2V922a2,2,0,0,1,2-2h112a2,2,0,0,1,2,2v55A2,2,0,0,1,2616,979Zm-129,0H2374a2,2,0,0,1-2-2V922a2,2,0,0,1,2-2h113a2,2,0,0,1,2,2v55A2,2,0,0,1,2487,979Zm-128,0H2245a2,2,0,0,1-2-2V922a2,2,0,0,1,2-2h114a2,2,0,0,1,2,2v55A2,2,0,0,1,2359,979Zm-130,0H2117a2,2,0,0,1-2-2V922a2,2,0,0,1,2-2h112a2,2,0,0,1,2,2v55A2,2,0,0,1,2229,979Zm-129,0H1988a2,2,0,0,1-2-2V922a2,2,0,0,1,2-2h112a2,2,0,0,1,2,2v55A2,2,0,0,1,2100,979Zm-129,0H1858a2,2,0,0,1-2-2V922a2,2,0,0,1,2-2h113a2,2,0,0,1,2,2v55A2,2,0,0,1,1971,979Zm-130,0H1729a2,2,0,0,1-2-2V922a2,2,0,0,1,2-2h112a2,2,0,0,1,2,2v55A2,2,0,0,1,1841,979Zm-128,0H1601a2,2,0,0,1-2-2V922a2,2,0,0,1,2-2h112a2,2,0,0,1,2,2v55A2,2,0,0,1,1713,979Zm-129,0H1471a2,2,0,0,1-2-2V922a2,2,0,0,1,2-2h113a2,2,0,0,1,2,2v55A2,2,0,0,1,1584,979Zm-130,0H1342a2,2,0,0,1-2-2V922a2,2,0,0,1,2-2h112a2,2,0,0,1,2,2v55A2,2,0,0,1,1454,979Zm-128,0H1214a2,2,0,0,1-2-2V922a2,2,0,0,1,2-2h112a2,2,0,0,1,2,2v55A2,2,0,0,1,1326,979Zm-129,0H1084a2,2,0,0,1-2-2V922a2,2,0,0,1,2-2h113a2,2,0,0,1,2,2v55A2,2,0,0,1,1197,979Zm-130,0H955a2,2,0,0,1-2-2V922a2,2,0,0,1,2-2h112a2,2,0,0,1,2,2v55A2,2,0,0,1,1067,979Zm516-71h-48a2,2,0,0,1-2-2V852a2,2,0,0,1,2-2h48v58Zm1227,0h-31V850h31a2,2,0,0,1,2,2v54A2,2,0,0,1,2810,908Zm-387,0H2310a2,2,0,0,1-2-2V852a2,2,0,0,1,2-2h113a2,2,0,0,1,1,.268v57.464A2,2,0,0,1,2423,908Zm-130,0H2181a2,2,0,0,1-2-2V852a2,2,0,0,1,2-2h112a2,2,0,0,1,2,2v54A2,2,0,0,1,2293,908Zm-129,0H2052a2,2,0,0,1-2-2V852a2,2,0,0,1,2-2h112a2,2,0,0,1,2,2v54A2,2,0,0,1,2164,908Zm-128,0h-98V850h98a2,2,0,0,1,2,2v54A2,2,0,0,1,2036,908Zm-517,0H1407a2,2,0,0,1-2-2V852a2,2,0,0,1,2-2h112a2,2,0,0,1,2,2v54A2,2,0,0,1,1519,908Zm-129,0H1278a2,2,0,0,1-2-2V852a2,2,0,0,1,2-2h112a2,2,0,0,1,2,2v54A2,2,0,0,1,1390,908Zm-129,0H1148a2,2,0,0,1-2-2V852a2,2,0,0,1,2-2h113a2,2,0,0,1,2,2v54A2,2,0,0,1,1261,908Zm-128,0H1019a2,2,0,0,1-2-2V852a2,2,0,0,1,2-2h114a2,2,0,0,1,2,2v54A2,2,0,0,1,1133,908Zm1291-70h-50a2,2,0,0,1-2-2V781a2,2,0,0,1,2-2h50v59Zm-841,0H1471a2,2,0,0,1-2-2V781a2,2,0,0,1,2-2h112v59Zm776,0H2245a2,2,0,0,1-2-2V781a2,2,0,0,1,2-2h114a2,2,0,0,1,2,2v55A2,2,0,0,1,2359,838Zm-130,0H2117a2,2,0,0,1-2-2V781a2,2,0,0,1,2-2h112a2,2,0,0,1,2,2v55A2,2,0,0,1,2229,838Zm-129,0H1988a2,2,0,0,1-2-2V781a2,2,0,0,1,2-2h112a2,2,0,0,1,2,2v55A2,2,0,0,1,2100,838Zm-129,0h-33V779h33a2,2,0,0,1,2,2v55A2,2,0,0,1,1971,838Zm-517,0H1342a2,2,0,0,1-2-2V781a2,2,0,0,1,2-2h112a2,2,0,0,1,2,2v55A2,2,0,0,1,1454,838Zm-128,0H1214a2,2,0,0,1-2-2V781a2,2,0,0,1,2-2h112a2,2,0,0,1,2,2v55A2,2,0,0,1,1326,838Zm-129,0H1084a2,2,0,0,1-2-2V781a2,2,0,0,1,2-2h113a2,2,0,0,1,2,2v55A2,2,0,0,1,1197,838Zm-130,0H955a2,2,0,0,1-2-2V781a2,2,0,0,1,2-2h112a2,2,0,0,1,2,2v55A2,2,0,0,1,1067,838Zm516-72h-48a2,2,0,0,1-2-2V710a2,2,0,0,1,2-2h48v58Zm1227,0h-31V708h31a2,2,0,0,1,2,2v54A2,2,0,0,1,2810,766Zm-387,0H2310a2,2,0,0,1-2-2V710a2,2,0,0,1,2-2h113a2,2,0,0,1,1,.268v57.464A2,2,0,0,1,2423,766Zm-130,0H2181a2,2,0,0,1-2-2V710a2,2,0,0,1,2-2h112a2,2,0,0,1,2,2v54A2,2,0,0,1,2293,766Zm-129,0H2052a2,2,0,0,1-2-2V710a2,2,0,0,1,2-2h112a2,2,0,0,1,2,2v54A2,2,0,0,1,2164,766Zm-128,0h-98V708h98a2,2,0,0,1,2,2v54A2,2,0,0,1,2036,766Zm-517,0H1407a2,2,0,0,1-2-2V710a2,2,0,0,1,2-2h112a2,2,0,0,1,2,2v54A2,2,0,0,1,1519,766Zm-129,0H1278a2,2,0,0,1-2-2V710a2,2,0,0,1,2-2h112a2,2,0,0,1,2,2v54A2,2,0,0,1,1390,766Zm-129,0H1148a2,2,0,0,1-2-2V710a2,2,0,0,1,2-2h113a2,2,0,0,1,2,2v54A2,2,0,0,1,1261,766Zm-128,0H1019a2,2,0,0,1-2-2V710a2,2,0,0,1,2-2h114a2,2,0,0,1,2,2v54A2,2,0,0,1,1133,766Zm1291-71h-50a2,2,0,0,1-2-2V640a2,2,0,0,1,2-2h50v57Zm-841,0H1471a2,2,0,0,1-2-2V640a2,2,0,0,1,2-2h112v57Zm776,0H2245a2,2,0,0,1-2-2V640a2,2,0,0,1,2-2h114a2,2,0,0,1,2,2v53A2,2,0,0,1,2359,695Zm-130,0H2117a2,2,0,0,1-2-2V640a2,2,0,0,1,2-2h112a2,2,0,0,1,2,2v53A2,2,0,0,1,2229,695Zm-129,0H1988a2,2,0,0,1-2-2V640a2,2,0,0,1,2-2h112a2,2,0,0,1,2,2v53A2,2,0,0,1,2100,695Zm-129,0h-33V638h33a2,2,0,0,1,2,2v53A2,2,0,0,1,1971,695Zm-517,0H1342a2,2,0,0,1-2-2V640a2,2,0,0,1,2-2h112a2,2,0,0,1,2,2v53A2,2,0,0,1,1454,695Zm-128,0H1214a2,2,0,0,1-2-2V640a2,2,0,0,1,2-2h112a2,2,0,0,1,2,2v53A2,2,0,0,1,1326,695Zm-129,0H1084a2,2,0,0,1-2-2V640a2,2,0,0,1,2-2h113a2,2,0,0,1,2,2v53A2,2,0,0,1,1197,695Zm-130,0H955a2,2,0,0,1-2-2V640a2,2,0,0,1,2-2h112a2,2,0,0,1,2,2v53A2,2,0,0,1,1067,695Zm516-70h-48a2,2,0,0,1-2-2V568a1.991,1.991,0,0,1,1.941-2H1583v59Zm1227,0h-31V566h31a2,2,0,0,1,2,2v55A2,2,0,0,1,2810,625Zm-387,0H2310a2,2,0,0,1-2-2V568a2,2,0,0,1,2-2h113a2,2,0,0,1,1,.268v58.465A2,2,0,0,1,2423,625Zm-130,0H2181a2,2,0,0,1-2-2V568a2,2,0,0,1,2-2h112a2,2,0,0,1,2,2v55A2,2,0,0,1,2293,625Zm-129,0H2052a2,2,0,0,1-2-2V568a2,2,0,0,1,2-2h112a2,2,0,0,1,2,2v55A2,2,0,0,1,2164,625Zm-128,0h-98V566h98a2,2,0,0,1,2,2v55A2,2,0,0,1,2036,625Zm-517,0H1407a2,2,0,0,1-2-2V568a1.99,1.99,0,0,1,1.94-2h112.12a1.99,1.99,0,0,1,1.94,2v55A2,2,0,0,1,1519,625Zm-129,0H1278a2,2,0,0,1-2-2V568a1.99,1.99,0,0,1,1.94-2h112.12a1.99,1.99,0,0,1,1.94,2v55A2,2,0,0,1,1390,625Zm-129,0H1148a2,2,0,0,1-2-2V568a2,2,0,0,1,2-2H1261.06a1.99,1.99,0,0,1,1.94,2v55A2,2,0,0,1,1261,625Zm-128,0H1019a2,2,0,0,1-2-2V568a2,2,0,0,1,2-2h114a2,2,0,0,1,2,2v55A2,2,0,0,1,1133,625Zm1291-71h-50a2,2,0,0,1-2-2V497a2,2,0,0,1,2-2h50v59Zm-841,0h-34V495h34v59Zm-390,0H1084a2,2,0,0,1-2-2V497a2,2,0,0,1,2-2h109v59Zm1166,0h-32V495h32a2,2,0,0,1,2,2v55A2,2,0,0,1,2359,554Zm-388,0h-33V495h33a2,2,0,0,1,1,.268v58.465A2,2,0,0,1,1971,554Zm-904,0H955a2,2,0,0,1-2-2V497a2,2,0,0,1,2-2h112a2,2,0,0,1,2,2v55A2,2,0,0,1,1067,554Zm905-70h-34v-1h-17.732a2,2,0,0,1-.268-1V427a2,2,0,0,1,2-2h50v59Zm-779,0h-45a2,2,0,0,1-2-2V427a2,2,0,0,1,2-2h45v59Zm1617,0H2697a2,2,0,0,1-2-2V427a2,2,0,0,1,2-2h113a2,2,0,0,1,2,2v55A2,2,0,0,1,2810,484Zm-130,0H2568a2,2,0,0,1-2-2V427a2,2,0,0,1,2-2h112a2,2,0,0,1,2,2v55A2,2,0,0,1,2680,484Zm-128,0H2439a2,2,0,0,1-2-2V427a2,2,0,0,1,2-2h113a2,2,0,0,1,2,2v55A2,2,0,0,1,2552,484Zm-129,0h-96V425h96a2,2,0,0,1,2,2v55A2,2,0,0,1,2423,484Zm-840,0h-34V425h99a2,2,0,0,1,2,2v55a2,2,0,0,1-.268,1H1583v1Zm-450,0H1019a2,2,0,0,1-2-2V427a2,2,0,0,1,2-2h114a2,2,0,0,1,2,2v55A2,2,0,0,1,1133,484Zm774.732-1H1792.268a2,2,0,0,1-.268-1V427a2,2,0,0,1,2-2h112a2,2,0,0,1,2,2v55a1.994,1.994,0,0,1-.268,1Zm-129,0H1663.268a2,2,0,0,1-.268-1V427a2,2,0,0,1,2-2h112a2,2,0,0,1,2,2v55a2,2,0,0,1-.268,1ZM1193,412H1084a2,2,0,0,1-2-2V356a2,2,0,0,1,2-2h109v58Zm1552,0H2633a2,2,0,0,1-2-2V356a2,2,0,0,1,2-2h112a2,2,0,0,1,2,2v54A2,2,0,0,1,2745,412Zm-129,0H2504a2,2,0,0,1-2-2V356a2,2,0,0,1,2-2h112a2,2,0,0,1,2,2v54A2,2,0,0,1,2616,412Zm-129,0H2374a2,2,0,0,1-2-2V356a2,2,0,0,1,2-2h113a2,2,0,0,1,2,2v54A2,2,0,0,1,2487,412Zm-128,0h-32V354h32a2,2,0,0,1,2,2v54A2,2,0,0,1,2359,412Zm-388,0H1858a2,2,0,0,1-2-2V356a2,2,0,0,1,2-2h113a2,2,0,0,1,1,.268v57.465A2,2,0,0,1,1971,412Zm-130,0H1729a2,2,0,0,1-2-2V356a2,2,0,0,1,2-2h112a2,2,0,0,1,2,2v54A2,2,0,0,1,1841,412Zm-128,0H1601a2,2,0,0,1-2-2V356a2,2,0,0,1,2-2h112a2,2,0,0,1,2,2v54A2,2,0,0,1,1713,412Zm-129,0h-35V354h35a2,2,0,0,1,2,2v54A2,2,0,0,1,1584,412Zm-517,0H955a2,2,0,0,1-2-2V356a2,2,0,0,1,2-2h112a2,2,0,0,1,2,2v54A2,2,0,0,1,1067,412Zm905-71h-50a2,2,0,0,1-2-2V286a2,2,0,0,1,2-2h50v57Zm-779,0h-45a2,2,0,0,1-2-2V286a2,2,0,0,1,2-2h45v57Zm1617,0H2697a2,2,0,0,1-2-2V286a2,2,0,0,1,2-2h113a2,2,0,0,1,2,2v53A2,2,0,0,1,2810,341Zm-130,0H2568a2,2,0,0,1-2-2V286a2,2,0,0,1,2-2h112a2,2,0,0,1,2,2v53A2,2,0,0,1,2680,341Zm-128,0H2439a2,2,0,0,1-2-2V286a2,2,0,0,1,2-2h113a2,2,0,0,1,2,2v53A2,2,0,0,1,2552,341Zm-129,0h-96V284h96a2,2,0,0,1,2,2v53A2,2,0,0,1,2423,341Zm-517,0H1794a2,2,0,0,1-2-2V286a2,2,0,0,1,2-2h112a2,2,0,0,1,2,2v53A2,2,0,0,1,1906,341Zm-129,0H1665a2,2,0,0,1-2-2V286a2,2,0,0,1,2-2h112a2,2,0,0,1,2,2v53A2,2,0,0,1,1777,341Zm-129,0h-99V284h99a2,2,0,0,1,2,2v53A2,2,0,0,1,1648,341Zm-515,0H1019a2,2,0,0,1-2-2V286a2,2,0,0,1,2-2h114a2,2,0,0,1,2,2v53A2,2,0,0,1,1133,341Zm60-70H1084a2,2,0,0,1-2-2V215a2,2,0,0,1,2-2h109v58Zm1552,0H2633a2,2,0,0,1-2-2V215a2,2,0,0,1,2-2h112a2,2,0,0,1,2,2v54A2,2,0,0,1,2745,271Zm-129,0H2504a2,2,0,0,1-2-2V215a2,2,0,0,1,2-2h112a2,2,0,0,1,2,2v54A2,2,0,0,1,2616,271Zm-129,0H2374a2,2,0,0,1-2-2V215a2,2,0,0,1,2-2h113a2,2,0,0,1,2,2v54A2,2,0,0,1,2487,271Zm-128,0h-32V213h32a2,2,0,0,1,2,2v54A2,2,0,0,1,2359,271Zm-388,0H1858a2,2,0,0,1-2-2V215a2,2,0,0,1,2-2h113a2,2,0,0,1,1,.268v57.465A2,2,0,0,1,1971,271Zm-130,0H1729a2,2,0,0,1-2-2V215a2,2,0,0,1,2-2h112a2,2,0,0,1,2,2v54A2,2,0,0,1,1841,271Zm-128,0H1601a2,2,0,0,1-2-2V215a2,2,0,0,1,2-2h112a2,2,0,0,1,2,2v54A2,2,0,0,1,1713,271Zm-129,0h-35V213h35a2,2,0,0,1,2,2v54A2,2,0,0,1,1584,271Zm-517,0H955a2,2,0,0,1-2-2V215a2,2,0,0,1,2-2h112a2,2,0,0,1,2,2v54A2,2,0,0,1,1067,271Zm905-71h-50a2,2,0,0,1-2-2V143a2,2,0,0,1,2-2h50v59Zm-779,0h-45a2,2,0,0,1-2-2V143a2,2,0,0,1,2-2h45v59Zm1617,0H2697a2,2,0,0,1-2-2V143a2,2,0,0,1,2-2h113a2,2,0,0,1,2,2v55A2,2,0,0,1,2810,200Zm-130,0H2568a2,2,0,0,1-2-2V143a2,2,0,0,1,2-2h112a2,2,0,0,1,2,2v55A2,2,0,0,1,2680,200Zm-128,0H2439a2,2,0,0,1-2-2V143a2,2,0,0,1,2-2h113a2,2,0,0,1,2,2v55A2,2,0,0,1,2552,200Zm-129,0h-96V141h96a2,2,0,0,1,2,2v55A2,2,0,0,1,2423,200Zm-517,0H1794a2,2,0,0,1-2-2V143a2,2,0,0,1,2-2h112a2,2,0,0,1,2,2v55A2,2,0,0,1,1906,200Zm-129,0H1665a2,2,0,0,1-2-2V143a2,2,0,0,1,2-2h112a2,2,0,0,1,2,2v55A2,2,0,0,1,1777,200Zm-129,0h-99V141h99a2,2,0,0,1,2,2v55A2,2,0,0,1,1648,200Zm-515,0H1019a2,2,0,0,1-2-2V143a2,2,0,0,1,2-2h114a2,2,0,0,1,2,2v55A2,2,0,0,1,1133,200Zm1612-71H2633a2,2,0,0,1-2-2V73a2,2,0,0,1,2-2h112a2,2,0,0,1,2,2v54A2,2,0,0,1,2745,129Zm-129,0H2504a2,2,0,0,1-2-2V73a2,2,0,0,1,2-2h112a2,2,0,0,1,2,2v54A2,2,0,0,1,2616,129Zm-129,0H2374a2,2,0,0,1-2-2V73a2,2,0,0,1,2-2h113a2,2,0,0,1,2,2v54A2,2,0,0,1,2487,129Zm-128,0H2245a2,2,0,0,1-2-2V73a2,2,0,0,1,2-2h114a2,2,0,0,1,2,2v54A2,2,0,0,1,2359,129Zm-130,0H2117a2,2,0,0,1-2-2V73a2,2,0,0,1,2-2h112a2,2,0,0,1,2,2v54A2,2,0,0,1,2229,129Zm-129,0H1988a2,2,0,0,1-2-2V73a2,2,0,0,1,2-2h112a2,2,0,0,1,2,2v54A2,2,0,0,1,2100,129Zm-129,0H1858a2,2,0,0,1-2-2V73a2,2,0,0,1,2-2h113a2,2,0,0,1,2,2v54A2,2,0,0,1,1971,129Zm-130,0H1729a2,2,0,0,1-2-2V73a2,2,0,0,1,2-2h112a2,2,0,0,1,2,2v54A2,2,0,0,1,1841,129Zm-128,0H1601a2,2,0,0,1-2-2V73a2,2,0,0,1,2-2h112a2,2,0,0,1,2,2v54A2,2,0,0,1,1713,129Zm-129,0H1471a2,2,0,0,1-2-2V73a2,2,0,0,1,2-2h113a2,2,0,0,1,2,2v54A2,2,0,0,1,1584,129Zm-130,0H1342a2,2,0,0,1-2-2V73a2,2,0,0,1,2-2h112a2,2,0,0,1,2,2v54A2,2,0,0,1,1454,129Zm-128,0H1214a2,2,0,0,1-2-2V73a2,2,0,0,1,2-2h112a2,2,0,0,1,2,2v54A2,2,0,0,1,1326,129Zm-129,0H1084a2,2,0,0,1-2-2V73a2,2,0,0,1,2-2h113a2,2,0,0,1,2,2v54A2,2,0,0,1,1197,129Zm-130,0H955a2,2,0,0,1-2-2V73a2,2,0,0,1,2-2h112a2,2,0,0,1,2,2v54A2,2,0,0,1,1067,129ZM2810,59H2697a2,2,0,0,1-2-2V2a2,2,0,0,1,2-2h113a2,2,0,0,1,2,2V57A2,2,0,0,1,2810,59Zm-130,0H2568a2,2,0,0,1-2-2V2a2,2,0,0,1,2-2h112a2,2,0,0,1,2,2V57A2,2,0,0,1,2680,59Zm-128,0H2439a2,2,0,0,1-2-2V2a2,2,0,0,1,2-2h113a2,2,0,0,1,2,2V57A2,2,0,0,1,2552,59Zm-129,0H2310a2,2,0,0,1-2-2V2a2,2,0,0,1,2-2h113a2,2,0,0,1,2,2V57A2,2,0,0,1,2423,59Zm-130,0H2181a2,2,0,0,1-2-2V2a2,2,0,0,1,2-2h112a2,2,0,0,1,2,2V57A2,2,0,0,1,2293,59Zm-129,0H2052a2,2,0,0,1-2-2V2a2,2,0,0,1,2-2h112a2,2,0,0,1,2,2V57A2,2,0,0,1,2164,59Zm-128,0H1922a2,2,0,0,1-2-2V2a2,2,0,0,1,2-2h114a2,2,0,0,1,2,2V57A2,2,0,0,1,2036,59Zm-130,0H1794a2,2,0,0,1-2-2V2a2,2,0,0,1,2-2h112a2,2,0,0,1,2,2V57A2,2,0,0,1,1906,59Zm-129,0H1665a2,2,0,0,1-2-2V2a2,2,0,0,1,2-2h112a2,2,0,0,1,2,2V57A2,2,0,0,1,1777,59Zm-129,0H1535a2,2,0,0,1-2-2V2a2,2,0,0,1,2-2h113a2,2,0,0,1,2,2V57A2,2,0,0,1,1648,59Zm-129,0H1407a2,2,0,0,1-2-2V2a2,2,0,0,1,2-2h112a2,2,0,0,1,2,2V57A2,2,0,0,1,1519,59Zm-129,0H1278a2,2,0,0,1-2-2V2a2,2,0,0,1,2-2h112a2,2,0,0,1,2,2V57A2,2,0,0,1,1390,59Zm-129,0H1148a2,2,0,0,1-2-2V2a2,2,0,0,1,2-2h113a2,2,0,0,1,2,2V57A2,2,0,0,1,1261,59Zm-128,0H1019a2,2,0,0,1-2-2V2a2,2,0,0,1,2-2h114a2,2,0,0,1,2,2V57A2,2,0,0,1,1133,59Z" transform="translate(-502 61)" fill="#2b2a2a"/><g transform="translate(0 -5.218)"><g transform="translate(1933 562)"><path d="M324,408H8a8.009,8.009,0,0,1-8-8V8A8.009,8.009,0,0,1,8,0H324a8.009,8.009,0,0,1,8,8V400A8.009,8.009,0,0,1,324,408ZM21,358a8.009,8.009,0,0,0-8,8v18a8.009,8.009,0,0,0,8,8H310a8.009,8.009,0,0,0,8-8V366a8.009,8.009,0,0,0-8-8Zm175.4-20.2a4.41,4.41,0,0,0,0,8.82h73.335a4.41,4.41,0,1,0,0-8.82Zm-34.9-36.09a20.832,20.832,0,1,0,8.134,1.642A20.766,20.766,0,0,0,161.5,301.713Zm34.661,20.541a4.41,4.41,0,0,0,0,8.821H307.551a4.41,4.41,0,0,0,0-8.821Zm.326-15.628a4.41,4.41,0,0,0,0,8.82h98.285a4.41,4.41,0,1,0,0-8.82ZM121.5,284a3.5,3.5,0,0,0,0,7h88a3.5,3.5,0,0,0,0-7ZM70.183,155.758a12.826,12.826,0,0,0-12.825,12.825v96.187a12.826,12.826,0,0,0,12.825,12.825H260.952a12.824,12.824,0,0,0,12.825-12.825V168.583a12.824,12.824,0,0,0-12.825-12.825ZM30,135a4,4,0,1,0,0,8H264a4,4,0,1,0,0-8Zm-.5-14a3.5,3.5,0,0,0,0,7h255a3.5,3.5,0,0,0,0-7ZM32,89a6,6,0,1,0,0,12h82a6,6,0,0,0,0-12Zm0-17a6,6,0,1,0,0,12H229a6,6,0,1,0,0-12ZM31,55a5,5,0,1,0,0,10H276a5,5,0,0,0,0-10ZM303.039,8.134a12.7,12.7,0,1,0,8.98,3.72A12.617,12.617,0,0,0,303.039,8.134ZM193.5,15a6.5,6.5,0,0,0,0,13h82a6.5,6.5,0,0,0,0-13ZM145.586,239.46a4.009,4.009,0,0,1-4-4.006V198.9a4.009,4.009,0,0,1,4-4,3.957,3.957,0,0,1,1.833.452L182.8,213.622a4,4,0,0,1,0,7.107l-35.379,18.279A3.962,3.962,0,0,1,145.586,239.46Z" transform="translate(0 0.219)" fill="#2b2a2a"/></g></g><path d="M-232.958,209.674h-314a8.009,8.009,0,0,1-8-8v-396a8.009,8.009,0,0,1,8-8h314a8.009,8.009,0,0,1,8,8v396A8.009,8.009,0,0,1-232.958,209.674Zm-300-50a8.009,8.009,0,0,0-8,8v19a8.009,8.009,0,0,0,8,8h285a8.009,8.009,0,0,0,8-8v-19a8.009,8.009,0,0,0-8-8Zm174.523-22.357a4.431,4.431,0,0,0-4.426,4.426,4.431,4.431,0,0,0,4.426,4.426h73.6a4.431,4.431,0,0,0,4.426-4.426,4.431,4.431,0,0,0-4.426-4.426ZM-393.46,101.1a20.843,20.843,0,0,0-8.164,1.648,20.905,20.905,0,0,0-6.667,4.495,20.9,20.9,0,0,0-4.495,6.667,20.843,20.843,0,0,0-1.648,8.164,20.843,20.843,0,0,0,1.648,8.164,20.9,20.9,0,0,0,4.495,6.667,20.905,20.905,0,0,0,6.667,4.495,20.842,20.842,0,0,0,8.164,1.648A20.84,20.84,0,0,0-385.3,141.4a20.9,20.9,0,0,0,6.666-4.495,20.906,20.906,0,0,0,4.495-6.667,20.843,20.843,0,0,0,1.648-8.164,20.843,20.843,0,0,0-1.648-8.164,20.906,20.906,0,0,0-4.495-6.667,20.9,20.9,0,0,0-6.666-4.495A20.84,20.84,0,0,0-393.46,101.1Zm34.788,20.616a4.432,4.432,0,0,0-4.427,4.426,4.432,4.432,0,0,0,4.427,4.426h111.794a4.432,4.432,0,0,0,4.427-4.426,4.432,4.432,0,0,0-4.427-4.426Zm.326-15.685a4.431,4.431,0,0,0-4.426,4.426,4.431,4.431,0,0,0,4.426,4.426H-259.7a4.431,4.431,0,0,0,4.426-4.426,4.431,4.431,0,0,0-4.426-4.426ZM-535.458,79.674a5.506,5.506,0,0,0-5.5,5.5,5.507,5.507,0,0,0,5.5,5.5h98a5.507,5.507,0,0,0,5.5-5.5,5.506,5.506,0,0,0-5.5-5.5Zm-1.5-13a4,4,0,0,0-4,4,4,4,0,0,0,4,4h235a4,4,0,0,0,4-4,4,4,0,0,0-4-4Zm102-14a3,3,0,0,0-3,3,3,3,0,0,0,3,3h90a3,3,0,0,0,3-3,3,3,0,0,0-3-3Zm-72-120a8.009,8.009,0,0,0-8,8v96a8.009,8.009,0,0,0,8,8h233a8.009,8.009,0,0,0,8-8v-96a8.009,8.009,0,0,0-8-8Zm-29.5-19a4.505,4.505,0,0,0-4.5,4.5,4.505,4.505,0,0,0,4.5,4.5h104a4.505,4.505,0,0,0,4.5-4.5,4.505,4.505,0,0,0-4.5-4.5Zm0-13a4.505,4.505,0,0,0-4.5,4.5,4.505,4.505,0,0,0,4.5,4.5h253a4.505,4.505,0,0,0,4.5-4.5,4.505,4.505,0,0,0-4.5-4.5Zm0-33a4.505,4.505,0,0,0-4.5,4.5,4.505,4.505,0,0,0,4.5,4.5h200a4.505,4.505,0,0,0,4.5-4.5,4.505,4.505,0,0,0-4.5-4.5Zm0-14a4.505,4.505,0,0,0-4.5,4.5,4.505,4.505,0,0,0,4.5,4.5h254a4.505,4.505,0,0,0,4.5-4.5,4.505,4.505,0,0,0-4.5-4.5Zm285.053-46.42a12.662,12.662,0,0,0-9.013,3.733A12.663,12.663,0,0,0-264.151-180a12.664,12.664,0,0,0,3.733,9.013,12.662,12.662,0,0,0,9.013,3.733,12.661,12.661,0,0,0,9.012-3.733A12.665,12.665,0,0,0-238.66-180a12.663,12.663,0,0,0-3.732-9.012A12.661,12.661,0,0,0-251.405-192.746Zm-113.053,8.42a5.506,5.506,0,0,0-5.5,5.5,5.506,5.506,0,0,0,5.5,5.5h85a5.506,5.506,0,0,0,5.5-5.5,5.506,5.506,0,0,0-5.5-5.5ZM-371.942,10.34h-37.771a4.727,4.727,0,0,1-4.721-4.721V-22.71a4.727,4.727,0,0,1,4.721-4.721h7.483l4.32-4.721h14.164l4.32,4.721h7.483a4.726,4.726,0,0,1,4.721,4.721V5.619A4.726,4.726,0,0,1-371.942,10.34Zm-18.886-30.689a11.817,11.817,0,0,0-11.8,11.8,11.817,11.817,0,0,0,11.8,11.8,11.817,11.817,0,0,0,11.8-11.8A11.817,11.817,0,0,0-390.828-20.349Zm0,19.357a7.563,7.563,0,0,1-7.555-7.554,7.563,7.563,0,0,1,7.555-7.555,7.563,7.563,0,0,1,7.554,7.555A7.562,7.562,0,0,1-390.828-.992Z" transform="translate(2037.957 402.326)" fill="#2b2a2a"/><g transform="translate(1064.975 836.725)"><g transform="translate(-363.975 -632.725)"><path d="M-680-151H-996a8.009,8.009,0,0,1-8-8V-551a8.009,8.009,0,0,1,8-8h316a8.009,8.009,0,0,1,8,8v392A8.009,8.009,0,0,1-680-151Zm-302-50a8.009,8.009,0,0,0-8,8v19a8.009,8.009,0,0,0,8,8h289a8.009,8.009,0,0,0,8-8v-19a8.009,8.009,0,0,0-8-8Zm175.426-20.021a4.415,4.415,0,0,0-4.41,4.41,4.415,4.415,0,0,0,4.41,4.411h73.335a4.416,4.416,0,0,0,4.411-4.411,4.415,4.415,0,0,0-4.411-4.41Zm-34.9-36.089a20.768,20.768,0,0,0-8.134,1.642,20.828,20.828,0,0,0-6.642,4.478,20.828,20.828,0,0,0-4.478,6.642,20.768,20.768,0,0,0-1.642,8.134,20.768,20.768,0,0,0,1.642,8.134,20.829,20.829,0,0,0,4.478,6.642,20.828,20.828,0,0,0,6.642,4.479,20.766,20.766,0,0,0,8.134,1.642,20.765,20.765,0,0,0,8.134-1.642,20.829,20.829,0,0,0,6.642-4.479,20.828,20.828,0,0,0,4.479-6.642,20.765,20.765,0,0,0,1.642-8.134,20.766,20.766,0,0,0-1.642-8.134,20.827,20.827,0,0,0-4.479-6.642,20.829,20.829,0,0,0-6.642-4.478A20.767,20.767,0,0,0-841.472-257.11Zm34.661,20.541a4.415,4.415,0,0,0-4.41,4.41,4.415,4.415,0,0,0,4.41,4.41h111.389a4.415,4.415,0,0,0,4.41-4.41,4.415,4.415,0,0,0-4.41-4.41Zm.326-15.629a4.415,4.415,0,0,0-4.41,4.411,4.415,4.415,0,0,0,4.41,4.41H-708.2a4.415,4.415,0,0,0,4.41-4.41,4.415,4.415,0,0,0-4.41-4.411ZM-882-276a3,3,0,0,0-3,3,3,3,0,0,0,3,3h89a3,3,0,0,0,3-3,3,3,0,0,0-3-3Zm-50.79-129.936a12.737,12.737,0,0,0-9.068,3.757,12.738,12.738,0,0,0-3.757,9.068v96.187a12.737,12.737,0,0,0,3.757,9.068,12.737,12.737,0,0,0,9.068,3.757h190.77a12.738,12.738,0,0,0,9.068-3.757,12.736,12.736,0,0,0,3.757-9.068V-393.11a12.738,12.738,0,0,0-3.757-9.068,12.738,12.738,0,0,0-9.068-3.757ZM-973-429a4,4,0,0,0-4,4,4,4,0,0,0,4,4h254a4,4,0,0,0,4-4,4,4,0,0,0-4-4Zm1.5-22a5.506,5.506,0,0,0-5.5,5.5,5.507,5.507,0,0,0,5.5,5.5h281a5.507,5.507,0,0,0,5.5-5.5,5.506,5.506,0,0,0-5.5-5.5Zm0-53a5.507,5.507,0,0,0-5.5,5.5,5.506,5.506,0,0,0,5.5,5.5h244a5.506,5.506,0,0,0,5.5-5.5,5.507,5.507,0,0,0-5.5-5.5Zm271.567-46.69a12.617,12.617,0,0,0-8.98,3.72,12.617,12.617,0,0,0-3.72,8.98,12.617,12.617,0,0,0,3.72,8.98,12.617,12.617,0,0,0,8.98,3.72,12.616,12.616,0,0,0,8.98-3.72,12.617,12.617,0,0,0,3.719-8.98,12.617,12.617,0,0,0-3.719-8.98A12.616,12.616,0,0,0-699.934-550.69ZM-809.5-544a6.507,6.507,0,0,0-6.5,6.5,6.507,6.507,0,0,0,6.5,6.5h83a6.507,6.507,0,0,0,6.5-6.5,6.507,6.507,0,0,0-6.5-6.5Zm-33.992,246.087a42.225,42.225,0,0,1-16.4-3.321,44.406,44.406,0,0,1-13.7-9.034,44.318,44.318,0,0,1-9.527-13.358,42.087,42.087,0,0,1-3.893-16.292A43.389,43.389,0,0,1-884.537-356a43.244,43.244,0,0,1,7.814-13.54,43.486,43.486,0,0,1,27.073-14.941,2.739,2.739,0,0,1,.382-.027,2.785,2.785,0,0,1,2.008.869,2.956,2.956,0,0,1,.845,2.07v43.032l28.264,28.266a2.956,2.956,0,0,1,.856,2.344,2.751,2.751,0,0,1-1.14,2.023,43.144,43.144,0,0,1-24.529,7.984h-.027C-843.162-297.914-843.326-297.913-843.493-297.913ZM-803.59-309a3,3,0,0,1-2.108-.872l-28.658-28.658h43.031a2.975,2.975,0,0,1,2.245,1.028,2.742,2.742,0,0,1,.668,2.209,43.124,43.124,0,0,1-4.53,14.05,43.608,43.608,0,0,1-8.732,11.495A2.776,2.776,0,0,1-803.59-309Zm6.459-38.235h-40.58v-40.577a2.94,2.94,0,0,1,2.857-2.944c.068,0,.132,0,.19.006a43.273,43.273,0,0,1,15.252,3.907,43.573,43.573,0,0,1,12.546,8.764,43.561,43.561,0,0,1,8.763,12.545,43.273,43.273,0,0,1,3.908,15.252,2.767,2.767,0,0,1-.759,2.1A2.99,2.99,0,0,1-797.131-347.238Z" transform="translate(1004 559)" fill="#2b2a2a"/></g></g><path d="M159.656-141.214h-316a8.009,8.009,0,0,1-8-8v-399a8.009,8.009,0,0,1,8-8h316a8.009,8.009,0,0,1,8,8v399A8.009,8.009,0,0,1,159.656-141.214Zm-302-49a8.01,8.01,0,0,0-8,8v18a8.009,8.009,0,0,0,8,8h286a8.008,8.008,0,0,0,8-8v-18a8.009,8.009,0,0,0-8-8ZM34.711-214.007a4.432,4.432,0,0,0-4.426,4.427,4.431,4.431,0,0,0,4.426,4.425h73.6a4.431,4.431,0,0,0,4.426-4.425,4.432,4.432,0,0,0-4.426-4.427ZM-.314-250.229a20.842,20.842,0,0,0-8.164,1.648,20.9,20.9,0,0,0-6.667,4.495,20.9,20.9,0,0,0-4.495,6.667,20.843,20.843,0,0,0-1.648,8.164,20.843,20.843,0,0,0,1.648,8.164,20.9,20.9,0,0,0,4.495,6.666,20.9,20.9,0,0,0,6.667,4.494,20.845,20.845,0,0,0,8.164,1.648,20.842,20.842,0,0,0,8.164-1.648,20.9,20.9,0,0,0,6.666-4.494,20.9,20.9,0,0,0,4.495-6.666,20.843,20.843,0,0,0,1.648-8.164,20.843,20.843,0,0,0-1.648-8.164,20.906,20.906,0,0,0-4.495-6.667,20.9,20.9,0,0,0-6.666-4.495A20.84,20.84,0,0,0-.314-250.229Zm34.788,20.615a4.433,4.433,0,0,0-4.427,4.428,4.431,4.431,0,0,0,4.427,4.425h111.8a4.431,4.431,0,0,0,4.426-4.425,4.432,4.432,0,0,0-4.426-4.428ZM34.8-245.3a4.431,4.431,0,0,0-4.426,4.426,4.432,4.432,0,0,0,4.426,4.427h98.644a4.432,4.432,0,0,0,4.426-4.427,4.431,4.431,0,0,0-4.426-4.426Zm-179.142-25.917a6.007,6.007,0,0,0-6,6,6.007,6.007,0,0,0,6,6h97a6.007,6.007,0,0,0,6-6,6.007,6.007,0,0,0-6-6Zm-2-14a4,4,0,0,0-4,4,4,4,0,0,0,4,4h237a4,4,0,0,0,4-4,4,4,0,0,0-4-4Zm.5-20a4.505,4.505,0,0,0-4.5,4.5,4.505,4.505,0,0,0,4.5,4.5h254a4.505,4.505,0,0,0,4.5-4.5,4.505,4.505,0,0,0-4.5-4.5Zm103-16a3.5,3.5,0,0,0-3.5,3.5,3.5,3.5,0,0,0,3.5,3.5h89a3.5,3.5,0,0,0,3.5-3.5,3.5,3.5,0,0,0-3.5-3.5Zm-52.5-123a8.009,8.009,0,0,0-8,8v102a8.009,8.009,0,0,0,8,8h200a8.009,8.009,0,0,0,8-8v-102a8.009,8.009,0,0,0-8-8Zm-49-24a6.007,6.007,0,0,0-6,6,6.006,6.006,0,0,0,6,6h280a6.006,6.006,0,0,0,6-6,6.007,6.007,0,0,0-6-6Zm.5-20a6.508,6.508,0,0,0-6.5,6.5,6.507,6.507,0,0,0,6.5,6.5h84a6.507,6.507,0,0,0,6.5-6.5,6.508,6.508,0,0,0-6.5-6.5Zm-2-17a4.505,4.505,0,0,0-4.5,4.5,4.505,4.505,0,0,0,4.5,4.5h201a4.505,4.505,0,0,0,4.5-4.5,4.505,4.505,0,0,0-4.5-4.5Zm287.584-41.319a12.662,12.662,0,0,0-9.013,3.734A12.663,12.663,0,0,0,129-533.788a12.664,12.664,0,0,0,3.733,9.013,12.662,12.662,0,0,0,9.013,3.733,12.662,12.662,0,0,0,9.013-3.733,12.664,12.664,0,0,0,3.733-9.013,12.663,12.663,0,0,0-3.733-9.012A12.662,12.662,0,0,0,141.741-546.534ZM28.657-537.215a5.006,5.006,0,0,0-5,5,5.006,5.006,0,0,0,5,5h86a5.006,5.006,0,0,0,5-5,5.006,5.006,0,0,0-5-5Zm55.276,196.25H77.886v-5.781h4.32a2.938,2.938,0,0,0,2.073-.722,5.276,5.276,0,0,0,1.253-1.878A10.047,10.047,0,0,0,86.18-352a26.685,26.685,0,0,0,.173-3.035v-17.629a16.1,16.1,0,0,1,.907-5.734,15.136,15.136,0,0,1,2.117-3.9,9.735,9.735,0,0,1,2.462-2.313,7.871,7.871,0,0,1,2.03-.963v-.288a6.291,6.291,0,0,1-2.03-.771,8.431,8.431,0,0,1-2.462-2.167,14.116,14.116,0,0,1-2.117-3.9,17.471,17.471,0,0,1-.907-6.07V-416.3a25.84,25.84,0,0,0-.173-2.939,10.75,10.75,0,0,0-.648-2.7,5.206,5.206,0,0,0-1.253-1.926,2.937,2.937,0,0,0-2.073-.722h-4.32v-5.781h6.047a7.316,7.316,0,0,1,3.283.819,9.411,9.411,0,0,1,2.98,2.408,13.068,13.068,0,0,1,2.2,3.95,15.869,15.869,0,0,1,.864,5.443v17.438a17.255,17.255,0,0,0,.6,4.721,12.182,12.182,0,0,0,1.6,3.565,7.412,7.412,0,0,0,2.289,2.216,5.186,5.186,0,0,0,2.678.77v6.551h-.006a4.973,4.973,0,0,0-2.672.818,7.775,7.775,0,0,0-2.289,2.312,12.889,12.889,0,0,0-1.6,3.613,16.869,16.869,0,0,0-.6,4.623v17.535a15.87,15.87,0,0,1-.864,5.443,13.1,13.1,0,0,1-2.2,3.951,9.41,9.41,0,0,1-2.98,2.407A7.317,7.317,0,0,1,83.933-340.965Zm-157.175,0h-6.047a7.317,7.317,0,0,1-3.283-.82,9.45,9.45,0,0,1-2.98-2.407,13.086,13.086,0,0,1-2.2-3.951,15.87,15.87,0,0,1-.864-5.443v-17.437a17.254,17.254,0,0,0-.6-4.72,12.158,12.158,0,0,0-1.6-3.563,7.413,7.413,0,0,0-2.29-2.218,5.2,5.2,0,0,0-2.678-.77v-6.552h.006a4.964,4.964,0,0,0,2.672-.817,7.76,7.76,0,0,0,2.29-2.313,12.911,12.911,0,0,0,1.6-3.612,16.873,16.873,0,0,0,.6-4.624v-17.534a15.869,15.869,0,0,1,.864-5.443,13.068,13.068,0,0,1,2.2-3.95,9.43,9.43,0,0,1,2.98-2.408,7.316,7.316,0,0,1,3.283-.819h6.047v5.781h-4.319a2.939,2.939,0,0,0-2.074.722,5.239,5.239,0,0,0-1.253,1.878,10.029,10.029,0,0,0-.648,2.649,26.727,26.727,0,0,0-.173,3.037v17.629a16.075,16.075,0,0,1-.907,5.731,15.084,15.084,0,0,1-2.116,3.9,9.723,9.723,0,0,1-2.462,2.313,7.886,7.886,0,0,1-2.03.963v.29a6.237,6.237,0,0,1,2.03.77,8.415,8.415,0,0,1,2.462,2.167,14.079,14.079,0,0,1,2.116,3.9,17.486,17.486,0,0,1,.907,6.071v17.534a25.846,25.846,0,0,0,.173,2.938,10.74,10.74,0,0,0,.648,2.7,5.2,5.2,0,0,0,1.253,1.927,2.939,2.939,0,0,0,2.074.722h4.319v5.78Zm12.84-19.524h-7.855a6.59,6.59,0,0,1-.135-1.867,6.578,6.578,0,0,1,.135-1.866H-60.4a6.578,6.578,0,0,1,.135,1.866A6.59,6.59,0,0,1-60.4-360.489Zm90.807-9.718H-66.722a1.777,1.777,0,0,1-1.669-1.865,1.779,1.779,0,0,1,1.669-1.868H30.406a1.779,1.779,0,0,1,1.669,1.868A1.777,1.777,0,0,1,30.406-370.207Zm44.659-14.322H-65.427a3.258,3.258,0,0,1-3.254-3.254,3.258,3.258,0,0,1,3.254-3.255H75.065a3.258,3.258,0,0,1,3.254,3.255A3.258,3.258,0,0,1,75.065-384.529ZM-30.489-401.736H-65.723a2.563,2.563,0,0,1-2.561-2.56,2.563,2.563,0,0,1,2.561-2.561h35.234a2.563,2.563,0,0,1,2.56,2.561A2.563,2.563,0,0,1-30.489-401.736Z" transform="translate(1256.344 1110.215)" fill="#2b2a2a"/></g></svg>