<svg xmlns="http://www.w3.org/2000/svg" width="1513.675" height="596.095" viewBox="0 0 1513.675 596.095"><g transform="translate(0 104.018)"><path d="M47.629,77.648a4.7,4.7,0,0,1,.893,2.6,3.488,3.488,0,0,1-1.377,2.828A4.984,4.984,0,0,1,43.908,84.2a4.847,4.847,0,0,1-4.093-2.233l-9.9-15.033a9.641,9.641,0,0,0-3.163-3.349,8.639,8.639,0,0,0-4.354-.967H15.107v16.67a4.857,4.857,0,0,1-1.265,3.535,4.552,4.552,0,0,1-3.423,1.3,4.677,4.677,0,0,1-3.461-1.3,4.777,4.777,0,0,1-1.3-3.535V35.749A4.449,4.449,0,0,1,6.884,32.4,4.659,4.659,0,0,1,10.27,31.21h18.6q8.93,0,13.582,3.981t4.651,11.5A14.536,14.536,0,0,1,43.647,56.7a16.382,16.382,0,0,1-9.786,5.023,9.383,9.383,0,0,1,3.8,1.86,16.368,16.368,0,0,1,3.2,3.721Zm-20.093-22.4q5.433,0,7.963-2.047t2.53-6.288q0-4.316-2.53-6.288t-7.963-1.972h-12.5v16.6Zm44.578-8.856q7.591,0,11.275,3.758t3.684,11.423V79.731a4.2,4.2,0,0,1-1.191,3.163,4.508,4.508,0,0,1-3.274,1.154,4.354,4.354,0,0,1-3.163-1.191,4.157,4.157,0,0,1-1.228-3.126V78.094a9.71,9.71,0,0,1-3.981,4.54,11.943,11.943,0,0,1-6.288,1.637,14.6,14.6,0,0,1-6.623-1.488,11.783,11.783,0,0,1-4.688-4.093,10.342,10.342,0,0,1-1.712-5.8,9.2,9.2,0,0,1,2.047-6.326q2.047-2.307,6.661-3.349a60.655,60.655,0,0,1,12.726-1.042h1.861V60.457q0-3.647-1.563-5.321t-5.061-1.674a16.058,16.058,0,0,0-4.391.633q-2.233.633-5.284,1.823a7.441,7.441,0,0,1-2.828.967,2.8,2.8,0,0,1-2.2-.967,3.678,3.678,0,0,1-.856-2.53,3.809,3.809,0,0,1,.633-2.2,6,6,0,0,1,2.121-1.749,24.258,24.258,0,0,1,6.214-2.233A32.063,32.063,0,0,1,72.113,46.391ZM69.806,77.573a7.949,7.949,0,0,0,6.065-2.493,9.018,9.018,0,0,0,2.344-6.437V67.08h-1.34a51.339,51.339,0,0,0-7.74.447,7.514,7.514,0,0,0-3.944,1.563A3.98,3.98,0,0,0,64,72.141a5.049,5.049,0,0,0,1.674,3.907A5.906,5.906,0,0,0,69.806,77.573Zm69.955-31.182q5.954,0,9.116,3.535T152.04,61.35V79.657a4.191,4.191,0,0,1-1.3,3.312,4.917,4.917,0,0,1-3.386,1.154,4.81,4.81,0,0,1-3.312-1.154,4.191,4.191,0,0,1-1.3-3.312V61.35q0-4.093-1.451-5.842a5.424,5.424,0,0,0-4.428-1.749,7.287,7.287,0,0,0-5.8,2.493,10.055,10.055,0,0,0-2.158,6.809v16.6a4.191,4.191,0,0,1-1.3,3.312,4.81,4.81,0,0,1-3.312,1.154,4.951,4.951,0,0,1-3.349-1.154,4.132,4.132,0,0,1-1.34-3.312V61.35q0-4.093-1.451-5.842a5.424,5.424,0,0,0-4.428-1.749,7.177,7.177,0,0,0-5.768,2.493,10.172,10.172,0,0,0-2.121,6.809v16.6a4.132,4.132,0,0,1-1.34,3.312,4.951,4.951,0,0,1-3.349,1.154,4.81,4.81,0,0,1-3.312-1.154,4.191,4.191,0,0,1-1.3-3.312v-28.8a3.931,3.931,0,0,1,1.34-3.2,5.054,5.054,0,0,1,3.349-1.116,4.615,4.615,0,0,1,3.163,1.079,3.893,3.893,0,0,1,1.228,3.088v1.786a11.665,11.665,0,0,1,4.577-4.54,13.533,13.533,0,0,1,6.586-1.563q8.186,0,10.94,6.847a12.3,12.3,0,0,1,4.837-4.986A14.1,14.1,0,0,1,139.761,46.391Zm42.643,0a15.023,15.023,0,0,1,14.1,8.856,22.537,22.537,0,0,1,2.047,9.9,23.275,23.275,0,0,1-2.047,10.009,15.791,15.791,0,0,1-5.73,6.735,15.083,15.083,0,0,1-8.372,2.381,14.263,14.263,0,0,1-7.033-1.712,11.651,11.651,0,0,1-4.726-4.763v1.86a4.185,4.185,0,0,1-1.265,3.2,4.687,4.687,0,0,1-3.349,1.191,4.555,4.555,0,0,1-3.312-1.191,4.252,4.252,0,0,1-1.228-3.2v-44.5a4.035,4.035,0,0,1,1.3-3.126,4.822,4.822,0,0,1,3.386-1.191,4.877,4.877,0,0,1,3.349,1.116,3.86,3.86,0,0,1,1.265,3.051V52.568a11.126,11.126,0,0,1,4.688-4.577A14.677,14.677,0,0,1,182.4,46.391Zm-2.456,30.661a8.216,8.216,0,0,0,6.847-3.126q2.456-3.126,2.456-8.782,0-5.581-2.419-8.558a9.408,9.408,0,0,0-13.768.037q-2.419,3.014-2.419,8.67T173.063,74A8.274,8.274,0,0,0,179.947,77.052Zm30.884,7.07a4.81,4.81,0,0,1-3.312-1.154,4.191,4.191,0,0,1-1.3-3.312V35.228a4.075,4.075,0,0,1,1.3-3.274,4.909,4.909,0,0,1,3.312-1.116,5.054,5.054,0,0,1,3.349,1.116,4.019,4.019,0,0,1,1.34,3.274V79.657a4.132,4.132,0,0,1-1.34,3.312A4.951,4.951,0,0,1,210.831,84.122Zm18.9,0a4.81,4.81,0,0,1-3.312-1.154,4.191,4.191,0,0,1-1.3-3.312V50.931a4.075,4.075,0,0,1,1.3-3.274,4.909,4.909,0,0,1,3.312-1.116,5.054,5.054,0,0,1,3.349,1.116,4.019,4.019,0,0,1,1.34,3.274V79.657a4.132,4.132,0,0,1-1.34,3.312A4.951,4.951,0,0,1,229.734,84.122Zm0-44.205a5.686,5.686,0,0,1-4.019-1.377,4.687,4.687,0,0,1-1.488-3.609,4.571,4.571,0,0,1,1.488-3.572,6.642,6.642,0,0,1,8,0,4.518,4.518,0,0,1,1.526,3.572,4.687,4.687,0,0,1-1.488,3.609A5.686,5.686,0,0,1,229.734,39.917Zm35.424,6.475q6.549,0,9.749,3.721t3.2,11.237V79.657a4.349,4.349,0,0,1-1.228,3.274,4.659,4.659,0,0,1-3.386,1.191,4.793,4.793,0,0,1-3.423-1.191,4.279,4.279,0,0,1-1.265-3.274V61.871q0-4.242-1.6-6.177t-5.023-1.935a8.491,8.491,0,0,0-6.437,2.53,9.392,9.392,0,0,0-2.419,6.772v16.6a4.279,4.279,0,0,1-1.265,3.274,4.793,4.793,0,0,1-3.423,1.191,4.659,4.659,0,0,1-3.386-1.191,4.349,4.349,0,0,1-1.228-3.274v-28.8a4.093,4.093,0,0,1,1.265-3.126,4.793,4.793,0,0,1,3.423-1.191,4.433,4.433,0,0,1,3.163,1.154,3.945,3.945,0,0,1,1.228,3.014v2.009a12.585,12.585,0,0,1,4.986-4.688A15.006,15.006,0,0,1,265.158,46.391Zm53.21.149a4.687,4.687,0,0,1,3.349,1.191,4.185,4.185,0,0,1,1.265,3.2v29.4q0,8.558-4.763,12.949t-14.065,4.391q-8.112,0-13.544-3.051-2.754-1.637-2.754-3.944a4.025,4.025,0,0,1,.781-2.6,2.5,2.5,0,0,1,2.047-.967,5.176,5.176,0,0,1,1.637.335q.967.335,2.009.781a42.661,42.661,0,0,0,4.8,1.712,18.086,18.086,0,0,0,4.874.6q9.749,0,9.749-9.526V76.234a11.365,11.365,0,0,1-4.763,4.726,14.893,14.893,0,0,1-7.144,1.674,15.771,15.771,0,0,1-8.447-2.27A15.6,15.6,0,0,1,287.633,74a20.554,20.554,0,0,1-2.084-9.451,21.1,21.1,0,0,1,2.047-9.489,15.217,15.217,0,0,1,5.768-6.4,15.963,15.963,0,0,1,8.484-2.27,14.893,14.893,0,0,1,7.144,1.674,11.365,11.365,0,0,1,4.763,4.726V50.857a4.093,4.093,0,0,1,1.265-3.126A4.687,4.687,0,0,1,318.368,46.54ZM304.3,75.415a8.68,8.68,0,0,0,6.958-2.9q2.493-2.9,2.493-7.963,0-5.135-2.493-8.037a9.748,9.748,0,0,0-13.879,0q-2.53,2.9-2.53,8.037,0,5.061,2.53,7.963A8.705,8.705,0,0,0,304.3,75.415Zm34.308-4.564a6.089,6.089,0,0,1,4.9,2.227q1.87,2.227,1.87,6.5A20.408,20.408,0,0,1,339.5,94.185a3.489,3.489,0,0,1-2.494,1.158,3.328,3.328,0,0,1-2.316-.891,2.79,2.79,0,0,1-.98-2.137,3.023,3.023,0,0,1,.891-2.048,13.648,13.648,0,0,0,3.473-6.412,6.552,6.552,0,0,1-4.23-2,6.032,6.032,0,0,1-1.648-4.319,6.635,6.635,0,0,1,1.826-4.765A6.071,6.071,0,0,1,338.61,70.851ZM22.847,191.408a4.777,4.777,0,0,1-3.535-1.3,4.677,4.677,0,0,1-1.3-3.461V146.458H4.465Q0,146.458,0,142.514t4.465-3.944H41.154q4.465,0,4.465,3.944t-4.465,3.944H27.61v40.187a4.479,4.479,0,0,1-4.763,4.763ZM73.452,153.9a4.793,4.793,0,0,1,3.423,1.191,4.185,4.185,0,0,1,1.265,3.2v28.875a4.035,4.035,0,0,1-1.3,3.126,4.822,4.822,0,0,1-3.386,1.191,4.49,4.49,0,0,1-3.2-1.116,3.98,3.98,0,0,1-1.191-3.051v-1.861a11.855,11.855,0,0,1-4.614,4.577,13.336,13.336,0,0,1-6.549,1.6q-13.4,0-13.4-15.033V158.291a4.185,4.185,0,0,1,1.265-3.2,4.687,4.687,0,0,1,3.349-1.191,4.793,4.793,0,0,1,3.423,1.191,4.185,4.185,0,0,1,1.265,3.2v18.382q0,3.87,1.563,5.73t4.912,1.861a8.01,8.01,0,0,0,6.214-2.568,9.707,9.707,0,0,0,2.344-6.809v-16.6a4.185,4.185,0,0,1,1.265-3.2A4.687,4.687,0,0,1,73.452,153.9Zm33.266,30.661q3.721.223,3.721,3.349a3.027,3.027,0,0,1-1.451,2.716,6.924,6.924,0,0,1-4.13.781l-2.009-.149q-12.5-.893-12.5-13.4V161.64H86.625a4.725,4.725,0,0,1-3.088-.893,3.683,3.683,0,0,1,0-5.209,4.725,4.725,0,0,1,3.088-.893h3.721V147.8a4.185,4.185,0,0,1,1.265-3.2,4.793,4.793,0,0,1,3.423-1.191,4.687,4.687,0,0,1,3.349,1.191,4.185,4.185,0,0,1,1.265,3.2v6.847h6.326a4.725,4.725,0,0,1,3.088.893,3.683,3.683,0,0,1,0,5.209,4.725,4.725,0,0,1-3.088.893H99.648v16.893q0,5.507,5.061,5.879Zm25.154,7.07a20.023,20.023,0,0,1-9.786-2.307,15.963,15.963,0,0,1-6.512-6.623,21,21,0,0,1-2.307-10.047,20.78,20.78,0,0,1,2.307-10.009,16.018,16.018,0,0,1,6.512-6.586,21.91,21.91,0,0,1,19.572,0,15.784,15.784,0,0,1,6.475,6.586,21.058,21.058,0,0,1,2.27,10.009,21.281,21.281,0,0,1-2.27,10.047,15.732,15.732,0,0,1-6.475,6.623A20.023,20.023,0,0,1,131.872,191.631Zm-.074-7.219a8.34,8.34,0,0,0,6.921-2.977q2.381-2.977,2.381-8.782,0-5.73-2.381-8.744a8.211,8.211,0,0,0-6.847-3.014,8.317,8.317,0,0,0-6.884,3.014q-2.419,3.014-2.419,8.744,0,5.8,2.381,8.782A8.255,8.255,0,0,0,131.8,184.412ZM178.384,153.9a4.006,4.006,0,0,1,3.051.819,3.633,3.633,0,0,1,1.116,2.9,4.054,4.054,0,0,1-.967,2.977,5.943,5.943,0,0,1-3.5,1.265l-2.233.223q-4.391.447-6.437,2.977a9.734,9.734,0,0,0-2.047,6.326v15.628a4.132,4.132,0,0,1-1.34,3.312,4.951,4.951,0,0,1-3.349,1.154,4.81,4.81,0,0,1-3.312-1.154,4.191,4.191,0,0,1-1.3-3.312v-28.8a3.984,3.984,0,0,1,1.3-3.2,4.8,4.8,0,0,1,3.237-1.116,4.476,4.476,0,0,1,3.126,1.079,3.955,3.955,0,0,1,1.191,3.088v2.977a11.015,11.015,0,0,1,4.2-5.061,12.891,12.891,0,0,1,6.214-2.009Zm12.8,37.582a4.81,4.81,0,0,1-3.312-1.154,4.191,4.191,0,0,1-1.3-3.312V158.291a4.075,4.075,0,0,1,1.3-3.274,4.909,4.909,0,0,1,3.312-1.116,5.054,5.054,0,0,1,3.349,1.116,4.019,4.019,0,0,1,1.34,3.274v28.726a4.132,4.132,0,0,1-1.34,3.312A4.951,4.951,0,0,1,191.185,191.482Zm0-44.205a5.686,5.686,0,0,1-4.019-1.377,4.687,4.687,0,0,1-1.488-3.609,4.57,4.57,0,0,1,1.488-3.572,6.642,6.642,0,0,1,8,0,4.518,4.518,0,0,1,1.526,3.572A4.687,4.687,0,0,1,195.2,145.9,5.686,5.686,0,0,1,191.185,147.277Zm30.066,6.475q7.591,0,11.275,3.758t3.684,11.423v18.158a4.2,4.2,0,0,1-1.191,3.163,4.508,4.508,0,0,1-3.274,1.154,4.354,4.354,0,0,1-3.163-1.191,4.157,4.157,0,0,1-1.228-3.126v-1.637a9.71,9.71,0,0,1-3.981,4.54,11.942,11.942,0,0,1-6.288,1.637,14.6,14.6,0,0,1-6.623-1.488,11.782,11.782,0,0,1-4.688-4.093,10.342,10.342,0,0,1-1.712-5.8,9.2,9.2,0,0,1,2.047-6.326q2.047-2.307,6.661-3.349a60.656,60.656,0,0,1,12.726-1.042h1.861v-1.712q0-3.647-1.563-5.321t-5.061-1.674a16.058,16.058,0,0,0-4.391.633q-2.233.633-5.284,1.823a7.441,7.441,0,0,1-2.828.967,2.8,2.8,0,0,1-2.2-.967,3.678,3.678,0,0,1-.856-2.53,3.809,3.809,0,0,1,.633-2.2,6,6,0,0,1,2.121-1.749,24.258,24.258,0,0,1,6.214-2.233A32.061,32.061,0,0,1,221.25,153.751Zm-2.307,31.182a7.949,7.949,0,0,0,6.065-2.493A9.018,9.018,0,0,0,227.353,176V174.44h-1.34a51.34,51.34,0,0,0-7.74.447,7.514,7.514,0,0,0-3.944,1.563,3.98,3.98,0,0,0-1.191,3.051,5.049,5.049,0,0,0,1.674,3.907A5.906,5.906,0,0,0,218.943,184.933Zm31.331,6.549a4.81,4.81,0,0,1-3.312-1.154,4.191,4.191,0,0,1-1.3-3.312V142.588a4.075,4.075,0,0,1,1.3-3.274,4.909,4.909,0,0,1,3.312-1.116,5.054,5.054,0,0,1,3.349,1.116,4.019,4.019,0,0,1,1.34,3.274v44.429a4.132,4.132,0,0,1-1.34,3.312A4.951,4.951,0,0,1,250.274,191.482Zm27.461.149q-8.112,0-13.1-3.2a4.439,4.439,0,0,1-2.381-4.019,3.527,3.527,0,0,1,.819-2.419,2.575,2.575,0,0,1,2.009-.93,8.22,8.22,0,0,1,3.5,1.191,32.582,32.582,0,0,0,4.354,1.712,17.73,17.73,0,0,0,5.023.6,9.554,9.554,0,0,0,4.875-1.042,3.227,3.227,0,0,0,1.749-2.9,2.8,2.8,0,0,0-.707-2.009,6.482,6.482,0,0,0-2.53-1.377,53.215,53.215,0,0,0-5.544-1.451q-6.623-1.34-9.489-3.8a8.446,8.446,0,0,1-2.865-6.772,9.772,9.772,0,0,1,1.935-5.916A12.539,12.539,0,0,1,270.7,155.2a19.386,19.386,0,0,1,7.7-1.451,23.086,23.086,0,0,1,6.028.781,18.325,18.325,0,0,1,5.209,2.27,4.491,4.491,0,0,1,2.381,3.944,3.818,3.818,0,0,1-.819,2.493,2.5,2.5,0,0,1-2.009,1,4.025,4.025,0,0,1-1.6-.335,21.478,21.478,0,0,1-1.972-1,31.205,31.205,0,0,0-3.721-1.674,11.606,11.606,0,0,0-3.87-.558,7.493,7.493,0,0,0-4.354,1.116,3.527,3.527,0,0,0-1.6,3.051,3.1,3.1,0,0,0,1.637,2.828,23.444,23.444,0,0,0,6.326,1.935,36.091,36.091,0,0,1,7.814,2.381,9.151,9.151,0,0,1,4.056,3.349,9.715,9.715,0,0,1,1.228,5.135,9.543,9.543,0,0,1-4.2,8.112Q284.73,191.631,277.735,191.631ZM15.207,257.471q5.6,0,8.317,2.772t2.718,8.427v13.4a3.1,3.1,0,0,1-.878,2.333,3.325,3.325,0,0,1-2.416.851,3.212,3.212,0,0,1-2.333-.878,3.067,3.067,0,0,1-.906-2.306v-1.208a7.163,7.163,0,0,1-2.937,3.349,8.81,8.81,0,0,1-4.639,1.208,10.772,10.772,0,0,1-4.886-1.1,8.692,8.692,0,0,1-3.459-3.02,7.629,7.629,0,0,1-1.263-4.282,6.784,6.784,0,0,1,1.51-4.667,9.073,9.073,0,0,1,4.914-2.47,44.746,44.746,0,0,1,9.388-.769h1.372v-1.263a5.621,5.621,0,0,0-1.153-3.925,4.906,4.906,0,0,0-3.733-1.235,11.846,11.846,0,0,0-3.239.467q-1.647.467-3.9,1.345a5.489,5.489,0,0,1-2.086.714,2.064,2.064,0,0,1-1.62-.714,2.713,2.713,0,0,1-.631-1.867,2.81,2.81,0,0,1,.467-1.62,4.429,4.429,0,0,1,1.565-1.29,17.9,17.9,0,0,1,4.584-1.647A23.654,23.654,0,0,1,15.207,257.471Zm-1.7,23a5.864,5.864,0,0,0,4.474-1.839,6.652,6.652,0,0,0,1.729-4.749v-1.153h-.988a37.872,37.872,0,0,0-5.71.329,5.544,5.544,0,0,0-2.91,1.153,2.936,2.936,0,0,0-.878,2.251,3.725,3.725,0,0,0,1.235,2.882A4.357,4.357,0,0,0,13.505,280.474Zm35.3-23q4.831,0,7.192,2.745t2.361,8.29v13.505a3.208,3.208,0,0,1-.906,2.416,3.437,3.437,0,0,1-2.5.878,3.536,3.536,0,0,1-2.525-.878,3.157,3.157,0,0,1-.933-2.416V268.89a7.118,7.118,0,0,0-1.18-4.557,4.536,4.536,0,0,0-3.706-1.427,6.264,6.264,0,0,0-4.749,1.867,6.929,6.929,0,0,0-1.784,5v12.243a3.157,3.157,0,0,1-.933,2.416,3.536,3.536,0,0,1-2.525.878,3.437,3.437,0,0,1-2.5-.878,3.208,3.208,0,0,1-.906-2.416V260.765a3.02,3.02,0,0,1,.933-2.306,3.536,3.536,0,0,1,2.525-.878,3.271,3.271,0,0,1,2.333.851,2.91,2.91,0,0,1,.906,2.223v1.482a9.284,9.284,0,0,1,3.678-3.459A11.07,11.07,0,0,1,48.806,257.471ZM87.73,246a3.659,3.659,0,0,1,2.525.878,2.937,2.937,0,0,1,.988,2.306v32.83a3.087,3.087,0,0,1-.933,2.361,3.913,3.913,0,0,1-4.941,0,3.087,3.087,0,0,1-.933-2.361v-1.372a8.6,8.6,0,0,1-3.486,3.514,10.522,10.522,0,0,1-5.188,1.263,11.126,11.126,0,0,1-6.176-1.757,11.65,11.65,0,0,1-4.227-4.968,17.17,17.17,0,0,1-1.51-7.384,16.625,16.625,0,0,1,1.51-7.3,11.083,11.083,0,0,1,10.4-6.533,10.744,10.744,0,0,1,5.161,1.208,8.379,8.379,0,0,1,3.459,3.4V249.071a2.91,2.91,0,0,1,.906-2.223A3.424,3.424,0,0,1,87.73,246ZM77.574,280.089a6.1,6.1,0,0,0,5.078-2.251,10.129,10.129,0,0,0,1.784-6.423,10.009,10.009,0,0,0-1.784-6.4,6.074,6.074,0,0,0-5.023-2.223,6.249,6.249,0,0,0-5.106,2.2,9.687,9.687,0,0,0-1.812,6.314,10.257,10.257,0,0,0,1.812,6.478A6.061,6.061,0,0,0,77.574,280.089ZM9.091,380.135a4.124,4.124,0,0,1-3-1.054,3.938,3.938,0,0,1-1.087-2.965V337.709a3.938,3.938,0,0,1,1.087-2.965,4.124,4.124,0,0,1,3-1.054H32.874a4.584,4.584,0,0,1,2.965.856,2.961,2.961,0,0,1,1.054,2.438,3.134,3.134,0,0,1-1.054,2.536,4.466,4.466,0,0,1-2.965.889H13.308V353.19H31.556a4.584,4.584,0,0,1,2.965.856,3.037,3.037,0,0,1,1.054,2.5,2.961,2.961,0,0,1-1.054,2.438,4.584,4.584,0,0,1-2.965.856H13.308v13.571H32.874a4.466,4.466,0,0,1,2.965.889,3.134,3.134,0,0,1,1.054,2.536,2.961,2.961,0,0,1-1.054,2.438,4.584,4.584,0,0,1-2.965.856Zm68.332-6.51a4,4,0,0,1,1.274,2.9,3.912,3.912,0,0,1-1.2,2.8,3.82,3.82,0,0,1-2.83,1.238,3.884,3.884,0,0,1-3.043-1.486l-9.977-11.039-9.977,11.039a4.1,4.1,0,0,1-3.043,1.415,4.117,4.117,0,0,1-3.963-3.963,4,4,0,0,1,1.274-2.9l10.331-11.251L46.5,351.761a4,4,0,0,1-1.274-2.9,3.758,3.758,0,0,1,1.2-2.8,3.851,3.851,0,0,1,2.76-1.168,4.1,4.1,0,0,1,3.043,1.415l9.411,10.331,9.411-10.331A4.1,4.1,0,0,1,74.1,344.9a3.986,3.986,0,0,1,3.963,3.963,4,4,0,0,1-1.274,2.9l-9.765,10.614Zm31.842-28.941a14.341,14.341,0,0,1,7.96,2.264,15.015,15.015,0,0,1,5.449,6.4,22.13,22.13,0,0,1,1.946,9.517,21.428,21.428,0,0,1-1.946,9.411,14.284,14.284,0,0,1-13.409,8.42,13.7,13.7,0,0,1-6.581-1.557,10.923,10.923,0,0,1-4.458-4.316v14.435a3.67,3.67,0,0,1-1.2,2.9,4.637,4.637,0,0,1-3.184,1.061,4.585,4.585,0,0,1-3.22-1.132,3.837,3.837,0,0,1-1.238-2.972V349a4.043,4.043,0,0,1,1.168-3.043,4.331,4.331,0,0,1,3.149-1.132,4.457,4.457,0,0,1,3.184,1.132,3.979,3.979,0,0,1,1.2,3.043v1.769a10.856,10.856,0,0,1,4.493-4.493A13.8,13.8,0,0,1,109.265,344.685Zm-2.335,29.153a7.93,7.93,0,0,0,6.51-2.866q2.335-2.866,2.335-8.1,0-5.378-2.335-8.35a8.723,8.723,0,0,0-13.055-.071q-2.3,2.9-2.3,8.279,0,5.307,2.3,8.208A7.867,7.867,0,0,0,106.93,373.838Zm56.679-3.184a2.381,2.381,0,0,1,1.946.92,3.827,3.827,0,0,1,.743,2.477q0,2.194-2.618,3.68a23.655,23.655,0,0,1-5.449,2.158,22.462,22.462,0,0,1-5.8.814q-8.35,0-13.232-4.812t-4.882-13.161a20.192,20.192,0,0,1,2.123-9.411,15.436,15.436,0,0,1,5.979-6.368,16.934,16.934,0,0,1,8.739-2.264,15.681,15.681,0,0,1,8.137,2.052,13.914,13.914,0,0,1,5.378,5.8,19.253,19.253,0,0,1,1.911,8.845q0,3.043-2.689,3.043H143.018q.425,4.882,2.76,7.182t6.793,2.3a12.881,12.881,0,0,0,4-.566,39.475,39.475,0,0,0,3.927-1.557A7.809,7.809,0,0,1,163.609,370.653Zm-12.241-19.742a7.594,7.594,0,0,0-5.767,2.264,10.691,10.691,0,0,0-2.583,6.51H159.01q-.142-4.316-2.123-6.545A7,7,0,0,0,151.368,350.911Zm46.065-6.085a3.809,3.809,0,0,1,2.9.778,3.455,3.455,0,0,1,1.061,2.76,3.855,3.855,0,0,1-.92,2.83,5.651,5.651,0,0,1-3.326,1.2l-2.123.212q-4.175.425-6.121,2.83a9.255,9.255,0,0,0-1.946,6.015v14.86a3.929,3.929,0,0,1-1.274,3.149,4.707,4.707,0,0,1-3.184,1.1,4.573,4.573,0,0,1-3.149-1.1,3.985,3.985,0,0,1-1.238-3.149V348.93a3.788,3.788,0,0,1,1.238-3.043,4.564,4.564,0,0,1,3.078-1.061,4.256,4.256,0,0,1,2.972,1.026,3.76,3.76,0,0,1,1.132,2.937v2.83a10.473,10.473,0,0,1,4-4.812,12.257,12.257,0,0,1,5.908-1.911Zm16.487,35.734a4.573,4.573,0,0,1-3.149-1.1,3.985,3.985,0,0,1-1.238-3.149V349a3.875,3.875,0,0,1,1.238-3.113,4.667,4.667,0,0,1,3.149-1.061,4.806,4.806,0,0,1,3.184,1.061A3.822,3.822,0,0,1,218.377,349v27.313a3.929,3.929,0,0,1-1.274,3.149A4.707,4.707,0,0,1,213.919,380.56Zm0-42.031a5.406,5.406,0,0,1-3.821-1.309,4.456,4.456,0,0,1-1.415-3.432,4.346,4.346,0,0,1,1.415-3.4,6.315,6.315,0,0,1,7.607,0,4.3,4.3,0,0,1,1.451,3.4,4.456,4.456,0,0,1-1.415,3.432A5.406,5.406,0,0,1,213.919,338.528Zm59.014,6.156q5.661,0,8.668,3.361t3.007,10.862v17.407a3.985,3.985,0,0,1-1.238,3.149,4.675,4.675,0,0,1-3.22,1.1,4.573,4.573,0,0,1-3.149-1.1,3.985,3.985,0,0,1-1.238-3.149V358.907q0-3.892-1.38-5.555a5.157,5.157,0,0,0-4.21-1.663,6.929,6.929,0,0,0-5.519,2.37,9.56,9.56,0,0,0-2.052,6.474v15.779a3.985,3.985,0,0,1-1.238,3.149,4.573,4.573,0,0,1-3.149,1.1,4.707,4.707,0,0,1-3.184-1.1,3.929,3.929,0,0,1-1.274-3.149V358.907q0-3.892-1.38-5.555a5.157,5.157,0,0,0-4.21-1.663,6.824,6.824,0,0,0-5.484,2.37,9.671,9.671,0,0,0-2.017,6.474v15.779a3.929,3.929,0,0,1-1.274,3.149,4.707,4.707,0,0,1-3.184,1.1,4.573,4.573,0,0,1-3.149-1.1,3.985,3.985,0,0,1-1.238-3.149V348.93a3.737,3.737,0,0,1,1.274-3.043,4.806,4.806,0,0,1,3.184-1.061,4.388,4.388,0,0,1,3.007,1.026,3.7,3.7,0,0,1,1.168,2.937v1.7a11.091,11.091,0,0,1,4.352-4.316,12.867,12.867,0,0,1,6.262-1.486q7.784,0,10.4,6.51a11.693,11.693,0,0,1,4.6-4.741A13.4,13.4,0,0,1,272.933,344.685ZM325.3,370.653a2.381,2.381,0,0,1,1.946.92,3.827,3.827,0,0,1,.743,2.477q0,2.194-2.618,3.68a23.655,23.655,0,0,1-5.449,2.158,22.462,22.462,0,0,1-5.8.814q-8.35,0-13.232-4.812T296,362.728a20.192,20.192,0,0,1,2.123-9.411,15.436,15.436,0,0,1,5.979-6.368,16.933,16.933,0,0,1,8.739-2.264,15.681,15.681,0,0,1,8.137,2.052,13.914,13.914,0,0,1,5.378,5.8,19.254,19.254,0,0,1,1.91,8.845q0,3.043-2.689,3.043H304.7q.425,4.882,2.76,7.182t6.793,2.3a12.88,12.88,0,0,0,4-.566,39.467,39.467,0,0,0,3.927-1.557A7.809,7.809,0,0,1,325.3,370.653Zm-12.241-19.742a7.594,7.594,0,0,0-5.767,2.264,10.691,10.691,0,0,0-2.583,6.51H320.7q-.141-4.316-2.123-6.545A7,7,0,0,0,313.054,350.911Zm46.843-6.227q6.227,0,9.27,3.538t3.043,10.685v17.407a4.135,4.135,0,0,1-1.168,3.113,4.43,4.43,0,0,1-3.22,1.132,4.557,4.557,0,0,1-3.255-1.132,4.069,4.069,0,0,1-1.2-3.113V359.4q0-4.033-1.521-5.873a5.847,5.847,0,0,0-4.776-1.84,8.073,8.073,0,0,0-6.121,2.406,8.93,8.93,0,0,0-2.3,6.439v15.779a4.069,4.069,0,0,1-1.2,3.113,4.557,4.557,0,0,1-3.255,1.132,4.43,4.43,0,0,1-3.22-1.132,4.135,4.135,0,0,1-1.168-3.113V348.93a3.892,3.892,0,0,1,1.2-2.972,4.557,4.557,0,0,1,3.255-1.132,4.215,4.215,0,0,1,3.007,1.1,3.751,3.751,0,0,1,1.168,2.866V350.7a11.966,11.966,0,0,1,4.741-4.458A14.268,14.268,0,0,1,359.9,344.685Zm43.588,29.295q3.538.212,3.538,3.184a2.878,2.878,0,0,1-1.38,2.583,6.583,6.583,0,0,1-3.927.743l-1.911-.142q-11.888-.849-11.888-12.737V352.185H384.38a4.493,4.493,0,0,1-2.937-.849,3.5,3.5,0,0,1,0-4.953,4.493,4.493,0,0,1,2.937-.849h3.538v-6.51a3.979,3.979,0,0,1,1.2-3.043,4.557,4.557,0,0,1,3.255-1.132,4.457,4.457,0,0,1,3.184,1.132,3.979,3.979,0,0,1,1.2,3.043v6.51h6.015a4.493,4.493,0,0,1,2.937.849,3.5,3.5,0,0,1,0,4.953,4.493,4.493,0,0,1-2.937.849h-6.015v16.063q0,5.236,4.812,5.59Zm24.978,6.722q-7.713,0-12.454-3.043a4.22,4.22,0,0,1-2.264-3.821,3.353,3.353,0,0,1,.778-2.3,2.448,2.448,0,0,1,1.911-.885,7.816,7.816,0,0,1,3.326,1.132,30.971,30.971,0,0,0,4.139,1.627,16.856,16.856,0,0,0,4.776.566,9.084,9.084,0,0,0,4.635-.991,3.069,3.069,0,0,0,1.663-2.76,2.66,2.66,0,0,0-.672-1.911,6.163,6.163,0,0,0-2.406-1.309,50.587,50.587,0,0,0-5.272-1.38q-6.3-1.274-9.022-3.609a8.031,8.031,0,0,1-2.724-6.439,9.291,9.291,0,0,1,1.84-5.625,11.923,11.923,0,0,1,5.059-3.892,18.432,18.432,0,0,1,7.324-1.38,21.952,21.952,0,0,1,5.732.743,17.423,17.423,0,0,1,4.953,2.158,4.271,4.271,0,0,1,2.264,3.75,3.63,3.63,0,0,1-.778,2.37,2.378,2.378,0,0,1-1.911.955,3.827,3.827,0,0,1-1.521-.318,20.423,20.423,0,0,1-1.875-.955,29.672,29.672,0,0,0-3.538-1.592,11.035,11.035,0,0,0-3.68-.531,7.125,7.125,0,0,0-4.139,1.061,3.353,3.353,0,0,0-1.521,2.9,2.944,2.944,0,0,0,1.557,2.689,22.291,22.291,0,0,0,6.015,1.84,34.317,34.317,0,0,1,7.43,2.264,8.7,8.7,0,0,1,3.856,3.184,9.238,9.238,0,0,1,1.168,4.882,9.074,9.074,0,0,1-4,7.713Q435.115,380.7,428.463,380.7Zm29.931-.142a5.022,5.022,0,0,1-3.75-1.521,5.565,5.565,0,0,1,0-7.571,5.383,5.383,0,0,1,7.5,0,5.565,5.565,0,0,1,0,7.571A5.022,5.022,0,0,1,458.395,380.56Z" transform="translate(0 -30.019)" fill="#f0f0f0"/><rect width="260" height="5" transform="translate(148.38 487.077)" fill="#8ab5ea" opacity="0.13"/><rect width="325" height="5" transform="translate(106.38 432.077)" fill="#8ab5ea" opacity="0.13"/><rect width="525" height="5" transform="translate(0.38 377.077)" fill="#8ab5ea" opacity="0.13"/></g><g transform="translate(430.01 0)"><g transform="translate(181.209 44.215)"><path d="M10,0H850a10,10,0,0,1,10,10V461a0,0,0,0,1,0,0H0a0,0,0,0,1,0,0V10A10,10,0,0,1,10,0Z" transform="translate(21.161 -0.12)" fill="#233241"/><rect width="829" height="440" transform="translate(35.161 20.88)" fill="#3f5671"/><g transform="translate(45.14 23.895)"><path d="M1069.7,633.77v34.2h-10.4v41.94h-44.292v45.831h118.163v41.823h-35.033v45.565H1048.36v47.049h108.688V934.69h-35.827v44.736h-47.673v45.119H1111.1v45.724H351.461V633.77H1069.7Z" transform="translate(-346.032 -627.976)" fill="#3f5671"/><path d="M880.994,117.342l562.72,313.051H1275.564v35.441h232.2l88.144,49.053H877.957Z" transform="translate(-870.69 -73.72)" fill="#fff"/><path d="M0,446.809V.15L702.487,1.255h23.042V43.407h-10.78V88.231h-41.8v35.13H790.584v54.517H755.967V222.7H708.16V257.82H815.445v54.517H781.514v44.824H732.672v35.13h37.58v54.517ZM687.37,437.1h72.077V401.985H687.37ZM10.323,183.927h.024v21.817l-.012,21.792h.012V437.1H677.891V401.985H395.22V347.467h49.914v-35.13H267.362v-9.694H475.656v-35.13H93.445V257.82l195.189-.207V222.7H76.4V213H335.85V177.878H42.76v-10l413.179.158V132.823l-318.614.231v-9.694l198.513-.194V88.194l-129,.036V78.537H539.579v-35H10.323V55.53h.024V162.135h-.024ZM650.14,392.291h72.077v-35.13H650.14Zm-81.677,0H640.54v-35.13H568.463Zm-81.689,0h72.077v-35.13H486.774Zm-81.677,0h72.077v-35.13H405.1Zm293.09-44.824h72.065v-35.13H698.187Zm-81.677,0h72.065v-35.13H616.51Zm-81.677,0H606.9v-35.13H534.833Zm-81.677,0h72.065v-35.13H453.156Zm278.66-44.824h72.077v-35.13H731.817Zm-81.677,0h72.077v-35.13H650.14Zm-81.689,0h72.077v-35.13H568.451Zm-81.677,0h72.077v-35.13H486.774ZM624.917,257.82h72.065V222.7H624.917Zm-81.689,0h72.077V222.7H543.228Zm-81.677,0h72.077V222.7H461.551Zm-81.677,0h72.077V222.7H379.874Zm-81.677,0h72.077V222.7H298.2ZM671.76,213h72.065V177.878H671.76Zm-81.677,0h72.065V177.878H590.083Zm-81.677,0h72.065V177.878H508.406Zm-81.677,0h72.053V177.878H426.729Zm-81.689,0h72.065V177.878H345.04Zm363.951-44.824h72.077V133.054H708.991Zm-81.677,0h72.065V133.054H627.314Zm-81.677,0H617.7V133.054H545.637Zm-81.677,0h72.065V133.054H463.96Zm126.123-44.824h72.065V88.231H590.083Zm-81.677,0h72.065V88.231H508.406Zm-81.677,0h72.053V88.231H426.729Zm-81.689,0h72.065V88.231H345.04ZM630.916,78.537h72.077V43.407H630.916Zm-81.677,0h72.077V43.407H549.239ZM714.8,34.867V9.54l-704.45.826V33.725h-.024v.207H22.331V33.92Z" transform="translate(0 -0.15)" fill="#2e4157"/></g><path d="M5,62.606a5,5,0,0,1-5-5V13.968a5,5,0,0,1,5-5H56.821a9.034,9.034,0,0,1,8.689-6.56H89.2a9.034,9.034,0,0,1,8.688,6.56h9.279a9.034,9.034,0,0,1,8.689-6.56h23.686a9.034,9.034,0,0,1,8.688,6.56H157.5a9.034,9.034,0,0,1,8.688-6.56h23.687a9.034,9.034,0,0,1,8.688,6.56h9.279a9.034,9.034,0,0,1,8.688-6.56h23.686a9.034,9.034,0,0,1,8.689,6.56h9.279a9.034,9.034,0,0,1,8.688-6.56H445.268a9.034,9.034,0,0,1,8.688,6.56h9.278a9.034,9.034,0,0,1,8.689-6.56h23.686a9.034,9.034,0,0,1,8.688,6.56h9.279a9.034,9.034,0,0,1,8.689-6.56H545.95a9.034,9.034,0,0,1,8.688,6.56h9.279a9.034,9.034,0,0,1,8.688-6.56h23.686a9.034,9.034,0,0,1,8.688,6.56h9.279a9.034,9.034,0,0,1,8.688-6.56h23.686a9.034,9.034,0,0,1,8.689,6.56h8.937A9.03,9.03,0,0,1,673.286,0h23.686A9.03,9.03,0,0,1,706,8.968H714.6A9.03,9.03,0,0,1,723.627,0h23.687a9.03,9.03,0,0,1,9.029,8.968H897.456a5,5,0,0,1,5,5V57.605a5,5,0,0,1-5,5Z" transform="translate(0 451.013)" fill="#233241"/><g transform="translate(63.44 37.82)"><circle cx="8" cy="8" r="8" transform="translate(26.721 0.06)" fill="#233241"/><circle cx="8" cy="8" r="8" transform="translate(53.721 0.06)" fill="#2e4157"/><circle cx="8" cy="8" r="8" transform="translate(-0.279 0.06)" fill="#8ab5ea"/></g><g transform="translate(63.44 75.64)"><rect width="175" height="112" rx="2" transform="translate(41.721 260.24)" fill="#2e4157"/><rect width="153" height="72" rx="2" transform="translate(51.721 272.24)" fill="#3f5671"/><ellipse cx="7.5" cy="8" rx="7.5" ry="8" transform="translate(51.721 350.24)" fill="#f0f0f0"/><rect width="133" height="5" transform="translate(71.721 360.24)" fill="#8ab5ea"/><rect width="116" height="6" transform="translate(71.721 350.24)" fill="#8ab5ea"/><rect width="193" height="3" transform="translate(49.721 194.24)" fill="#8ab5ea"/><rect width="152" height="5" transform="translate(49.721 151.24)" fill="#8ab5ea"/><rect width="36" height="35" rx="2" transform="translate(-0.279 139.24)" fill="#2e4157"/><rect width="36" height="34" rx="2" transform="translate(-0.279 193.24)" fill="#8ab5ea"/><rect width="98" height="107" rx="2" transform="translate(-0.279 0.24)" fill="#2e4157"/><rect width="70" height="41" rx="2" transform="translate(13.721 12.24)" fill="#3f5671"/></g></g><g transform="matrix(0.999, 0.035, -0.035, 0.999, 19.221, 0)"><path d="M27.146,4.544,22.367,17.019,0,9.663,4.562,0,27.146,2.646Z" transform="translate(151.018 509.166) rotate(-1)" fill="#f0f0f0"/><path d="M29.885,4.669l-1.4,18.68L0,14.009,11.672,0Z" transform="translate(44.203 508.509)" fill="#f0f0f0"/><path d="M139.251,5.235s12.609,14.943-3.269,37.825-35.023,45.3-35.023,45.3L65.464,155.6s-18.212,65.844-22.415,67.712-6.537-5.6-4.2,2.334.934,7.472-.934,7.941-7-.467-5.137,2.8,3.269,3.269-.467,3.269-5.137-2.334-5.137.934-3.269,10.74-3.269,10.74S1.02,244.8.086,242s6.071-4.2,4.67-7-1.868-2.8-1.868-7,2.8-5.137,2.8-5.137,2.334-.934,1.4-2.8-4.67-.934,0-3.269S30.909,143,30.909,143s0-35.495,6.071-47.167S38.38,1.031,52.861.1,139.251,5.235,139.251,5.235Z" transform="translate(50.183 269.316)" fill="#233241"/><path d="M44.366,0l-2.8,72.382s14.009,70.047,9.34,91.528-1.4,18.679-4.2,22.415-5.137,1.868-2.8,5.137,3.731,4.2,0,7.941-5.6,12.609-5.6,12.609l-23.816-2.334s6.07-10.74,3.731-13.076S9.8,198,14.478,192.87s7.472-2.8,4.67-5.137-7-1.4-3.269-5.137,7.941-3.731,4.2-5.137-7.941,0-6.071-2.8,4.2-6.07,4.2-6.07l-5.6-42.5s-6.537-14.009-4.67-20.08S0,49.974,0,49.974Z" transform="translate(140.398 301.169)" fill="#233241"/><path d="M55.734,14.966S60.4,10.3,61.8,13.1s11.672,28.019,5.6,29.886S52.465,46.716,47.8,45.32s-14.476-7.941-26.15-7.941S.164,32.242.164,30.374-1.7,17.3,7.168,17.3,32.385,7.025,32.385,7.025s3.731-7.472,5.6-7,.467,15.41.467,15.41S49.194,25.706,55.734,14.966Z" transform="translate(118.758 501.48)" fill="#233241"/><path d="M70.82,19.684s4.2-10.273,8.406-7.941,1.4,31.285,1.4,31.285S76.9,49.1,66.15,47.7s-39.226-4.67-45.764-3.269S-3.9,37.892.773,27.151c0,0,2.334-6.07,13.543-5.6S46.071,8.471,46.071,8.471s3.269-9.34,4.2-8.406,1.868,17.279,1.868,17.279S64.283,25.288,70.82,19.684Z" transform="translate(0 502.832)" fill="#233241"/><circle cx="27.085" cy="27.085" r="27.085" transform="translate(104.91 37.792)" fill="#f8caca"/><path d="M30.982,0S45.458,28.953,50.595,31.755c2.157,1.177-3.675,4.908-11.458,8.991-10.056,5.277-23.565,11.09-23.565,11.09S9.034,23.35,1.1,17.28,30.982,0,30.982,0Z" transform="translate(122.027 66.745)" fill="#f8caca"/><path d="M16.719,2.334,14.851,20.08S-5.229,13.076,1.309,0Z" transform="translate(94.729 301.169)" fill="#f8caca"/><path d="M2,18.99c-.62-.367-2-5.824-2-5.824L34.921,0s4.415,3.684,4.208,4.977S2.616,19.356,2,18.99Z" transform="translate(135.128 97.553) rotate(-1)" fill="#f0f0f0"/><path d="M6.228,177.177c14.009,14.939,88.256,2.331,88.256,2.331l-.93-10.739,9.34-9.8-2.8-45.767s8.4-21.479,9.8-54.167a29.467,29.467,0,0,0-.362-6.006C104.717,23.745,77.175-.437,75.865.006,75.206.223,48.048,9.2,40.723,13.05c-8.409,4.417-17.216,9.089-17.216,9.089-11.209,4.21-9.34,71.456-13.078,77.525s0,27.076,0,27.076l-4.2,20.079S-7.785,162.238,6.228,177.177Z" transform="translate(97.284 99.709)" fill="#8ab5ea"/><path d="M40.377,1.444S53.453,40.671,50.65,67.289,17.495,170.025,17.495,170.025l-10.269,5.6V188.7L0,169.13l19.871-41.549S-4.924-15.833,40.377,1.444Z" transform="translate(108.393 127.193)" opacity="0.1" style="isolation:isolate"/><path d="M54.636,1.363S67.712,40.589,64.91,67.207,31.754,169.944,31.754,169.944l-10.273,5.607v13.076L0,182.556l4.67-15.41S-2.8,157.806,2.335,155s4.2-18.212,4.2-18.212S9.339-15.916,54.636,1.363Z" transform="translate(92.77 120.953)" fill="#8ab5ea"/><path d="M38.631,64.079c1.219-4.213.867-9.915-3.236-11.509-2.138-.83-4.523-.175-6.806.057a18.223,18.223,0,0,1-12.551-3.44C11.795,46.047,9.174,41.246,6.684,36.6L2.919,29.574A30.48,30.48,0,0,1,.783,25c-2.095-6.2.18-13.384,4.836-18A26.291,26.291,0,0,1,23.536,0,48.535,48.535,0,0,1,42.681,4.084,84.694,84.694,0,0,1,71.227,23.177c5.3,5.395,10.118,12.422,9.011,19.885-.861,5.809-5.114,10.461-9.171,14.724L56.355,73.25c-2.606,2.739-5.39,5.589-9.028,6.642S39,79.4,38.01,75.757C38.01,75.757,37.412,68.292,38.631,64.079Z" transform="translate(98.357 28.812) rotate(-21)" fill="#93876f"/><path d="M4.547,26.125c1.487,4.285-.153-13.793-.153-13.793L11.389,0S2.177,5.3.41,8.739,3.06,21.84,4.547,26.125Z" transform="translate(180.014 252.483)" fill="#7ca3d2"/><path d="M20.661,27.293c-6.347,3.059-23.8-14.7-16.048-24.961S-13.768,18.44,10.808,27.293,27.008,24.235,20.661,27.293Z" transform="translate(116.611 24.67) rotate(19)" fill="#837863"/></g></g></svg>