<svg xmlns="http://www.w3.org/2000/svg" width="36" height="36" viewBox="0 0 36 36"><path d="M22.965,13.035a10.682,10.682,0,0,1,.025,15.088l-.025.026L18.24,32.875A10.687,10.687,0,0,1,3.126,17.76l2.609-2.609a1.124,1.124,0,0,1,1.919.746A12.956,12.956,0,0,0,8.335,19.6a1.132,1.132,0,0,1-.266,1.168l-.92.92a5.063,5.063,0,1,0,7.114,7.2l4.725-4.724a5.061,5.061,0,0,0,0-7.16,5.267,5.267,0,0,0-.727-.6,1.128,1.128,0,0,1-.488-.886,2.8,2.8,0,0,1,.823-2.1l1.48-1.48a1.13,1.13,0,0,1,1.447-.122,10.721,10.721,0,0,1,1.443,1.209Zm9.909-9.91a10.7,10.7,0,0,0-15.114,0L13.035,7.85l-.025.026a10.69,10.69,0,0,0,1.468,16.3,1.13,1.13,0,0,0,1.447-.122l1.48-1.48a2.8,2.8,0,0,0,.823-2.1,1.128,1.128,0,0,0-.488-.886,5.267,5.267,0,0,1-.727-.6,5.061,5.061,0,0,1,0-7.16L21.738,7.1a5.063,5.063,0,1,1,7.114,7.2l-.92.92a1.132,1.132,0,0,0-.266,1.168,12.956,12.956,0,0,1,.681,3.707,1.124,1.124,0,0,0,1.919.746l2.609-2.609a10.7,10.7,0,0,0,0-15.114Z" transform="translate(0 0)"/></svg>