<svg xmlns="http://www.w3.org/2000/svg" width="376.283" height="114.262" viewBox="0 0 376.283 114.262">
    <g transform="translate(-0.004 0.001)">
        <path d="M4.61,116.261Z" transform="translate(254.494 -2)" fill="var(--Text, #fff)" />
        <path d="M52.036,103V85.443L5.4,51.693,52.04,17.767V0h.2A51.787,51.787,0,0,1,84.667,11.539l-24.35,90.875A52,52,0,0,1,52.5,103Zm-19.1-3.844A51.692,51.692,0,0,1,6.444,74.571l38.637,27.9h0a51.251,51.251,0,0,1-12.145-3.316ZM95.824,24A51.142,51.142,0,0,1,76.2,97.239ZM6.24,28.841A51.456,51.456,0,0,1,45.29.5L6.242,28.842Z" transform="translate(-5.396 -0.001)" fill="var(--Text, #fff)" />
        <g transform="translate(137.7 57)">
            <path d="M22.4-1.242l4.738-22.54H20.884l-.736,3.634h-.092a6.362,6.362,0,0,0-2.9-3.312,9.458,9.458,0,0,0-4.37-.966,10.123,10.123,0,0,0-5.083,1.265,12.211,12.211,0,0,0-3.772,3.312,15.164,15.164,0,0,0-2.346,4.6,17.115,17.115,0,0,0-.8,5.175,11.583,11.583,0,0,0,.644,3.979A9.107,9.107,0,0,0,3.243-3.036,7.781,7.781,0,0,0,6.118-1.058a10.081,10.081,0,0,0,3.818.69,7.826,7.826,0,0,0,6.532-3.358l.092.092q-.506,1.7-1.012,3.22a10.953,10.953,0,0,1-1.242,2.622,5.825,5.825,0,0,1-1.771,1.748,4.838,4.838,0,0,1-2.6.644,6.808,6.808,0,0,1-1.564-.184,4.266,4.266,0,0,1-1.4-.6A3.11,3.11,0,0,1,5.98,2.76,2.813,2.813,0,0,1,5.658,1.2H-.828a6.866,6.866,0,0,0,.9,3.634A7.288,7.288,0,0,0,2.415,7.222,10.314,10.314,0,0,0,5.681,8.556a16.212,16.212,0,0,0,3.611.414,19.552,19.552,0,0,0,5.129-.6,10.568,10.568,0,0,0,3.772-1.84,9.646,9.646,0,0,0,2.6-3.174A18.753,18.753,0,0,0,22.4-1.242ZM13.984-19.5a4.247,4.247,0,0,1,3.542,1.449,5.774,5.774,0,0,1,1.15,3.7,11.919,11.919,0,0,1-.437,3.128A10.262,10.262,0,0,1,16.951-8.3a7.267,7.267,0,0,1-2.162,2.162,5.492,5.492,0,0,1-3.059.851A4.379,4.379,0,0,1,9.752-5.7a3.858,3.858,0,0,1-1.38-1.15,4.871,4.871,0,0,1-.8-1.679,7.693,7.693,0,0,1-.253-2,11.358,11.358,0,0,1,.437-3.013,10.721,10.721,0,0,1,1.265-2.9,7.611,7.611,0,0,1,2.07-2.185A4.907,4.907,0,0,1,13.984-19.5Zm18.538-4.278L27.6,0h6.486l2.208-10.534a20.072,20.072,0,0,1,.851-2.921,8.95,8.95,0,0,1,1.426-2.507,6.5,6.5,0,0,1,2.208-1.748,7.2,7.2,0,0,1,3.2-.644,7.021,7.021,0,0,1,1.38.138l1.38.276,1.334-6.348a14.963,14.963,0,0,0-2.024-.138,9.673,9.673,0,0,0-4.853,1.265,7.824,7.824,0,0,0-3.335,3.749l-.092-.092.966-4.278Zm25.3-3.68,1.2-5.382H52.44l-1.2,5.382Zm-7.314,3.68L45.494,0h6.532l5.06-23.782ZM77.1-19.412H69.69L65.6,0H59.064l4.094-19.412h-3.91l.92-4.37h3.91l.414-1.84a8.932,8.932,0,0,1,3.036-5.2,9.644,9.644,0,0,1,6.44-2.024q.874,0,1.748.069t1.656.115L76.36-27.784a20.459,20.459,0,0,0-2.346-.138,3.025,3.025,0,0,0-2.047.621,3.78,3.78,0,0,0-1.035,2.093l-.322,1.426h7.406l.414-1.84a8.932,8.932,0,0,1,3.036-5.2,9.644,9.644,0,0,1,6.44-2.024q.874,0,1.748.069t1.656.115L90.3-27.784a20.459,20.459,0,0,0-2.346-.138A3.025,3.025,0,0,0,85.9-27.3a3.78,3.78,0,0,0-1.035,2.093l-.322,1.426h4.508l-.92,4.37H83.628L79.534,0H73ZM89.93-16.56h6.118a3.7,3.7,0,0,1,1.7-2.645,5.838,5.838,0,0,1,3.128-.851,8.533,8.533,0,0,1,1.357.115,4.4,4.4,0,0,1,1.334.437,3.005,3.005,0,0,1,1.035.874,2.4,2.4,0,0,1,.414,1.472,2.4,2.4,0,0,1-.552,1.725,3.54,3.54,0,0,1-1.679.874,16.477,16.477,0,0,1-2.829.437q-1.7.138-4,.414a12.078,12.078,0,0,0-6.693,2.576,6.965,6.965,0,0,0-2.369,5.52,6.209,6.209,0,0,0,.46,2.369A5.269,5.269,0,0,0,88.78-1.265,7.193,7.193,0,0,0,91.195.092,10.254,10.254,0,0,0,94.576.6a11.469,11.469,0,0,0,4-.713,7.931,7.931,0,0,0,3.266-2.231V0h6.532a4.972,4.972,0,0,1-.23-1.38q0-.69.069-1.633a8,8,0,0,1,.253-1.587l2.116-9.568a18.982,18.982,0,0,0,.506-4,4.967,4.967,0,0,0-.9-3.243,6.266,6.266,0,0,0-2.415-1.886,11.341,11.341,0,0,0-3.22-.9,25.758,25.758,0,0,0-3.358-.23,19.215,19.215,0,0,0-3.91.391,10.7,10.7,0,0,0-3.4,1.311,8.583,8.583,0,0,0-2.576,2.415A8.467,8.467,0,0,0,89.93-16.56Zm13.8,5.152-.644,2.3a16.206,16.206,0,0,1-.69,1.932,5.885,5.885,0,0,1-1.127,1.725,5.635,5.635,0,0,1-1.748,1.242,6.02,6.02,0,0,1-2.553.483,4.676,4.676,0,0,1-2.507-.667,2.2,2.2,0,0,1-1.081-2,3.581,3.581,0,0,1,.414-1.817,3.178,3.178,0,0,1,1.081-1.127,5.151,5.151,0,0,1,1.541-.621,13.683,13.683,0,0,1,1.794-.3q1.426-.092,2.852-.253A6.638,6.638,0,0,0,103.73-11.408Zm10.764,4.324L113.022,0h7.222l1.518-7.084Z" transform="translate(-20.529 3.986) rotate(-0.974)" fill="var(--Text, #fff)" />
        </g>
        <path d="M4.525-3.3l2.4-11.25h2.95a4.576,4.576,0,0,1,1.788.312,3.122,3.122,0,0,1,1.212.888,3.567,3.567,0,0,1,.688,1.362,6.766,6.766,0,0,1,.212,1.762,8.484,8.484,0,0,1-.412,2.675,6.7,6.7,0,0,1-1.2,2.2,5.613,5.613,0,0,1-1.95,1.5A6.156,6.156,0,0,1,7.55-3.3Zm-.85-14.55L-.075,0h7.45a11.445,11.445,0,0,0,4.513-.825,8.832,8.832,0,0,0,3.225-2.287A9.712,9.712,0,0,0,17.05-6.575,13.917,13.917,0,0,0,17.7-10.9a6.763,6.763,0,0,0-1.9-5.138q-1.9-1.813-5.675-1.812Zm18.5,0L18.45,0H32.2l.7-3.3H23.05l.925-4.375H32.95l.65-3.05H24.625l.8-3.825h9.7l.675-3.3ZM43.475,0,53-17.85H48.925L42.15-4.45H42.1l-1.175-13.4H37L39.05,0Z" transform="translate(245.297 58.295) rotate(-0.974)" fill="var(--Text, #fff)" />
        <path d="M851.252,650.13s-12.467,22.189-24.426,23.885,279.857-42.995,279.857-42.995l-52.062-27.164h-17.948l51.079,24.659Z" transform="translate(-730.396 -566.807)" fill="var(--Text, #fff)" />
    </g>
</svg>