<svg xmlns="http://www.w3.org/2000/svg" viewBox="0 0 376.286 114.26">
    <path d="M4.61,116.261Z" transform="translate(254.494 -2)" fill="var(--Text, #fff)" />
    <path d="M52.036,103V85.443L5.4,51.693l46.64-33.926V0h.2A51.787,51.787,0,0,1,84.667,11.539l-24.35,90.875A52,52,0,0,1,52.5,103Zm-19.1-3.844A51.692,51.692,0,0,1,6.444,74.571l38.637,27.9v0A51.251,51.251,0,0,1,32.936,99.155Zm62.888-75.16A51.818,51.818,0,0,1,104,51.747,51.572,51.572,0,0,1,76.2,97.239ZM6.24,28.841A51.661,51.661,0,0,1,32.968,3.833,51.2,51.2,0,0,1,45.29.5L6.242,28.842Z" transform="translate(-5.396 -0.001)" fill="var(--Text, #fff)" />
    <g transform="translate(137.7 57)">
        <text transform="matrix(1, -0.017, 0.017, 1, -21.328, -43.014)" fill="var(--Text, var(--Text, #fff))" font-size="46" font-family="Nunito-ExtraBoldItalic, Nunito" font-weight="800" font-style="italic">
            <tspan x="0" y="47">griffa.</tspan>
        </text>
    </g>
    <text transform="matrix(1, -0.017, 0.017, 1, 245.297, 58.295)" fill="var(--Text, var(--Text, #fff))" font-size="25" font-family="Nunito-ExtraBoldItalic, Nunito" font-weight="800" font-style="italic">
        <tspan x="0" y="0">DEV</tspan>
    </text>
    <path d="M851.252,650.13s-12.467,22.189-24.426,23.885,279.857-42.995,279.857-42.995l-52.062-27.164h-17.948l51.079,24.659Z" transform="translate(-730.396 -566.807)" fill="var(--Primary, #fff)" />
</svg>