<svg xmlns="http://www.w3.org/2000/svg" width="26" height="26" viewBox="0 0 26 26"><path d="M25.285,7.218,22.944,9.559a.61.61,0,0,1-.863,0L16.444,3.922a.61.61,0,0,1,0-.863L18.785.718a2.443,2.443,0,0,1,3.448,0L25.285,3.77A2.434,2.434,0,0,1,25.285,7.218ZM14.433,5.07,1.1,18.405.021,24.575a1.22,1.22,0,0,0,1.412,1.412L7.6,24.906,20.938,11.57a.61.61,0,0,0,0-.863L15.3,5.07a.616.616,0,0,0-.868,0ZM6.3,17.263a.708.708,0,0,1,0-1.006l7.821-7.821a.711.711,0,0,1,1.006,1.006L7.308,17.263a.708.708,0,0,1-1.006,0ZM4.469,21.534H6.907v1.843l-3.276.574L2.052,22.371,2.626,19.1H4.469Z" transform="translate(-0.002 -0.005)"/></svg>