<svg xmlns="http://www.w3.org/2000/svg" viewBox="0 0 106 90"><path data-name="Icon awesome-code" d="M46.202 89.912l-10.1-3.115a2.134 2.134 0 01-1.358-2.619L57.351 1.522A1.977 1.977 0 0159.819.081l10.104 3.116a2.134 2.134 0 011.359 2.615L48.671 88.47a1.971 1.971 0 01-2.469 1.442zM27.319 70.188l7.206-8.157a2.2 2.2 0 00-.133-3.024l-15.007-14.01 15.007-14.011a2.184 2.184 0 00.133-3.024l-7.206-8.157a1.91 1.91 0 00-2.817-.088L.634 43.449a2.184 2.184 0 000 3.076l23.868 23.751a1.9 1.9 0 002.816-.088zm54.2.105l23.869-23.75a2.184 2.184 0 000-3.076l-23.87-23.77a1.925 1.925 0 00-2.816.088l-7.206 8.157a2.2 2.2 0 00.133 3.024l15.008 14.031-15.008 14.01a2.184 2.184 0 00-.133 3.024l7.206 8.157a1.911 1.911 0 002.816.105z"/></svg>