<svg xmlns="http://www.w3.org/2000/svg" width="33.36" height="31.507" viewBox="0 0 33.36 31.507">
  <path id="Icon_awesome-reddit-alien" data-name="Icon awesome-reddit-alien" d="M30.959,14.309a3.744,3.744,0,0,0-2.665,1.118,18.071,18.071,0,0,0-9.64-2.974L20.6,3.677,26.8,5.07a2.761,2.761,0,0,0,2.756,2.756A2.791,2.791,0,1,0,27.077,3.79L20.229,2.271a.655.655,0,0,0-.773.5l-2.137,9.675a18.3,18.3,0,0,0-9.584,3.009,3.708,3.708,0,1,0-4.31,5.892,7.87,7.87,0,0,0-.183,1.737c0,5.892,6.637,10.666,14.787,10.666,8.184,0,14.822-4.774,14.822-10.666a6.708,6.708,0,0,0-.218-1.765A3.7,3.7,0,0,0,30.959,14.309ZM9.1,21.72a2.774,2.774,0,1,1,2.791,2.756A2.78,2.78,0,0,1,9.1,21.72Zm15.068,6.574c-2.559,2.559-9.78,2.559-12.34,0a.655.655,0,0,1,0-.963.676.676,0,0,1,.928,0c1.955,2,8.438,2.039,10.477,0a.676.676,0,0,1,.928,0A.65.65,0,0,1,24.166,28.294Zm-.056-3.811A2.774,2.774,0,1,1,26.9,21.727,2.761,2.761,0,0,1,24.11,24.483Z" transform="translate(-1.319 -2.243)"/>
</svg>
