<svg xmlns="http://www.w3.org/2000/svg" width="27" height="29.813" viewBox="0 0 27 29.813">
  <path id="Icon_ionic-md-share" data-name="Icon ionic-md-share" d="M26.987,24.218a4.1,4.1,0,0,0-2.934,1.124L13.3,19.124a5.037,5.037,0,0,0,.151-1.049,5.035,5.035,0,0,0-.151-1.049l10.6-6.142a4.5,4.5,0,1,0-1.429-3.3,5.007,5.007,0,0,0,.151,1.049l-10.6,6.142a4.527,4.527,0,0,0-3.084-1.2A4.453,4.453,0,0,0,4.5,18.075a4.528,4.528,0,0,0,7.6,3.3l10.68,6.217a3.758,3.758,0,0,0-.151.974,4.362,4.362,0,1,0,4.362-4.344Z" transform="translate(-4.5 -3.094)"/>
</svg>
