<svg xmlns="http://www.w3.org/2000/svg" width="96.923" height="90"><path data-name="Icon ionic-ios-star" d="M93.25 31.154H61.421L51.75 2.293a3.5 3.5 0 00-6.577 0l-9.671 28.861H3.462A3.472 3.472 0 000 34.615a2.544 2.544 0 00.065.584 3.326 3.326 0 001.45 2.445l26.156 18.433-10.039 29.185a3.471 3.471 0 001.19 3.894 3.348 3.348 0 001.947.844 4.241 4.241 0 002.163-.779l25.53-18.196 25.528 18.2a4.054 4.054 0 002.163.779 3.108 3.108 0 001.925-.844 3.429 3.429 0 001.19-3.894L69.231 56.077l25.94-18.606.627-.541a3.629 3.629 0 001.125-2.315 3.664 3.664 0 00-3.673-3.461z"/></svg>