<svg xmlns="http://www.w3.org/2000/svg" viewBox="0 0 97 91"><path data-name="Icon ionic-ios-star-outline" d="M93.75 31.654H61.921L52.25 2.793a3.5 3.5 0 00-6.577 0l-9.671 28.861H3.962A3.472 3.472 0 00.5 35.115a2.544 2.544 0 00.065.584 3.326 3.326 0 001.45 2.445l26.156 18.433-10.039 29.185a3.471 3.471 0 001.19 3.894 3.348 3.348 0 001.947.844 4.241 4.241 0 002.163-.779l25.53-18.196 25.528 18.2a4.054 4.054 0 002.163.779 3.108 3.108 0 001.925-.844 3.429 3.429 0 001.19-3.894L69.731 56.577l25.94-18.606.627-.541a3.629 3.629 0 001.125-2.315 3.664 3.664 0 00-3.673-3.461zM66.226 51.666a6.076 6.076 0 00-2.207 6.88l6.512 18.974a.868.868 0 01-1.32 1L52.466 66.572a6.045 6.045 0 00-3.526-1.125 5.932 5.932 0 00-3.5 1.125L28.69 78.493a.865.865 0 01-1.32-1l6.512-18.968a6.1 6.1 0 00-2.232-6.924L14.13 39.248a.87.87 0 01.5-1.579h21.351a6.049 6.049 0 005.733-4.132l6.4-19.082a.871.871 0 011.644 0l6.4 19.082a6.049 6.049 0 005.733 4.132H82.95a.856.856 0 01.5 1.558z" stroke="currentColor"/></svg>