<svg class="light" xmlns="http://www.w3.org/2000/svg" width="15.999" height="16" viewBox="0 0 15.999 16">
    <path fill="var(--Text,#2e4157)" d="M8,5a3,3,0,1,0,3,3A3,3,0,0,0,8,5Zm7.7,2.516L12.741,6.038,13.788,2.9a.54.54,0,0,0-.684-.684L9.966,3.263,8.484.3a.541.541,0,0,0-.969,0L6.038,3.259,2.9,2.213a.54.54,0,0,0-.684.684L3.259,6.034.3,7.516a.541.541,0,0,0,0,.969L3.259,9.962,2.212,13.1a.54.54,0,0,0,.684.684l3.138-1.047L7.512,15.7a.541.541,0,0,0,.969,0l1.478-2.959L13.1,13.788a.54.54,0,0,0,.684-.684L12.734,9.966l2.959-1.478a.542.542,0,0,0,.006-.972Zm-4.872,3.312a4,4,0,1,1,0-5.656A4,4,0,0,1,10.828,10.828Z" transform="translate(0 0)" />
</svg>