<svg xmlns="http://www.w3.org/2000/svg" width="32.012" height="26" viewBox="0 0 32.012 26"><path d="M28.722,9.86c.02.284.02.569.02.853,0,8.673-6.6,18.667-18.667,18.667A18.541,18.541,0,0,1,0,26.435a13.573,13.573,0,0,0,1.584.081,13.14,13.14,0,0,0,8.145-2.8A6.573,6.573,0,0,1,3.6,19.164a8.274,8.274,0,0,0,1.239.1,6.939,6.939,0,0,0,1.727-.223A6.562,6.562,0,0,1,1.3,12.6v-.081a6.608,6.608,0,0,0,2.966.833A6.571,6.571,0,0,1,2.234,4.579a18.649,18.649,0,0,0,13.528,6.866,7.407,7.407,0,0,1-.163-1.5A6.567,6.567,0,0,1,26.955,5.453a12.917,12.917,0,0,0,4.164-1.584,6.543,6.543,0,0,1-2.884,3.616,13.153,13.153,0,0,0,3.778-1.016A14.1,14.1,0,0,1,28.722,9.86Z" transform="translate(0 -3.381)"/></svg>